STARTFONT 2.1
COMMENT
COMMENT Converted from OpenType font "OpenSans-Italic.ttf" by "otf2bdf 3.0".
COMMENT
FONT -FreeType-Open Sans-Medium-I-Normal--44-320-100-100-P-228-ISO10646-1
SIZE 32 100 100
FONTBOUNDINGBOX 75 59 -21 -12
STARTPROPERTIES 19
FOUNDRY "FreeType"
FAMILY_NAME "Open Sans"
WEIGHT_NAME "Medium"
SLANT "I"
SETWIDTH_NAME "Normal"
ADD_STYLE_NAME ""
PIXEL_SIZE 44
POINT_SIZE 320
RESOLUTION_X 100
RESOLUTION_Y 100
SPACING "P"
AVERAGE_WIDTH 228
CHARSET_REGISTRY "ISO10646"
CHARSET_ENCODING "1"
FONT_ASCENT 47
FONT_DESCENT 12
COPYRIGHT "Copyright 2020 The Open Sans Project Authors (https://github.com/googlefonts/opensans)"
_OTF_FONTFILE "OpenSans-Italic.ttf"
_OTF_PSNAME "OpenSans-Italic"
ENDPROPERTIES
CHARS 1010
STARTCHAR 0000
ENCODING 0
SWIDTH 0 0
DWIDTH 0 0
BBX 0 0 0 0
BITMAP
ENDCHAR
STARTCHAR 000D
ENCODING 13
SWIDTH 247 0
DWIDTH 11 0
BBX 0 0 0 0
BITMAP
ENDCHAR
STARTCHAR 0020
ENCODING 32
SWIDTH 247 0
DWIDTH 11 0
BBX 0 0 0 0
BITMAP
ENDCHAR
STARTCHAR 0021
ENCODING 33
SWIDTH 247 0
DWIDTH 11 0
BBX 11 33 1 -1
BITMAP
01E0
03E0
03C0
03C0
03C0
03C0
0780
0780
0780
0780
0700
0700
0F00
0F00
0F00
0E00
0E00
1E00
1E00
1C00
1C00
1C00
1C00
0000
0000
0000
0000
7800
F800
F800
F800
F000
6000
ENDCHAR
STARTCHAR 0022
ENCODING 34
SWIDTH 382 0
DWIDTH 17 0
BBX 13 12 5 20
BITMAP
7878
7878
7870
78F0
70F0
70E0
70E0
E0E0
E0E0
E0C0
E1C0
C1C0
ENDCHAR
STARTCHAR 0023
ENCODING 35
SWIDTH 630 0
DWIDTH 28 0
BBX 28 32 1 0
BITMAP
000E0380
000E0380
000E0700
000C0700
001C0700
001C0600
001C0E00
00380E00
00380E00
00381C00
1FFFFFF0
1FFFFFF0
00703800
00703800
00E03800
00E03000
00E07000
01C07000
01C07000
01C0E000
7FFFFF80
FFFFFF80
FFFFFF80
0381C000
0701C000
0701C000
07038000
07038000
0E038000
0E070000
0E070000
1C070000
ENDCHAR
STARTCHAR 0024
ENCODING 36
SWIDTH 540 0
DWIDTH 24 0
BBX 21 37 2 -3
BITMAP
000700
000700
000600
000600
003FC0
01FFF8
03FFF8
07CC70
0F1C00
0E1C00
1E1C00
1E1C00
1E1800
1E3800
0F3800
0FB800
07F800
03FC00
00FF00
007F80
0077C0
0063C0
00E1E0
00E1E0
00E1E0
00E1C0
00C3C0
81C780
F9DF80
FFFF00
FFFC00
0FE000
038000
038000
038000
030000
030000
ENDCHAR
STARTCHAR 0025
ENCODING 37
SWIDTH 787 0
DWIDTH 35 0
BBX 29 32 4 0
BITMAP
07E000F0
0FF000E0
1FF001C0
3C380380
78380780
70380700
70380E00
E0381C00
E0383C00
E0383800
E0387000
E070F000
E070E000
E071C7E0
E0E39FF0
E0E79E78
E1C73838
FF8E7838
7F1C7038
1C3C7038
0038F038
0070E038
00E0E038
01E0E038
01C0E070
0380E070
0700E070
0F00E0E0
0E00E1E0
1C00F3C0
38007F80
78003F00
ENDCHAR
STARTCHAR 0026
ENCODING 38
SWIDTH 652 0
DWIDTH 29 0
BBX 27 32 1 0
BITMAP
001FE000
003FF000
007FF800
00F03C00
01E03C00
01E01C00
01C01C00
01C01C00
01C03C00
01C07800
01E0F800
00E1F000
00F7C000
007F8000
007E0000
01FC0000
07FE0000
0F9E00E0
1E0F01E0
3C0781C0
780783C0
7803C380
7001E780
7001FF00
F000FE00
70007C00
70007C00
7801FC00
7C03FE00
3FFFCF00
1FFF0F80
0FFC0780
ENDCHAR
STARTCHAR 0027
ENCODING 39
SWIDTH 202 0
DWIDTH 9 0
BBX 5 12 5 20
BITMAP
78
78
78
78
70
70
70
E0
E0
E0
E0
C0
ENDCHAR
STARTCHAR 0028
ENCODING 40
SWIDTH 270 0
DWIDTH 12 0
BBX 14 39 2 -7
BITMAP
003C
0038
0070
00E0
01E0
03C0
0380
0780
0F00
0E00
1E00
1C00
3C00
3C00
3800
7800
7800
7000
F000
F000
F000
E000
E000
E000
E000
E000
E000
E000
E000
E000
E000
F000
F000
7000
7000
7000
3800
3800
1C00
ENDCHAR
STARTCHAR 0029
ENCODING 41
SWIDTH 270 0
DWIDTH 12 0
BBX 14 39 -3 -7
BITMAP
00E0
00E0
0070
0070
0078
0038
0038
0038
003C
003C
003C
003C
003C
003C
003C
003C
003C
003C
003C
0038
0038
0078
0078
0070
0070
00F0
00E0
01E0
01E0
03C0
03C0
0780
0700
0F00
1E00
1C00
3800
7000
E000
ENDCHAR
STARTCHAR 002A
ENCODING 42
SWIDTH 540 0
DWIDTH 24 0
BBX 20 20 5 14
BITMAP
003000
003800
003800
007800
007000
407000
F07000
FC6000
3F6000
07FFF0
00FFF0
01E1F0
07F000
0F3000
1E3800
3C3800
7C3C00
381C00
101E00
001E00
ENDCHAR
STARTCHAR 002B
ENCODING 43
SWIDTH 562 0
DWIDTH 25 0
BBX 21 21 3 5
BITMAP
007000
007000
007000
007000
007000
007000
007000
007000
007000
FFFFF8
FFFFF8
FFFFF8
007000
007000
007000
007000
007000
007000
007000
007000
007000
ENDCHAR
STARTCHAR 002C
ENCODING 44
SWIDTH 247 0
DWIDTH 11 0
BBX 9 11 -2 -6
BITMAP
0F80
0F00
0F00
1E00
1E00
3C00
3800
3800
7000
7000
E000
ENDCHAR
STARTCHAR 002D
ENCODING 45
SWIDTH 292 0
DWIDTH 13 0
BBX 11 4 1 10
BITMAP
7FE0
7FE0
FFE0
FFE0
ENDCHAR
STARTCHAR 002E
ENCODING 46
SWIDTH 247 0
DWIDTH 11 0
BBX 5 6 1 -1
BITMAP
78
F8
F8
F8
F0
60
ENDCHAR
STARTCHAR 002F
ENCODING 47
SWIDTH 337 0
DWIDTH 15 0
BBX 21 32 -2 0
BITMAP
000038
000078
0000F0
0000F0
0001E0
0001C0
0003C0
000380
000780
000700
000F00
001E00
001E00
003C00
003800
007800
007000
00F000
01E000
01E000
03C000
03C000
078000
070000
0F0000
0E0000
1E0000
3C0000
3C0000
780000
780000
F00000
ENDCHAR
STARTCHAR 0030
ENCODING 48
SWIDTH 540 0
DWIDTH 24 0
BBX 21 32 3 0
BITMAP
007F00
01FFC0
03FFE0
07C1E0
0F80F0
0F00F0
1E0070
1E0078
3C0078
3C0078
780078
780078
780078
F00078
F00070
F00070
F000F0
F000F0
E000F0
E000F0
E001E0
E001E0
E001E0
E003C0
E003C0
F00780
F00780
F00F00
781E00
7FFE00
3FF800
0FF000
ENDCHAR
STARTCHAR 0031
ENCODING 49
SWIDTH 540 0
DWIDTH 24 0
BBX 13 32 7 0
BITMAP
0078
01F0
03F0
0FF0
1FF0
7EE0
FCE0
F1E0
41E0
01E0
01C0
03C0
03C0
03C0
03C0
0380
0780
0780
0780
0700
0700
0F00
0F00
0F00
0E00
1E00
1E00
1E00
1E00
1C00
3C00
3C00
ENDCHAR
STARTCHAR 0032
ENCODING 50
SWIDTH 540 0
DWIDTH 24 0
BBX 23 32 0 0
BITMAP
001FE0
007FF8
01FFFC
03F07E
01C01E
00001E
00001E
00000E
00000E
00001E
00001E
00001C
00003C
000078
0000F8
0000F0
0003E0
0007C0
000F80
001F00
003E00
007C00
00F000
01E000
03C000
078000
1F0000
3E0000
7C0000
7FFFF0
FFFFF0
FFFFF0
ENDCHAR
STARTCHAR 0033
ENCODING 51
SWIDTH 540 0
DWIDTH 24 0
BBX 22 32 1 0
BITMAP
003FC0
01FFF0
03FFF8
07C07C
03003C
00003C
00001C
00001C
00001C
00003C
00003C
000078
0000F0
0003E0
01FFC0
01FE00
01FF00
000FC0
0003E0
0001E0
0000F0
0000F0
0000F0
0000F0
0000F0
0000F0
0001E0
8003E0
E007C0
FFFF80
FFFF00
3FFC00
ENDCHAR
STARTCHAR 0034
ENCODING 52
SWIDTH 540 0
DWIDTH 24 0
BBX 24 32 0 0
BITMAP
00001E
00003E
00007E
0000FE
0001FC
0001DC
00039C
0007BC
000F3C
001E38
003C38
007878
007078
00F070
01E070
03C070
0780F0
0F00F0
1E00E0
1C00E0
3801E0
7FFFFF
7FFFFF
7FFFFE
FFFFFE
0003C0
0003C0
000380
000380
000380
000780
000780
ENDCHAR
STARTCHAR 0035
ENCODING 53
SWIDTH 540 0
DWIDTH 24 0
BBX 22 32 2 0
BITMAP
01FFFC
01FFFC
01FFF8
03FFF8
038000
038000
078000
078000
070000
070000
0F0000
0E0000
0E0000
1FFE00
1FFF80
1FFFC0
0007C0
0001E0
0001E0
0000E0
0000F0
0000F0
0000E0
0000E0
0001E0
0001E0
0003C0
0007C0
C00F80
FFFF00
FFFE00
7FF800
ENDCHAR
STARTCHAR 0036
ENCODING 54
SWIDTH 540 0
DWIDTH 24 0
BBX 21 32 3 0
BITMAP
000FF8
003FF8
00FFF8
01F800
03E000
07C000
0F8000
0F0000
1E0000
1C0000
3C0000
3C0000
387E00
79FF00
7BFF80
7707C0
FE03E0
F801E0
F801E0
F000E0
F000E0
E000E0
E001E0
E001E0
F001E0
F003C0
F003C0
780780
7C0F00
3FFF00
1FFC00
0FF800
ENDCHAR
STARTCHAR 0037
ENCODING 55
SWIDTH 540 0
DWIDTH 24 0
BBX 21 32 4 0
BITMAP
7FFFF8
7FFFF8
7FFFF8
000070
0000F0
0001E0
0001C0
0003C0
000380
000780
000F00
000F00
001E00
001C00
003C00
007800
007800
00F000
00F000
01E000
01C000
03C000
078000
078000
0F0000
0E0000
1E0000
3C0000
3C0000
780000
780000
F00000
ENDCHAR
STARTCHAR 0038
ENCODING 56
SWIDTH 540 0
DWIDTH 24 0
BBX 22 32 2 0
BITMAP
003FC0
00FFF0
01FFF8
03E0F8
07C03C
07803C
07003C
07003C
07003C
07003C
078078
0780F0
03C1F0
01E7C0
00FF80
01FE00
07FF00
0F8F80
1E03C0
3C01E0
7801E0
7000E0
F000F0
F000F0
F000F0
F000E0
F001E0
F803E0
7C07C0
3FFF80
1FFF00
0FFC00
ENDCHAR
STARTCHAR 0039
ENCODING 57
SWIDTH 540 0
DWIDTH 24 0
BBX 21 32 2 0
BITMAP
007F80
01FFC0
03FFE0
07C1F0
0F00F0
1E0078
1E0078
1C0038
3C0038
3C0038
3C0038
3C0078
3C0078
3C0078
3C00F8
3C01F8
1F03F0
1FFF70
0FFEF0
03F8F0
0000E0
0001E0
0001E0
0003C0
0003C0
000780
000F80
001F00
807E00
FFFC00
FFF800
FFE000
ENDCHAR
STARTCHAR 003A
ENCODING 58
SWIDTH 247 0
DWIDTH 11 0
BBX 9 25 1 -1
BITMAP
0700
0F80
0F80
0F00
0F00
0000
0000
0000
0000
0000
0000
0000
0000
0000
0000
0000
0000
0000
0000
7800
F800
F800
F800
F000
6000
ENDCHAR
STARTCHAR 003B
ENCODING 59
SWIDTH 247 0
DWIDTH 11 0
BBX 12 30 -2 -6
BITMAP
00E0
01F0
01F0
01E0
01E0
0000
0000
0000
0000
0000
0000
0000
0000
0000
0000
0000
0000
0000
0000
0F00
0F00
1E00
1E00
3C00
3C00
3800
7800
7000
E000
E000
ENDCHAR
STARTCHAR 003C
ENCODING 60
SWIDTH 562 0
DWIDTH 25 0
BBX 21 22 3 5
BITMAP
000008
000038
0000F8
0003F8
000FE0
003F00
00FC00
03F000
0FC000
3F0000
FC0000
F00000
FE0000
3F8000
07F000
01FC00
007F00
001FE0
0003F8
0000F8
000038
000008
ENDCHAR
STARTCHAR 003D
ENCODING 61
SWIDTH 562 0
DWIDTH 25 0
BBX 21 12 3 10
BITMAP
FFFFF8
FFFFF8
FFFFF8
000000
000000
000000
000000
000000
000000
FFFFF8
FFFFF8
FFFFF8
ENDCHAR
STARTCHAR 003E
ENCODING 62
SWIDTH 562 0
DWIDTH 25 0
BBX 21 22 3 5
BITMAP
800000
E00000
F80000
FE0000
1F8000
07E000
01F800
007E00
001F80
0007E0
0001F8
000078
0003F8
000FE0
003F00
01FC00
07F000
1FC000
FE0000
F80000
E00000
800000
ENDCHAR
STARTCHAR 003F
ENCODING 63
SWIDTH 405 0
DWIDTH 18 0
BBX 17 33 3 -1
BITMAP
07F800
3FFE00
3FFF00
3C1F00
000780
000780
000780
000780
000780
000780
000F00
000F00
001E00
007C00
00F800
01F000
03E000
078000
0F0000
0E0000
1C0000
1C0000
1C0000
000000
000000
000000
000000
380000
7C0000
7C0000
F80000
780000
300000
ENDCHAR
STARTCHAR 0040
ENCODING 64
SWIDTH 832 0
DWIDTH 37 0
BBX 34 36 2 -4
BITMAP
00001C0000
0003FFE000
000FFFF800
003F80FC00
00F8001E00
01F0000F00
03C0000780
0780000380
0F000003C0
0E007F01C0
1C03FFC1C0
1C07FFC1C0
380F0381C0
381E0381C0
783C0381C0
70380781C0
70780701C0
70700701C0
F0700F01C0
F0700E03C0
E0700E0380
E0701E0380
F0701E0700
F070360F00
707DE73E00
703FE7FC00
701F83F000
7800000000
3800000000
3C00000000
1E00000000
0F00008000
07E0078000
03FFFF8000
00FFFF0000
003FF00000
ENDCHAR
STARTCHAR 0041
ENCODING 65
SWIDTH 540 0
DWIDTH 24 0
BBX 25 32 -2 0
BITMAP
00007800
0000F800
0000F800
0001F800
0001F800
0003B800
0007BC00
00073C00
000F3C00
000F3C00
001E1C00
001C1C00
003C1C00
00381C00
00781E00
00701E00
00F01E00
01E01E00
01E01E00
03FFFE00
03FFFE00
07FFFE00
07800F00
0F000F00
0F000F00
1E000F00
1C000F00
3C000700
78000700
78000700
F0000780
F0000780
ENDCHAR
STARTCHAR 0042
ENCODING 66
SWIDTH 585 0
DWIDTH 26 0
BBX 24 32 2 0
BITMAP
01FFC0
03FFF8
03FFFC
03C1FE
03801F
07800F
07800F
07800F
07800F
07000F
0F000F
0F001E
0F003C
0E00F8
0FFFF0
1FFF80
1FFFE0
1E01F0
1C0078
3C003C
3C003C
3C003C
3C003C
38003C
78003C
78007C
780078
7001F8
7007F0
FFFFE0
FFFF80
FFFC00
ENDCHAR
STARTCHAR 0043
ENCODING 67
SWIDTH 585 0
DWIDTH 26 0
BBX 25 32 3 0
BITMAP
0007FC00
003FFF80
007FFF80
01FC0700
03F00100
07C00000
0F800000
0F000000
1E000000
1E000000
3C000000
3C000000
78000000
78000000
78000000
78000000
70000000
F0000000
F0000000
F0000000
F0000000
F0000000
F0000000
78000000
78000000
78000000
7C000000
3E000000
1F806000
0FFFE000
07FFE000
03FFC000
ENDCHAR
STARTCHAR 0044
ENCODING 68
SWIDTH 652 0
DWIDTH 29 0
BBX 26 32 2 0
BITMAP
01FF8000
03FFF000
03FFFC00
03C1FE00
03803F00
07800F80
07800780
07800780
078003C0
070003C0
0F0003C0
0F0003C0
0F0003C0
0E0003C0
0E0003C0
1E0003C0
1E0003C0
1E0003C0
1C0003C0
3C000780
3C000780
3C000F80
3C000F00
38001F00
78003E00
78007C00
7800F800
7003F000
701FE000
FFFFC000
FFFF0000
FFF00000
ENDCHAR
STARTCHAR 0045
ENCODING 69
SWIDTH 495 0
DWIDTH 22 0
BBX 23 32 2 0
BITMAP
01FFFE
03FFFC
03FFFC
03FFFC
038000
078000
078000
078000
078000
070000
0F0000
0F0000
0F0000
0E0000
0FFFE0
1FFFE0
1FFFC0
1E0000
1C0000
3C0000
3C0000
3C0000
3C0000
380000
780000
780000
780000
700000
700000
FFFF00
FFFF00
FFFF00
ENDCHAR
STARTCHAR 0046
ENCODING 70
SWIDTH 472 0
DWIDTH 21 0
BBX 23 32 2 0
BITMAP
01FFFE
03FFFC
03FFFC
03FFFC
038000
078000
078000
078000
078000
070000
0F0000
0F0000
0F0000
0E0000
0E0000
1FFFE0
1FFFC0
1FFFC0
1C0000
3C0000
3C0000
3C0000
3C0000
380000
780000
780000
780000
700000
700000
F00000
F00000
F00000
ENDCHAR
STARTCHAR 0047
ENCODING 71
SWIDTH 675 0
DWIDTH 30 0
BBX 26 32 3 0
BITMAP
0007FE00
003FFFC0
007FFFC0
01FC07C0
03F00080
07C00000
0F800000
0F000000
1E000000
1E000000
3C000000
3C000000
78000000
78000000
78000000
7801FF80
F003FF80
F003FF00
F003FF00
F0000F00
F0000F00
F0000F00
F0000E00
F8001E00
78001E00
78001E00
7C001C00
3E001C00
1F803C00
0FFFFC00
07FFFC00
01FFE000
ENDCHAR
STARTCHAR 0048
ENCODING 72
SWIDTH 675 0
DWIDTH 30 0
BBX 28 32 2 0
BITMAP
01C00070
03C000F0
03C000F0
03C000F0
038000E0
078000E0
078001E0
078001E0
078001E0
070001C0
0F0001C0
0F0003C0
0F0003C0
0E0003C0
0FFFFF80
1FFFFF80
1FFFFF80
1E000780
1C000780
1C000700
3C000F00
3C000F00
3C000F00
38000E00
78000E00
78001E00
78001E00
78001E00
70001C00
F0001C00
F0003C00
F0003C00
ENDCHAR
STARTCHAR 0049
ENCODING 73
SWIDTH 270 0
DWIDTH 12 0
BBX 10 32 2 0
BITMAP
01C0
03C0
03C0
03C0
0380
0780
0780
0780
0700
0700
0F00
0F00
0F00
0E00
0E00
1E00
1E00
1E00
1C00
1C00
3C00
3C00
3C00
3800
7800
7800
7800
7000
7000
F000
F000
F000
ENDCHAR
STARTCHAR 004A
ENCODING 74
SWIDTH 247 0
DWIDTH 11 0
BBX 19 40 -7 -8
BITMAP
0000E0
0001E0
0001E0
0001E0
0001C0
0001C0
0003C0
0003C0
0003C0
000380
000780
000780
000780
000780
000700
000F00
000F00
000F00
000E00
000E00
001E00
001E00
001E00
001C00
003C00
003C00
003C00
003C00
003800
007800
007800
007800
007000
00F000
00F000
01E000
03E000
FFC000
FF8000
FF0000
ENDCHAR
STARTCHAR 004B
ENCODING 75
SWIDTH 540 0
DWIDTH 24 0
BBX 27 32 2 0
BITMAP
01C003E0
03C007C0
03C00F80
03C01F00
03803E00
07807C00
0780F800
0781F000
0703E000
0707C000
0F0F8000
0F1F0000
0F3E0000
0E7C0000
0EF80000
1FF80000
1FFC0000
1F9C0000
1E1E0000
3C1E0000
3C0F0000
3C0F0000
3C070000
38078000
78078000
7803C000
7803C000
7001E000
7001E000
F001E000
F000F000
F000F000
ENDCHAR
STARTCHAR 004C
ENCODING 76
SWIDTH 472 0
DWIDTH 21 0
BBX 16 32 2 0
BITMAP
01C0
03C0
03C0
03C0
0380
0780
0780
0780
0700
0700
0F00
0F00
0F00
0E00
0E00
1E00
1E00
1E00
1C00
3C00
3C00
3C00
3C00
3800
7800
7800
7800
7000
7000
FFFF
FFFF
FFFF
ENDCHAR
STARTCHAR 004D
ENCODING 77
SWIDTH 832 0
DWIDTH 37 0
BBX 35 32 2 0
BITMAP
03F00003E0
03F00007E0
03F0000FE0
03F0000FE0
03F0001FC0
07F0001DC0
0778003DC0
0778003BC0
0738007BC0
0738007380
0F3800E380
0F3801E780
0E3801C780
0E3803C780
0E3C038700
1E3C078F00
1E1C070F00
1C1C0F0F00
1C1C0E0F00
3C1C1C0E00
3C1C1C1E00
3C1C381E00
381E781E00
380E701C00
780EF01C00
780EE03C00
700FE03C00
700FC03C00
700F803800
F00F803800
F00F007800
E007007800
ENDCHAR
STARTCHAR 004E
ENCODING 78
SWIDTH 697 0
DWIDTH 31 0
BBX 29 32 2 0
BITMAP
03C00038
03E00038
03E00078
03F00078
03F00078
07F00070
07780070
073800F0
073800F0
073C00E0
0F1C00E0
0F1E00E0
0E1E01E0
0E0E01E0
0E0F01C0
1E0701C0
1E0783C0
1C0783C0
1C0383C0
3C03C380
3C03C380
3C01C780
3801E780
3800E780
7800F700
7800F700
70007700
70007F00
70003E00
F0003E00
F0003E00
E0001E00
ENDCHAR
STARTCHAR 004F
ENCODING 79
SWIDTH 720 0
DWIDTH 32 0
BBX 28 32 3 0
BITMAP
000FF800
007FFE00
00FFFF00
01F81F80
03E007C0
078003C0
0F8003E0
1F0001E0
1E0001E0
3C0001E0
3C0000F0
3C0000F0
780000F0
780000F0
780000F0
780001E0
F00001E0
F00001E0
F00001E0
F00001E0
F00003C0
F00003C0
F00007C0
78000780
78000F80
78000F00
3C001F00
3E007E00
1F80FC00
0FFFF800
07FFE000
01FF8000
ENDCHAR
STARTCHAR 0050
ENCODING 80
SWIDTH 562 0
DWIDTH 25 0
BBX 23 32 2 0
BITMAP
01FF80
03FFF0
03FFF8
03C3FC
03803C
07801E
07801E
07801E
07801E
07001E
0F001E
0F001E
0F001E
0E003C
0E007C
1E01F8
1FFFF0
1FFFC0
1FFF00
3C0000
3C0000
3C0000
3C0000
380000
780000
780000
780000
700000
700000
F00000
F00000
F00000
ENDCHAR
STARTCHAR 0051
ENCODING 81
SWIDTH 720 0
DWIDTH 32 0
BBX 28 40 3 -8
BITMAP
000FF800
007FFE00
00FFFF00
01F81F80
03E007C0
078003C0
0F8003E0
1F0001E0
1E0001E0
3C0001E0
3C0000F0
3C0000F0
780000F0
780000F0
780000F0
780001E0
F00001E0
F00001E0
F00001E0
F00001E0
F00003C0
F00003C0
F00003C0
78000780
78000F80
78000F00
3C001E00
3E007E00
1F80FC00
0FFFF800
07FFE000
01FF8000
00078000
0007C000
0003C000
0001E000
0001F000
0000F800
00007800
00007C00
ENDCHAR
STARTCHAR 0052
ENCODING 82
SWIDTH 562 0
DWIDTH 25 0
BBX 23 32 2 0
BITMAP
01FF00
03FFF0
03FFF8
03C7FC
03803E
07801E
07801E
07801E
07801E
07001E
0F001E
0F001E
0F003C
0E007C
0E00F8
1E07F0
1FFFE0
1FFF80
1FFE00
3C0F00
3C0F00
3C0780
3C0780
380780
7803C0
7803C0
7801C0
7001E0
7001E0
F000F0
F000F0
F000F0
ENDCHAR
STARTCHAR 0053
ENCODING 83
SWIDTH 495 0
DWIDTH 22 0
BBX 22 32 1 0
BITMAP
003FE0
00FFFC
03FFFC
07E078
07C008
0F8000
0F0000
0F0000
0F0000
0F0000
0F0000
0F0000
0F8000
07E000
03F000
01FC00
007E00
003F80
000F80
0007C0
0003C0
0001E0
0001E0
0001E0
0001E0
0001C0
0003C0
0007C0
E01F80
FFFF00
FFFE00
7FF800
ENDCHAR
STARTCHAR 0054
ENCODING 84
SWIDTH 495 0
DWIDTH 22 0
BBX 22 32 4 0
BITMAP
7FFFFC
FFFFFC
FFFFFC
FFFFF8
007000
00F000
00F000
00F000
00F000
00E000
01E000
01E000
01E000
01C000
01C000
03C000
03C000
03C000
038000
078000
078000
078000
078000
070000
0F0000
0F0000
0F0000
0F0000
0E0000
1E0000
1E0000
1E0000
ENDCHAR
STARTCHAR 0055
ENCODING 85
SWIDTH 675 0
DWIDTH 30 0
BBX 27 32 4 0
BITMAP
0F0001E0
0F0001C0
0E0003C0
1E0003C0
1E0003C0
1E0003C0
1E000380
1C000780
3C000780
3C000780
3C000700
38000700
38000F00
78000F00
78000F00
78000E00
70001E00
F0001E00
F0001E00
F0001E00
F0001C00
E0003C00
E0003C00
E0003C00
E0007800
E0007800
F000F000
F801F000
7C07E000
7FFFC000
3FFF8000
0FFE0000
ENDCHAR
STARTCHAR 0056
ENCODING 86
SWIDTH 540 0
DWIDTH 24 0
BBX 24 32 4 0
BITMAP
F0000F
F0000F
F0001E
F0001E
70003C
70003C
700078
780078
7800F0
7800F0
7801E0
7801C0
7803C0
380380
380780
380F00
380F00
3C1E00
3C1E00
3C3C00
3C3C00
3C7800
1C7800
1CF000
1CF000
1DE000
1DC000
1FC000
1F8000
1F8000
1F0000
0F0000
ENDCHAR
STARTCHAR 0057
ENCODING 87
SWIDTH 832 0
DWIDTH 37 0
BBX 37 32 5 0
BITMAP
E000F00078
E000F000F0
F001F000F0
F001F001E0
F003F001E0
F003F003C0
F007F003C0
F007700380
F007780780
F00E780700
F00E780F00
F01C380F00
F01C381E00
F03C381E00
F038381C00
7078383C00
7070383800
70F0387800
70E0387000
71E038F000
71C038E000
73C038E000
738039E000
738039C000
77003BC000
77003B8000
7F003B8000
7E003F0000
7E003F0000
7C003E0000
7C003E0000
78003C0000
ENDCHAR
STARTCHAR 0058
ENCODING 88
SWIDTH 517 0
DWIDTH 23 0
BBX 29 32 -2 0
BITMAP
01E00078
01E000F0
00E001E0
00F003C0
00700780
00780780
00780F00
00381E00
003C3C00
003C3C00
001C7800
001EF000
000FE000
000FC000
000FC000
000F8000
000F8000
001FC000
003FC000
0079C000
0071E000
00F1E000
01E0E000
03C0F000
0780F000
07807000
0F007800
1E007800
3C003C00
3C003C00
78003C00
F0001E00
ENDCHAR
STARTCHAR 0059
ENCODING 89
SWIDTH 495 0
DWIDTH 22 0
BBX 22 32 4 0
BITMAP
F0003C
F0003C
700078
7800F0
7800F0
7801E0
3803C0
3C03C0
3C0780
1C0F00
1C0F00
1E1E00
1E3C00
0E3C00
0E7800
0EF000
0FE000
07E000
07C000
078000
078000
078000
070000
070000
0F0000
0F0000
0F0000
0E0000
0E0000
1E0000
1E0000
1E0000
ENDCHAR
STARTCHAR 005A
ENCODING 90
SWIDTH 517 0
DWIDTH 23 0
BBX 25 32 0 0
BITMAP
01FFFF80
03FFFF80
03FFFF80
03FFFF80
00000F00
00001E00
00003C00
00007C00
0000F800
0000F000
0001E000
0003C000
0007C000
000F8000
000F0000
001E0000
003C0000
007C0000
00780000
00F00000
01E00000
03C00000
07C00000
07800000
0F000000
1E000000
3C000000
7C000000
78000000
FFFFF000
FFFFF000
FFFFE000
ENDCHAR
STARTCHAR 005B
ENCODING 91
SWIDTH 270 0
DWIDTH 12 0
BBX 16 39 0 -7
BITMAP
00FF
00FF
01FF
01E0
01C0
01C0
01C0
03C0
03C0
0380
0380
0780
0780
0700
0700
0700
0F00
0F00
0E00
0E00
0E00
1E00
1E00
1C00
1C00
3C00
3C00
3C00
3800
3800
7800
7800
7000
7000
7000
F000
FF80
FF80
FF00
ENDCHAR
STARTCHAR 005C
ENCODING 92
SWIDTH 337 0
DWIDTH 15 0
BBX 8 32 5 0
BITMAP
E0
E0
E0
F0
F0
70
70
70
70
70
78
78
38
38
38
38
38
3C
1C
1C
1C
1C
1C
1E
1E
0E
0E
0E
0E
0E
0F
0F
ENDCHAR
STARTCHAR 005D
ENCODING 93
SWIDTH 270 0
DWIDTH 12 0
BBX 17 39 -3 -7
BITMAP
00FF80
00FF00
00FF00
000F00
000F00
000F00
000E00
000E00
001E00
001E00
001C00
001C00
001C00
003C00
003C00
003800
003800
007800
007800
007800
007000
007000
00F000
00F000
00E000
00E000
00E000
01E000
01E000
01C000
01C000
01C000
03C000
03C000
038000
038000
FF8000
FF8000
FF0000
ENDCHAR
STARTCHAR 005E
ENCODING 94
SWIDTH 562 0
DWIDTH 25 0
BBX 21 20 2 12
BITMAP
007000
007000
00F800
00F800
01DC00
01DC00
038E00
038E00
078700
070700
0F0380
0E0380
1E01C0
1C01C0
1C00E0
3800E0
380070
700070
700038
E00038
ENDCHAR
STARTCHAR 005F
ENCODING 95
SWIDTH 382 0
DWIDTH 17 0
BBX 18 3 -4 -7
BITMAP
FFFFC0
FFFFC0
FFFFC0
ENDCHAR
STARTCHAR 0060
ENCODING 96
SWIDTH 270 0
DWIDTH 12 0
BBX 7 7 7 27
BITMAP
F0
F0
70
78
38
1C
0E
ENDCHAR
STARTCHAR 0061
ENCODING 97
SWIDTH 562 0
DWIDTH 25 0
BBX 22 24 2 0
BITMAP
00FE1C
01FF1C
07FF9C
0FC1FC
0F00F8
1E00F8
3C00F8
3C0078
780070
7800F0
7800F0
7000F0
F000F0
F000E0
F001E0
F001E0
F003E0
F003E0
F007C0
F00FC0
781DC0
7FF9C0
3FF1C0
1FC380
ENDCHAR
STARTCHAR 0062
ENCODING 98
SWIDTH 562 0
DWIDTH 25 0
BBX 22 34 1 0
BITMAP
01E000
01E000
01E000
01C000
01C000
03C000
03C000
038000
038000
078000
0787E0
079FF0
073FF8
07707C
0FE03C
0FC03C
0F801C
0F001C
0F001C
1E001C
1E001C
1E003C
1C003C
3C003C
3C003C
3C0078
3C0078
3C00F0
7C00F0
7E01E0
7603E0
77FFC0
73FF80
E1FE00
ENDCHAR
STARTCHAR 0063
ENCODING 99
SWIDTH 450 0
DWIDTH 20 0
BBX 18 24 2 0
BITMAP
007F80
01FFC0
07FFC0
0FC0C0
0F0000
1E0000
3C0000
3C0000
780000
780000
780000
700000
F00000
F00000
F00000
F00000
F00000
F00000
F00000
780000
7C0200
3FFE00
1FFE00
0FFC00
ENDCHAR
STARTCHAR 0064
ENCODING 100
SWIDTH 562 0
DWIDTH 25 0
BBX 24 34 2 0
BITMAP
000007
000007
00000F
00000F
00000F
00000E
00000E
00001E
00001E
00001C
00FE1C
03FF1C
07FFBC
0FC1FC
0F00F8
1E00F8
3C0078
3C0078
780078
780070
780070
7000F0
F000F0
F000F0
F001E0
F001E0
F003E0
F003E0
F007C0
F00FC0
781DC0
7FF9C0
3FF3C0
1FC380
ENDCHAR
STARTCHAR 0065
ENCODING 101
SWIDTH 495 0
DWIDTH 22 0
BBX 19 24 2 0
BITMAP
00FF00
01FF80
07FFC0
0F83E0
0F01E0
1E01E0
3C01E0
3C01C0
7803C0
780F80
7BFF00
7FFE00
FFF800
FD0000
F00000
F00000
F00000
F00000
700000
780000
7C0300
3FFF00
1FFF00
0FFC00
ENDCHAR
STARTCHAR 0066
ENCODING 102
SWIDTH 292 0
DWIDTH 13 0
BBX 24 45 -5 -11
BITMAP
00007F
0000FF
0001FF
0003C1
000780
000780
000700
000F00
000F00
000F00
001FF8
01FFF0
01FFF0
001E00
001E00
001C00
001C00
003C00
003C00
003C00
003800
003800
007800
007800
007800
007000
00F000
00F000
00F000
00E000
00E000
01E000
01E000
01E000
01C000
01C000
03C000
03C000
03C000
078000
078000
9F0000
FF0000
FE0000
700000
ENDCHAR
STARTCHAR 0067
ENCODING 103
SWIDTH 517 0
DWIDTH 23 0
BBX 26 35 -2 -11
BITMAP
000FFFC0
003FFFC0
00FCFFC0
00F03C00
01E01C00
01C01C00
03C01C00
03801C00
03801C00
03803C00
03803800
03C07800
01E0F000
00FFE000
007FC000
01E40000
03800000
07000000
07000000
07800000
07FE0000
03FFC000
07FFE000
1E03F000
38007800
70007800
F0003800
E0007800
E0007800
E0007000
F001F000
7C07E000
3FFFC000
1FFF0000
01E00000
ENDCHAR
STARTCHAR 0068
ENCODING 104
SWIDTH 562 0
DWIDTH 25 0
BBX 22 34 1 0
BITMAP
01E000
01E000
01E000
01C000
01C000
03C000
03C000
038000
038000
078000
0787E0
079FF8
073FF8
07787C
0FE03C
0FC03C
0F803C
0F003C
0F003C
1E003C
1E0038
1E0038
1C0078
3C0078
3C0078
3C0070
3800F0
3800F0
7800F0
7800E0
7800E0
7001E0
7001E0
F001E0
ENDCHAR
STARTCHAR 0069
ENCODING 105
SWIDTH 247 0
DWIDTH 11 0
BBX 11 33 1 0
BITMAP
00C0
01E0
03E0
03E0
01C0
0000
0000
0000
0000
0780
0780
0700
0700
0F00
0F00
0F00
0E00
0E00
1E00
1E00
1E00
1C00
3C00
3C00
3C00
3800
3800
7800
7800
7800
7000
7000
F000
ENDCHAR
STARTCHAR 006A
ENCODING 106
SWIDTH 247 0
DWIDTH 11 0
BBX 18 44 -6 -11
BITMAP
000180
0003C0
0007C0
000780
000380
000000
000000
000000
000000
000F00
000F00
000E00
000E00
001E00
001E00
001E00
001C00
001C00
003C00
003C00
003C00
003800
003800
007800
007800
007000
007000
00F000
00F000
00F000
00E000
00E000
01E000
01E000
01E000
01C000
01C000
03C000
03C000
078000
DF8000
FF0000
FE0000
780000
ENDCHAR
STARTCHAR 006B
ENCODING 107
SWIDTH 472 0
DWIDTH 21 0
BBX 22 34 1 0
BITMAP
01E000
01E000
01E000
01C000
03C000
03C000
03C000
038000
038000
078000
07803C
078078
0700F0
0701E0
0F03C0
0F0780
0F0F00
0E1E00
1E3C00
1E7800
1CF000
1DF000
1FF800
3F7800
3E3C00
3C3C00
381E00
381E00
780F00
780F00
780780
700780
7003C0
F003C0
ENDCHAR
STARTCHAR 006C
ENCODING 108
SWIDTH 247 0
DWIDTH 11 0
BBX 11 34 1 0
BITMAP
01E0
01E0
01E0
01C0
03C0
03C0
03C0
0380
0380
0780
0780
0780
0700
0700
0F00
0F00
0F00
0E00
0E00
1E00
1E00
1E00
1C00
3C00
3C00
3C00
3800
3800
7800
7800
7800
7000
7000
F000
ENDCHAR
STARTCHAR 006D
ENCODING 109
SWIDTH 855 0
DWIDTH 38 0
BBX 35 24 1 0
BITMAP
0707E03F80
071FF07FC0
073FF1FFE0
07707BC1E0
0FE07B01E0
0FC03F00E0
0F803E00E0
0F003C01E0
0F007C01E0
1E007801E0
1E007801E0
1E007001C0
1C007003C0
3C00F003C0
3C00F003C0
3C00F00380
3800E00380
3801E00780
7801E00780
7801E00780
7801C00700
7001C00700
7003C00F00
F003C00F00
ENDCHAR
STARTCHAR 006E
ENCODING 110
SWIDTH 562 0
DWIDTH 25 0
BBX 22 24 1 0
BITMAP
070FF0
071FF8
073FFC
0F787C
0FE03C
0FC03C
0F803C
0F003C
1F003C
1E003C
1E003C
1E0078
1C0078
3C0078
3C0078
3C0070
3C00F0
7800F0
7800F0
7800F0
7801E0
7801E0
F001E0
F001E0
ENDCHAR
STARTCHAR 006F
ENCODING 111
SWIDTH 562 0
DWIDTH 25 0
BBX 21 24 2 0
BITMAP
007F00
01FFC0
07FFE0
0F81E0
1F00F0
1E00F0
3C0078
3C0078
780078
780078
700078
700078
F00078
F00070
F000F0
F000F0
F000E0
F001E0
7003E0
7803C0
7C0F80
3FFF00
1FFE00
07F800
ENDCHAR
STARTCHAR 0070
ENCODING 112
SWIDTH 562 0
DWIDTH 25 0
BBX 24 35 -1 -11
BITMAP
01C1F8
01C7FC
01CFFE
01DC1F
03F80F
03F00F
03E007
03C007
03C007
078007
078007
07800F
07000F
0F000F
0F000F
0F001E
0F001E
0F003C
1F003C
1F8078
1D80F8
1DFFF0
1CFFE0
3C7F80
3C0000
3C0000
380000
380000
780000
780000
780000
700000
F00000
F00000
F00000
ENDCHAR
STARTCHAR 0071
ENCODING 113
SWIDTH 562 0
DWIDTH 25 0
BBX 22 35 2 -11
BITMAP
00FE0C
03FF1C
07FF9C
0FC1FC
0F00F8
1E00F8
3C0078
3C0078
780078
780070
7800F0
7000F0
F000F0
F000F0
F001E0
F001E0
F003E0
F003E0
F007C0
F00FC0
781DC0
7FFBC0
3FF3C0
1FC380
000380
000780
000780
000780
000700
000700
000F00
000F00
000E00
000E00
001E00
ENDCHAR
STARTCHAR 0072
ENCODING 114
SWIDTH 382 0
DWIDTH 17 0
BBX 18 24 1 0
BITMAP
070FC0
071FC0
073F80
077800
0FE000
0FC000
0F8000
0F0000
0F0000
1E0000
1E0000
1E0000
1C0000
3C0000
3C0000
3C0000
380000
380000
780000
780000
780000
700000
700000
F00000
ENDCHAR
STARTCHAR 0073
ENCODING 115
SWIDTH 427 0
DWIDTH 19 0
BBX 18 24 0 0
BITMAP
01FF00
07FFC0
0FFFC0
0F0180
1E0000
1E0000
1E0000
1E0000
1F0000
0F8000
07E000
03F000
01FC00
007E00
003E00
000F00
000F00
000F00
000F00
000F00
C01E00
FFFE00
FFFC00
7FF000
ENDCHAR
STARTCHAR 0074
ENCODING 116
SWIDTH 315 0
DWIDTH 14 0
BBX 14 29 2 0
BITMAP
0180
0380
0700
0700
0F00
3FFC
FFFC
FFFC
0E00
1E00
1E00
1E00
1C00
1C00
3C00
3C00
3C00
3800
7800
7800
7800
7000
7000
7000
7000
7800
7FC0
7FC0
3FC0
ENDCHAR
STARTCHAR 0075
ENCODING 117
SWIDTH 562 0
DWIDTH 25 0
BBX 22 24 2 0
BITMAP
0F001C
0E003C
0E003C
1E003C
1E0038
1E0038
1C0078
3C0078
3C0078
3C0070
3C0070
3800F0
7800F0
7800E0
7801E0
7001E0
7003E0
F003E0
F007C0
F00FC0
781DC0
7FF9C0
3FF3C0
1FC380
ENDCHAR
STARTCHAR 0076
ENCODING 118
SWIDTH 450 0
DWIDTH 20 0
BBX 20 24 2 0
BITMAP
F00070
F000F0
F000E0
7001E0
7003C0
7003C0
700780
780780
780F00
780F00
781E00
781C00
383C00
383800
387800
387000
38F000
3CE000
3DE000
3DC000
1FC000
1F8000
1F0000
1F0000
ENDCHAR
STARTCHAR 0077
ENCODING 119
SWIDTH 697 0
DWIDTH 31 0
BBX 30 24 3 0
BITMAP
E007803C
E00F803C
E00F8038
E01F8078
E01F8070
E03B80F0
E03B80F0
E07B81E0
E07381E0
E0F383C0
E0E383C0
E0E38380
E1C3C780
E1C3C700
E381CF00
E381CE00
E701DE00
E701DC00
EE01DC00
EE01FC00
EC01F800
FC01F800
7C01F000
7801F000
ENDCHAR
STARTCHAR 0078
ENCODING 120
SWIDTH 472 0
DWIDTH 21 0
BBX 23 24 -1 0
BITMAP
07001E
07803C
03807C
03C078
03C0F0
01C1E0
01E3C0
00E780
00F700
007F00
007E00
003C00
007C00
00FC00
01FE00
01CE00
03CF00
078F00
0F0780
1E0780
3C0380
7C03C0
7801C0
F001E0
ENDCHAR
STARTCHAR 0079
ENCODING 121
SWIDTH 450 0
DWIDTH 20 0
BBX 26 35 -4 -11
BITMAP
03C001C0
03C003C0
03C00380
01C00780
01C00F00
01C00F00
01E01E00
01E01E00
01E03C00
00E03C00
00E07800
00E07000
00E0F000
00F0E000
00F1E000
00F1C000
0073C000
00738000
00778000
00770000
007F0000
007E0000
007C0000
003C0000
00380000
00780000
00700000
00F00000
01E00000
01E00000
03C00000
8F800000
FF000000
FE000000
78000000
ENDCHAR
STARTCHAR 007A
ENCODING 122
SWIDTH 427 0
DWIDTH 19 0
BBX 20 24 -1 0
BITMAP
03FFF0
03FFF0
03FFF0
0000F0
0001E0
0003C0
000780
000F00
001F00
001E00
003C00
007800
00F000
01E000
01E000
03C000
078000
0F0000
1E0000
3C0000
3C0000
7FFF80
7FFF00
FFFF00
ENDCHAR
STARTCHAR 007B
ENCODING 123
SWIDTH 337 0
DWIDTH 15 0
BBX 17 39 1 -7
BITMAP
000780
001F00
003F00
007C00
00F000
00F000
00E000
00E000
01E000
01E000
01C000
01C000
01C000
03C000
038000
038000
078000
1F0000
FE0000
F00000
FC0000
1E0000
0E0000
0E0000
0E0000
0E0000
0E0000
1E0000
1E0000
1C0000
1C0000
1C0000
3C0000
3C0000
3C0000
3C0000
1F8000
1F8000
078000
ENDCHAR
STARTCHAR 007C
ENCODING 124
SWIDTH 540 0
DWIDTH 24 0
BBX 3 45 12 -11
BITMAP
E0
E0
E0
E0
E0
E0
E0
E0
E0
E0
E0
E0
E0
E0
E0
E0
E0
E0
E0
E0
E0
E0
E0
E0
E0
E0
E0
E0
E0
E0
E0
E0
E0
E0
E0
E0
E0
E0
E0
E0
E0
E0
E0
E0
E0
ENDCHAR
STARTCHAR 007D
ENCODING 125
SWIDTH 337 0
DWIDTH 15 0
BBX 17 39 -2 -7
BITMAP
00E000
00F800
01FC00
007C00
001E00
001E00
001C00
001C00
001C00
003C00
003C00
003800
003800
003800
007800
007800
003800
003C00
001F80
000F80
003F80
007F00
00F000
00E000
01E000
01C000
01C000
01C000
03C000
03C000
038000
038000
038000
078000
070000
1F0000
FE0000
FC0000
F80000
ENDCHAR
STARTCHAR 007E
ENCODING 126
SWIDTH 562 0
DWIDTH 25 0
BBX 21 5 3 13
BITMAP
3FC008
FFF838
FFFFF8
C07FF0
800FE0
ENDCHAR
STARTCHAR 00A0
ENCODING 160
SWIDTH 247 0
DWIDTH 11 0
BBX 0 0 0 0
BITMAP
ENDCHAR
STARTCHAR 00A1
ENCODING 161
SWIDTH 247 0
DWIDTH 11 0
BBX 11 32 0 -8
BITMAP
03C0
03E0
07E0
07C0
03C0
0000
0000
0000
0000
0700
0700
0700
0600
0E00
0E00
0E00
0E00
1C00
1C00
1C00
1C00
3C00
3C00
3800
3800
7800
7800
7800
7800
F000
F000
F000
ENDCHAR
STARTCHAR 00A2
ENCODING 162
SWIDTH 540 0
DWIDTH 24 0
BBX 18 32 5 0
BITMAP
001C00
001C00
001C00
001C00
01FFC0
03FFC0
07F780
0F8000
1E0000
3C0000
3C0000
780000
780000
700000
F00000
F00000
F00000
F00000
E00000
E00000
F00000
F00000
F00000
780000
7C0E00
3FFE00
1FFE00
07F800
030000
070000
070000
070000
ENDCHAR
STARTCHAR 00A3
ENCODING 163
SWIDTH 540 0
DWIDTH 24 0
BBX 25 32 0 0
BITMAP
0001FE00
0007FF80
001FFF80
001F0380
003C0000
00380000
00780000
00780000
00700000
00700000
00F00000
00F00000
00F00000
00E00000
00E00000
1FFFE000
1FFFE000
1FFFC000
01C00000
03C00000
03C00000
03C00000
03800000
03800000
07800000
07000000
0F000000
1E000000
7C000000
FFFFF800
FFFFF800
FFFFF000
ENDCHAR
STARTCHAR 00A4
ENCODING 164
SWIDTH 540 0
DWIDTH 24 0
BBX 19 19 4 6
BITMAP
4000C0
E3F1E0
FFFFC0
7FFF80
3C0F00
380700
700380
700380
700180
700180
700180
700380
780380
3C0700
3E1F00
7FFF80
F7FBC0
E041C0
400080
ENDCHAR
STARTCHAR 00A5
ENCODING 165
SWIDTH 540 0
DWIDTH 24 0
BBX 24 32 3 0
BITMAP
3C000F
3C000F
1C001E
1C003C
1E0038
0E0078
0E00F0
0E00E0
0F01E0
0703C0
070380
070780
038F00
038E00
039C00
03BC00
01F800
3FFFC0
7FFFC0
7FFF80
01E000
01C000
01C000
FFFF00
FFFF00
FFFF00
038000
038000
038000
078000
078000
070000
ENDCHAR
STARTCHAR 00A6
ENCODING 166
SWIDTH 540 0
DWIDTH 24 0
BBX 3 45 12 -11
BITMAP
E0
E0
E0
E0
E0
E0
E0
E0
E0
E0
E0
E0
E0
E0
E0
E0
E0
00
00
00
00
00
00
00
00
00
00
00
E0
E0
E0
E0
E0
E0
E0
E0
E0
E0
E0
E0
E0
E0
E0
E0
E0
ENDCHAR
STARTCHAR 00A7
ENCODING 167
SWIDTH 472 0
DWIDTH 21 0
BBX 21 34 1 0
BITMAP
003FC0
00FFF8
01FFF0
03E030
038000
078000
078000
038000
03C000
01F000
00FC00
03FF00
079F80
0F07C0
1E03C0
1C01E0
1C01E0
1C01E0
1C01C0
1E03C0
0F8780
07EF00
03FE00
00FC00
003E00
001F00
000F00
000700
000700
000F00
C01E00
FFFE00
FFF800
3FE000
ENDCHAR
STARTCHAR 00A8
ENCODING 168
SWIDTH 540 0
DWIDTH 24 0
BBX 12 4 10 28
BITMAP
F0F0
F0F0
F0F0
6060
ENDCHAR
STARTCHAR 00A9
ENCODING 169
SWIDTH 810 0
DWIDTH 36 0
BBX 33 32 2 0
BITMAP
000FF80000
007FFF0000
01F80FC000
03C001E000
070000F000
0E00003800
1C01E01C00
3807FE0C00
381FFC0E00
703E0C0600
7038000700
6078000300
E070000300
E070000380
E0F0000380
E0F0000380
E0F0000380
E0F0000380
E070000380
E070000380
6070000300
7078000700
703C000700
301FFC0E00
380FFC0E00
1C03F81C00
0E00003800
0F00007000
07C001E000
01F007C000
00FFFF8000
001FFC0000
ENDCHAR
STARTCHAR 00AA
ENCODING 170
SWIDTH 315 0
DWIDTH 14 0
BBX 13 15 4 17
BITMAP
0F98
1FD8
38F8
7070
6070
E070
E070
C060
C060
C0E0
C0E0
C1E0
E7C0
7EC0
3CC0
ENDCHAR
STARTCHAR 00AB
ENCODING 171
SWIDTH 450 0
DWIDTH 20 0
BBX 18 18 2 3
BITMAP
008080
01C1C0
0383C0
078780
0F0700
1E0E00
3C1E00
783C00
F07800
F0F000
707000
787800
383800
383C00
1C1C00
1C1E00
0E0E00
0E0600
ENDCHAR
STARTCHAR 00AC
ENCODING 172
SWIDTH 562 0
DWIDTH 25 0
BBX 21 11 3 6
BITMAP
FFFFF8
FFFFF8
FFFFF8
000038
000038
000038
000038
000038
000038
000038
000038
ENDCHAR
STARTCHAR 00AD
ENCODING 173
SWIDTH 292 0
DWIDTH 13 0
BBX 11 4 1 10
BITMAP
7FE0
7FE0
FFE0
FFE0
ENDCHAR
STARTCHAR 00AE
ENCODING 174
SWIDTH 810 0
DWIDTH 36 0
BBX 33 32 2 0
BITMAP
000FF80000
007FFF0000
01F80FC000
03C001E000
070000F000
0E00003800
1C3F001C00
383FF80C00
383FFC0E00
703C3E0600
703C1E0700
603C0E0300
E03C0E0300
E03C0E0380
E03C1E0380
E03CFC0380
E03FF80380
E03FF00380
E03C700380
E03C780380
603C380300
703C1C0700
703C1E0700
303C0E0E00
383C0F0E00
1C3C071C00
0E00003800
0F00007000
07C001E000
01F007C000
00FFFF8000
001FFC0000
ENDCHAR
STARTCHAR 00AF
ENCODING 175
SWIDTH 382 0
DWIDTH 17 0
BBX 18 3 5 34
BITMAP
FFFFC0
FFFF80
FFFF80
ENDCHAR
STARTCHAR 00B0
ENCODING 176
SWIDTH 427 0
DWIDTH 19 0
BBX 13 13 3 19
BITMAP
1FC0
3FE0
78F0
E038
E038
C018
C018
C018
E038
E038
7070
7FF0
1FC0
ENDCHAR
STARTCHAR 00B1
ENCODING 177
SWIDTH 562 0
DWIDTH 25 0
BBX 21 27 3 0
BITMAP
007000
007000
007000
007000
007000
007000
007000
007000
007000
007000
FFFFF8
FFFFF8
FFFFF8
007000
007000
007000
007000
007000
007000
007000
007000
007000
000000
000000
FFFFF8
FFFFF8
FFFFF8
ENDCHAR
STARTCHAR 00B2
ENCODING 178
SWIDTH 337 0
DWIDTH 15 0
BBX 15 20 3 18
BITMAP
01F0
07F8
0FFC
0C1C
000E
000E
001C
001C
0038
0078
00F0
01E0
03C0
0700
0E00
1C00
7800
FFF8
FFF8
FFF0
ENDCHAR
STARTCHAR 00B3
ENCODING 179
SWIDTH 337 0
DWIDTH 15 0
BBX 15 20 3 18
BITMAP
03F0
0FF8
0FFC
081C
000E
000C
001C
003C
07F0
07C0
0FF0
0078
0038
0038
0038
0038
C078
FFF0
FFE0
1F00
ENDCHAR
STARTCHAR 00B4
ENCODING 180
SWIDTH 247 0
DWIDTH 11 0
BBX 9 7 5 27
BITMAP
0780
0F00
1E00
1C00
3800
7000
E000
ENDCHAR
STARTCHAR 00B5
ENCODING 181
SWIDTH 562 0
DWIDTH 25 0
BBX 25 35 -1 -11
BITMAP
01E00380
01E00380
01C00780
01C00780
03C00780
03C00700
03C00700
03800F00
03800F00
07800F00
07800E00
07801E00
07001E00
0F001E00
0F001E00
0F003C00
0E003C00
0E007C00
1E00FC00
1F01F800
1F03B800
1FFF3800
1FFE3800
3DFC3800
3C000000
38000000
38000000
38000000
78000000
78000000
70000000
70000000
F0000000
F0000000
F0000000
ENDCHAR
STARTCHAR 00B6
ENCODING 182
SWIDTH 652 0
DWIDTH 29 0
BBX 22 40 4 -6
BITMAP
01FFFC
0FFFFC
1FFFFC
3FFE0C
3FFE0C
7FFE0C
7FFE0C
7FFE0C
7FFE0C
FFFE0C
FFFE0C
FFFE0C
FFFE0C
FFFE0C
7FFE0C
7FFE0C
7FFE0C
7FFE0C
3FFE0C
1FFE0C
0FFE0C
03FE0C
000E0C
000E0C
000E0C
000E0C
000E0C
000E0C
000E0C
000E0C
000E0C
000E0C
000E0C
000E0C
000E0C
000E0C
000E0C
000E0C
000E0C
000E0C
ENDCHAR
STARTCHAR 00B7
ENCODING 183
SWIDTH 247 0
DWIDTH 11 0
BBX 5 5 4 13
BITMAP
78
F8
F8
F8
F0
ENDCHAR
STARTCHAR 00B8
ENCODING 184
SWIDTH 202 0
DWIDTH 9 0
BBX 9 11 -4 -11
BITMAP
0E00
0C00
1C00
1F00
0700
0380
0380
0700
FF00
FE00
F000
ENDCHAR
STARTCHAR 00B9
ENCODING 185
SWIDTH 337 0
DWIDTH 15 0
BBX 8 19 7 18
BITMAP
0F
1F
7F
F7
CE
0E
0E
0E
0E
1C
1C
1C
1C
18
38
38
38
38
70
ENDCHAR
STARTCHAR 00BA
ENCODING 186
SWIDTH 337 0
DWIDTH 15 0
BBX 12 15 4 17
BITMAP
0FC0
1FE0
3870
7030
6030
E030
E030
C030
C030
C070
C070
E0E0
71C0
7F80
1F00
ENDCHAR
STARTCHAR 00BB
ENCODING 187
SWIDTH 450 0
DWIDTH 20 0
BBX 19 18 0 3
BITMAP
040400
1C0E00
0E0E00
0F0700
070700
078780
038380
03C3C0
03C1C0
03C1E0
0783E0
0F07C0
0F0F80
1E0F00
3C1E00
783800
F07000
606000
ENDCHAR
STARTCHAR 00BC
ENCODING 188
SWIDTH 720 0
DWIDTH 32 0
BBX 27 32 4 0
BITMAP
01C001C0
03C003C0
0FC00380
3D800700
7B800F00
33801E00
03801C00
03803800
07007800
0700F000
0700E000
0701C000
0703C000
0E0381C0
0E0703C0
0E0E07C0
0E1E0FC0
1C1C0DC0
1C381D80
00703B80
00F07380
00E0E380
01C1C380
03818700
07838700
0707FFE0
0E07FFC0
1C07FFC0
3C000E00
38000E00
70000E00
E0000E00
ENDCHAR
STARTCHAR 00BD
ENCODING 189
SWIDTH 787 0
DWIDTH 35 0
BBX 30 32 4 0
BITMAP
01C001E0
03C003C0
0FC00380
3D800700
7B800F00
33800E00
03801C00
03803800
07007800
07007000
0700E000
0701C000
0703C000
0E038FF0
0E071FF8
0E0E1C38
0E1E0038
1C1C001C
1C380038
00700038
00F00038
00E00070
01C000E0
038001C0
07800380
07000F00
0E001E00
1C003800
3C007000
3800FFF0
7001FFF0
F001FFE0
ENDCHAR
STARTCHAR 00BE
ENCODING 190
SWIDTH 765 0
DWIDTH 34 0
BBX 31 32 2 0
BITMAP
07F0000E
1FF8001C
0E3C003C
081C0038
001C0070
001C00E0
001C01E0
003801C0
07F00380
0FC00780
0FF00F00
00700E00
00381C00
00383C0E
0038781E
0078703C
C0F0E07C
FFE1E0FC
FFC3C1DC
0403819C
00070318
000F0738
000E0E38
001C1C38
00383838
00783FFE
00707FFE
00E07FFE
01C00070
03C00060
038000E0
070000E0
ENDCHAR
STARTCHAR 00BF
ENCODING 191
SWIDTH 405 0
DWIDTH 18 0
BBX 17 33 -1 -9
BITMAP
000700
000F80
000F80
001F00
000F00
000000
000000
000000
000000
000E00
001C00
001C00
003C00
007800
00F800
01F000
03E000
07C000
1F0000
3E0000
3C0000
780000
700000
F00000
F00000
F00000
F00000
F00000
780600
7FFE00
3FFF00
1FF800
01C000
ENDCHAR
STARTCHAR 00C0
ENCODING 192
SWIDTH 540 0
DWIDTH 24 0
BBX 25 42 -2 0
BITMAP
0001E000
0001E000
0000F000
00007000
00007800
00003800
00001C00
00000000
00000000
00000000
00007800
0000F800
0000F800
0001F800
0001F800
0003B800
0007BC00
00073C00
000F3C00
000F3C00
001E1C00
001C1C00
003C1C00
00381C00
00781E00
00701E00
00F01E00
01E01E00
01E01E00
03FFFE00
03FFFE00
07FFFE00
07800F00
0F000F00
0F000F00
1E000F00
1C000F00
3C000700
78000700
78000700
F0000780
F0000780
ENDCHAR
STARTCHAR 00C1
ENCODING 193
SWIDTH 540 0
DWIDTH 24 0
BBX 26 42 -2 0
BITMAP
000003C0
00000780
00000F80
00000F00
00001C00
00003800
00007000
00000000
00000000
00000000
00007800
0000F800
0000F800
0001F800
0001F800
0003B800
0007BC00
00073C00
000F3C00
000F3C00
001E1C00
001C1C00
003C1C00
00381C00
00781E00
00701E00
00F01E00
01E01E00
01E01E00
03FFFE00
03FFFE00
07FFFE00
07800F00
0F000F00
0F000F00
1E000F00
1C000F00
3C000700
78000700
78000700
F0000780
F0000780
ENDCHAR
STARTCHAR 00C2
ENCODING 194
SWIDTH 540 0
DWIDTH 24 0
BBX 26 42 -2 0
BITMAP
00003C00
00007E00
0000FE00
0001EF00
0003C700
00078380
000F01C0
00000000
00000000
00000000
00007800
0000F800
0000F800
0001F800
0001F800
0003B800
0007BC00
00073C00
000F3C00
000F3C00
001E1C00
001C1C00
003C1C00
00381C00
00781E00
00701E00
00F01E00
01E01E00
01E01E00
03FFFE00
03FFFE00
07FFFE00
07800F00
0F000F00
0F000F00
1E000F00
1C000F00
3C000700
78000700
78000700
F0000780
F0000780
ENDCHAR
STARTCHAR 00C3
ENCODING 195
SWIDTH 540 0
DWIDTH 24 0
BBX 28 41 -2 0
BITMAP
00000030
0003F070
0007FC60
0007FFE0
000E1FC0
000C0780
00000000
00000000
00000000
00007800
0000F800
0000F800
0001F800
0001F800
0003B800
0007BC00
00073C00
000F3C00
000F3C00
001E1C00
001C1C00
003C1C00
00381C00
00781E00
00701E00
00F01E00
01E01E00
01E01E00
03FFFE00
03FFFE00
07FFFE00
07800F00
0F000F00
0F000F00
1E000F00
1C000F00
3C000700
78000700
78000700
F0000780
F0000780
ENDCHAR
STARTCHAR 00C4
ENCODING 196
SWIDTH 540 0
DWIDTH 24 0
BBX 26 40 -2 0
BITMAP
0003C3C0
0003C3C0
0003C3C0
00018380
00000000
00000000
00000000
00000000
00007800
0000F800
0000F800
0001F800
0001F800
0003B800
0007BC00
00073C00
000F3C00
000F3C00
001E1C00
001C1C00
003C1C00
00381C00
00781E00
00701E00
00F01E00
01E01E00
01E01E00
03FFFE00
03FFFE00
07FFFE00
07800F00
0F000F00
0F000F00
1E000F00
1C000F00
3C000700
78000700
78000700
F0000780
F0000780
ENDCHAR
STARTCHAR 00C5
ENCODING 197
SWIDTH 540 0
DWIDTH 24 0
BBX 25 44 -2 0
BITMAP
00001800
0000FE00
0001EF00
00018300
00018300
00018300
00018300
0001FF00
0000FE00
00001000
00000000
00000000
00007800
0000F800
0000F800
0001F800
0001F800
0003B800
0007BC00
00073C00
000F3C00
000F3C00
001E1C00
001C1C00
003C1C00
00381C00
00781E00
00701E00
00F01E00
01E01E00
01E01E00
03FFFE00
03FFFE00
07FFFE00
07800F00
0F000F00
0F000F00
1E000F00
1C000F00
3C000700
78000700
78000700
F0000780
F0000780
ENDCHAR
STARTCHAR 00C6
ENCODING 198
SWIDTH 810 0
DWIDTH 36 0
BBX 40 32 -2 0
BITMAP
00000FFFFF
00001FFFFF
00003FFFFF
00003FFFFF
000079E000
0000F1E000
0000F1C000
0001E3C000
0003C3C000
0003C3C000
000783C000
0007838000
000F078000
001E078000
001E07FFF0
003C07FFF0
007807FFF0
00780F0000
00F00F0000
01FFFF0000
01FFFE0000
03FFFE0000
03C01E0000
07801E0000
0F001E0000
0F001C0000
1E003C0000
3C003C0000
3C003C0000
78003FFFC0
F8003FFFC0
F0007FFFC0
ENDCHAR
STARTCHAR 00C7
ENCODING 199
SWIDTH 585 0
DWIDTH 26 0
BBX 25 43 3 -11
BITMAP
0007FC00
003FFF80
007FFF80
01FC0700
03F00100
07C00000
0F800000
0F000000
1E000000
1E000000
3C000000
3C000000
78000000
78000000
78000000
78000000
70000000
F0000000
F0000000
F0000000
F0000000
F0000000
F0000000
78000000
78000000
78000000
7C000000
3E000000
1F806000
0FFFE000
07FFE000
03FFC000
00300000
00600000
00E00000
00F80000
00380000
001C0000
001C0000
00380000
07F80000
07F00000
03800000
ENDCHAR
STARTCHAR 00C8
ENCODING 200
SWIDTH 495 0
DWIDTH 22 0
BBX 23 42 2 0
BITMAP
001E00
001E00
000E00
000F00
000700
000380
0001C0
000000
000000
000000
01FFFE
03FFFC
03FFFC
03FFFC
038000
078000
078000
078000
078000
070000
0F0000
0F0000
0F0000
0E0000
0FFFE0
1FFFE0
1FFFC0
1E0000
1C0000
3C0000
3C0000
3C0000
3C0000
380000
780000
780000
780000
700000
700000
FFFF00
FFFF00
FFFF00
ENDCHAR
STARTCHAR 00C9
ENCODING 201
SWIDTH 495 0
DWIDTH 22 0
BBX 23 42 2 0
BITMAP
00003C
000078
0000F0
0001E0
0001C0
000380
000700
000000
000000
000000
01FFFE
03FFFC
03FFFC
03FFFC
038000
078000
078000
078000
078000
070000
0F0000
0F0000
0F0000
0E0000
0FFFE0
1FFFE0
1FFFC0
1E0000
1C0000
3C0000
3C0000
3C0000
3C0000
380000
780000
780000
780000
700000
700000
FFFF00
FFFF00
FFFF00
ENDCHAR
STARTCHAR 00CA
ENCODING 202
SWIDTH 495 0
DWIDTH 22 0
BBX 23 42 2 0
BITMAP
0003C0
0007C0
000FE0
001EF0
003C70
007838
00E018
000000
000000
000000
01FFFE
03FFFC
03FFFC
03FFFC
038000
078000
078000
078000
078000
070000
0F0000
0F0000
0F0000
0E0000
0FFFE0
1FFFE0
1FFFC0
1E0000
1C0000
3C0000
3C0000
3C0000
3C0000
380000
780000
780000
780000
700000
700000
FFFF00
FFFF00
FFFF00
ENDCHAR
STARTCHAR 00CB
ENCODING 203
SWIDTH 495 0
DWIDTH 22 0
BBX 23 40 2 0
BITMAP
003838
003C3C
003838
003838
000000
000000
000000
000000
01FFFE
03FFFC
03FFFC
03FFFC
038000
078000
078000
078000
078000
070000
0F0000
0F0000
0F0000
0E0000
0FFFE0
1FFFE0
1FFFC0
1E0000
1C0000
3C0000
3C0000
3C0000
3C0000
380000
780000
780000
780000
700000
700000
FFFF00
FFFF00
FFFF00
ENDCHAR
STARTCHAR 00CC
ENCODING 204
SWIDTH 270 0
DWIDTH 12 0
BBX 11 42 2 0
BITMAP
0F00
0780
0780
0380
01C0
00E0
00E0
0000
0000
0000
01C0
03C0
03C0
03C0
0380
0780
0780
0780
0700
0700
0F00
0F00
0F00
0E00
0E00
1E00
1E00
1E00
1C00
1C00
3C00
3C00
3C00
3800
7800
7800
7800
7000
7000
F000
F000
F000
ENDCHAR
STARTCHAR 00CD
ENCODING 205
SWIDTH 270 0
DWIDTH 12 0
BBX 16 42 2 0
BITMAP
000F
001E
003C
0038
0070
00E0
01C0
0000
0000
0000
01C0
03C0
03C0
03C0
0380
0780
0780
0780
0700
0700
0F00
0F00
0F00
0E00
0E00
1E00
1E00
1E00
1C00
1C00
3C00
3C00
3C00
3800
7800
7800
7800
7000
7000
F000
F000
F000
ENDCHAR
STARTCHAR 00CE
ENCODING 206
SWIDTH 270 0
DWIDTH 12 0
BBX 16 42 2 0
BITMAP
00F0
01F8
03F8
03BC
0F1C
1E0E
3C07
0000
0000
0000
01C0
03C0
03C0
03C0
0380
0780
0780
0780
0700
0700
0F00
0F00
0F00
0E00
0E00
1E00
1E00
1E00
1C00
1C00
3C00
3C00
3C00
3800
7800
7800
7800
7000
7000
F000
F000
F000
ENDCHAR
STARTCHAR 00CF
ENCODING 207
SWIDTH 270 0
DWIDTH 12 0
BBX 16 40 2 0
BITMAP
0F0F
0F0F
0F0F
0E0E
0000
0000
0000
0000
01C0
03C0
03C0
03C0
0380
0780
0780
0780
0700
0700
0F00
0F00
0F00
0E00
0E00
1E00
1E00
1E00
1C00
1C00
3C00
3C00
3C00
3800
7800
7800
7800
7000
7000
F000
F000
F000
ENDCHAR
STARTCHAR 00D0
ENCODING 208
SWIDTH 652 0
DWIDTH 29 0
BBX 26 32 2 0
BITMAP
01FF8000
03FFF000
03FFFC00
03C1FE00
03803F00
07800F80
07800780
07800780
078003C0
070003C0
0F0003C0
0F0003C0
0F0003C0
0E0003C0
0E0003C0
FFFC03C0
FFFC03C0
FFFC03C0
1C0003C0
3C000780
3C000780
3C000F80
3C000F00
38001F00
78003E00
78007C00
7800F800
7003F000
701FE000
FFFFC000
FFFF0000
FFF00000
ENDCHAR
STARTCHAR 00D1
ENCODING 209
SWIDTH 697 0
DWIDTH 31 0
BBX 29 41 2 0
BITMAP
00008060
0003E060
0007F8E0
000FFFC0
000C1F80
001C0F00
00000000
00000000
00000000
03C00038
03E00038
03E00078
03F00078
03F00078
07F00070
07780070
073800F0
073800F0
073C00E0
0F1C00E0
0F1E00E0
0E1E01E0
0E0E01E0
0E0F01C0
1E0701C0
1E0783C0
1C0783C0
1C0383C0
3C03C380
3C03C380
3C01C780
3801E780
3800E780
7800F700
7800F700
70007700
70007F00
70003E00
F0003E00
F0003E00
E0001E00
ENDCHAR
STARTCHAR 00D2
ENCODING 210
SWIDTH 720 0
DWIDTH 32 0
BBX 28 42 3 0
BITMAP
00078000
0003C000
0003C000
0001E000
0000E000
00007000
00007000
00000000
00000000
00000000
000FF800
007FFE00
00FFFF00
01F81F80
03E007C0
078003C0
0F8003E0
1F0001E0
1E0001E0
3C0001E0
3C0000F0
3C0000F0
780000F0
780000F0
780000F0
780001E0
F00001E0
F00001E0
F00001E0
F00001E0
F00003C0
F00003C0
F00007C0
78000780
78000F80
78000F00
3C001F00
3E007E00
1F80FC00
0FFFF800
07FFE000
01FF8000
ENDCHAR
STARTCHAR 00D3
ENCODING 211
SWIDTH 720 0
DWIDTH 32 0
BBX 28 42 3 0
BITMAP
00000F80
00000F00
00001E00
00003C00
00007800
00007000
0000E000
00000000
00000000
00000000
000FF800
007FFE00
00FFFF00
01F81F80
03E007C0
078003C0
0F8003E0
1F0001E0
1E0001E0
3C0001E0
3C0000F0
3C0000F0
780000F0
780000F0
780000F0
780001E0
F00001E0
F00001E0
F00001E0
F00001E0
F00003C0
F00003C0
F00007C0
78000780
78000F80
78000F00
3C001F00
3E007E00
1F80FC00
0FFFF800
07FFE000
01FF8000
ENDCHAR
STARTCHAR 00D4
ENCODING 212
SWIDTH 720 0
DWIDTH 32 0
BBX 28 42 3 0
BITMAP
00007800
0000F800
0001FC00
0003DC00
00078E00
000E0E00
001C0700
00000000
00000000
00000000
000FF800
007FFE00
00FFFF00
01F81F80
03E007C0
078003C0
0F8003E0
1F0001E0
1E0001E0
3C0001E0
3C0000F0
3C0000F0
780000F0
780000F0
780000F0
780001E0
F00001E0
F00001E0
F00001E0
F00001E0
F00003C0
F00003C0
F00007C0
78000780
78000F80
78000F00
3C001F00
3E007E00
1F80FC00
0FFFF800
07FFE000
01FF8000
ENDCHAR
STARTCHAR 00D5
ENCODING 213
SWIDTH 720 0
DWIDTH 32 0
BBX 28 41 3 0
BITMAP
000100C0
0007C0C0
000FF1C0
001FFF80
00183F00
00381E00
00000000
00000000
00000000
000FF800
007FFE00
00FFFF00
01F81F80
03E007C0
078003C0
0F8003E0
1F0001E0
1E0001E0
3C0001E0
3C0000F0
3C0000F0
780000F0
780000F0
780000F0
780001E0
F00001E0
F00001E0
F00001E0
F00001E0
F00003C0
F00003C0
F00007C0
78000780
78000F80
78000F00
3C001F00
3E007E00
1F80FC00
0FFFF800
07FFE000
01FF8000
ENDCHAR
STARTCHAR 00D6
ENCODING 214
SWIDTH 720 0
DWIDTH 32 0
BBX 28 40 3 0
BITMAP
00070700
000F0F00
000F0F00
00060600
00000000
00000000
00000000
00000000
000FF800
007FFE00
00FFFF00
01F81F80
03E007C0
078003C0
0F8003E0
1F0001E0
1E0001E0
3C0001E0
3C0000F0
3C0000F0
780000F0
780000F0
780000F0
780001E0
F00001E0
F00001E0
F00001E0
F00001E0
F00003C0
F00003C0
F00007C0
78000780
78000F80
78000F00
3C001F00
3E007E00
1F80FC00
0FFFF800
07FFE000
01FF8000
ENDCHAR
STARTCHAR 00D7
ENCODING 215
SWIDTH 562 0
DWIDTH 25 0
BBX 19 19 4 6
BITMAP
6000C0
F001E0
7803C0
3C0780
1E0F00
0F1E00
07BC00
03F800
01F000
01F000
03F800
07BC00
0F1E00
1F0F00
3E0780
7C03C0
F801E0
F000E0
600040
ENDCHAR
STARTCHAR 00D8
ENCODING 216
SWIDTH 720 0
DWIDTH 32 0
BBX 29 35 3 -2
BITMAP
00000020
000FF878
007FFCF0
00FFFFE0
01F81FC0
03E007C0
078007C0
0F000FE0
1F001FE0
1E003DE0
3C003DE0
3C0078E0
3C00F0F0
7801E0F0
7803C0F0
780780F0
700780E0
F00F01E0
F01E01E0
F03C01E0
F07801E0
F07803C0
F0F003C0
F1E003C0
7BC00780
7F800F80
7F000F00
3F001F00
3E007E00
3F80FC00
7FFFF800
F7FFE000
F1FF8000
E0000000
40000000
ENDCHAR
STARTCHAR 00D9
ENCODING 217
SWIDTH 675 0
DWIDTH 30 0
BBX 27 42 4 0
BITMAP
001E0000
000F0000
00070000
00078000
00038000
0001C000
0000C000
00000000
00000000
00000000
0F0001E0
0F0001C0
0E0003C0
1E0003C0
1E0003C0
1E0003C0
1E000380
1C000780
3C000780
3C000780
3C000700
38000700
38000F00
78000F00
78000F00
78000E00
70001E00
F0001E00
F0001E00
F0001E00
F0001C00
E0003C00
E0003C00
E0003C00
E0007800
E0007800
F000F000
F801F000
7C07E000
7FFFC000
3FFF8000
0FFE0000
ENDCHAR
STARTCHAR 00DA
ENCODING 218
SWIDTH 675 0
DWIDTH 30 0
BBX 27 42 4 0
BITMAP
00003E00
00003C00
00007800
0000F000
0001E000
0001C000
00038000
00000000
00000000
00000000
0F0001E0
0F0001C0
0E0003C0
1E0003C0
1E0003C0
1E0003C0
1E000380
1C000780
3C000780
3C000780
3C000700
38000700
38000F00
78000F00
78000F00
78000E00
70001E00
F0001E00
F0001E00
F0001E00
F0001C00
E0003C00
E0003C00
E0003C00
E0007800
E0007800
F000F000
F801F000
7C07E000
7FFFC000
3FFF8000
0FFE0000
ENDCHAR
STARTCHAR 00DB
ENCODING 219
SWIDTH 675 0
DWIDTH 30 0
BBX 27 42 4 0
BITMAP
0001E000
0003E000
0007F000
000F7000
001E3800
00383C00
00701C00
00000000
00000000
00000000
0F0001E0
0F0001C0
0E0003C0
1E0003C0
1E0003C0
1E0003C0
1E000380
1C000780
3C000780
3C000780
3C000700
38000700
38000F00
78000F00
78000F00
78000E00
70001E00
F0001E00
F0001E00
F0001E00
F0001C00
E0003C00
E0003C00
E0003C00
E0007800
E0007800
F000F000
F801F000
7C07E000
7FFFC000
3FFF8000
0FFE0000
ENDCHAR
STARTCHAR 00DC
ENCODING 220
SWIDTH 675 0
DWIDTH 30 0
BBX 27 40 4 0
BITMAP
001C1C00
001C1C00
003C3C00
00181800
00000000
00000000
00000000
00000000
0F0001E0
0F0001C0
0E0003C0
1E0003C0
1E0003C0
1E0003C0
1E000380
1C000780
3C000780
3C000780
3C000700
38000700
38000F00
78000F00
78000F00
78000E00
70001E00
F0001E00
F0001E00
F0001E00
F0001C00
E0003C00
E0003C00
E0003C00
E0007800
E0007800
F000F000
F801F000
7C07E000
7FFFC000
3FFF8000
0FFE0000
ENDCHAR
STARTCHAR 00DD
ENCODING 221
SWIDTH 495 0
DWIDTH 22 0
BBX 22 42 4 0
BITMAP
0001E0
0003C0
000780
000F00
000E00
001C00
003800
000000
000000
000000
F0003C
F0003C
700078
7800F0
7800F0
7801E0
3803C0
3C03C0
3C0780
1C0F00
1C0F00
1E1E00
1E3C00
0E3C00
0E7800
0EF000
0FE000
07E000
07C000
078000
078000
078000
070000
070000
0F0000
0F0000
0F0000
0E0000
0E0000
1E0000
1E0000
1E0000
ENDCHAR
STARTCHAR 00DE
ENCODING 222
SWIDTH 562 0
DWIDTH 25 0
BBX 22 32 2 0
BITMAP
01C000
03C000
03C000
03C000
038000
078000
07FF80
07FFE0
07FFF0
0701F8
0F0078
0F003C
0F003C
0E003C
0E003C
1E003C
1E003C
1E003C
1C0078
3C00F8
3C01F0
3C0FE0
3FFFC0
3FFF00
7FF800
780000
780000
780000
700000
F00000
F00000
F00000
ENDCHAR
STARTCHAR 00DF
ENCODING 223
SWIDTH 562 0
DWIDTH 25 0
BBX 30 45 -6 -11
BITMAP
00001FC0
00007FF0
0000FFF8
0001F07C
0003C03C
0003801C
0007801C
0007803C
0007003C
000F0078
000F00F0
000F03E0
000E07C0
000E0F80
001E1E00
001E1E00
001E1C00
001C1C00
001C1E00
003C0F00
003C0FC0
003C07E0
003801E0
007800F0
007800F0
00780078
00700078
00700078
00F00078
00F000F0
00F301F0
00E3FFE0
00E3FFC0
01E1FF80
01E00000
01E00000
01C00000
03C00000
03C00000
03C00000
07800000
DF800000
FF000000
FE000000
70000000
ENDCHAR
STARTCHAR 00E0
ENCODING 224
SWIDTH 562 0
DWIDTH 25 0
BBX 22 34 2 0
BITMAP
007800
003C00
003C00
001E00
000E00
000700
000700
000000
000000
000000
00FE1C
01FF1C
07FF9C
0FC1FC
0F00F8
1E00F8
3C00F8
3C0078
780070
7800F0
7800F0
7000F0
F000F0
F000E0
F001E0
F001E0
F003E0
F003E0
F007C0
F00FC0
781DC0
7FF9C0
3FF1C0
1FC380
ENDCHAR
STARTCHAR 00E1
ENCODING 225
SWIDTH 562 0
DWIDTH 25 0
BBX 22 34 2 0
BITMAP
0000F8
0000F0
0001E0
0003C0
000780
000F00
000E00
000000
000000
000000
00FE1C
01FF1C
07FF9C
0FC1FC
0F00F8
1E00F8
3C00F8
3C0078
780070
7800F0
7800F0
7000F0
F000F0
F000E0
F001E0
F001E0
F003E0
F003E0
F007C0
F00FC0
781DC0
7FF9C0
3FF1C0
1FC380
ENDCHAR
STARTCHAR 00E2
ENCODING 226
SWIDTH 562 0
DWIDTH 25 0
BBX 22 34 2 0
BITMAP
000780
000F80
001FC0
003DC0
0070E0
00E0E0
01C070
000000
000000
000000
00FE1C
01FF1C
07FF9C
0FC1FC
0F00F8
1E00F8
3C00F8
3C0078
780070
7800F0
7800F0
7000F0
F000F0
F000E0
F001E0
F001E0
F003E0
F003E0
F007C0
F00FC0
781DC0
7FF9C0
3FF1C0
1FC380
ENDCHAR
STARTCHAR 00E3
ENCODING 227
SWIDTH 562 0
DWIDTH 25 0
BBX 22 33 2 0
BITMAP
00000C
00FC0C
00FF1C
01FFF8
0183F0
0381E0
000000
000000
000000
00FE1C
01FF1C
07FF9C
0FC1FC
0F00F8
1E00F8
3C00F8
3C0078
780070
7800F0
7800F0
7000F0
F000F0
F000E0
F001E0
F001E0
F003E0
F003E0
F007C0
F00FC0
781DC0
7FF9C0
3FF1C0
1FC380
ENDCHAR
STARTCHAR 00E4
ENCODING 228
SWIDTH 562 0
DWIDTH 25 0
BBX 22 32 2 0
BITMAP
007070
00F0F0
00F0F0
006060
000000
000000
000000
000000
00FE1C
01FF1C
07FF9C
0FC1FC
0F00F8
1E00F8
3C00F8
3C0078
780070
7800F0
7800F0
7000F0
F000F0
F000E0
F001E0
F001E0
F003E0
F003E0
F007C0
F00FC0
781DC0
7FF9C0
3FF1C0
1FC380
ENDCHAR
STARTCHAR 00E5
ENCODING 229
SWIDTH 562 0
DWIDTH 25 0
BBX 22 36 2 0
BITMAP
001F80
003FC0
0030C0
0070E0
007060
0070E0
0030C0
003FC0
000F00
000000
000000
000000
00FE1C
01FF1C
07FF9C
0FC1FC
0F00F8
1E00F8
3C00F8
3C0078
780070
7800F0
7800F0
7000F0
F000F0
F000E0
F001E0
F001E0
F003E0
F003E0
F007C0
F00FC0
781DC0
7FF9C0
3FF1C0
1FC380
ENDCHAR
STARTCHAR 00E6
ENCODING 230
SWIDTH 810 0
DWIDTH 36 0
BBX 33 24 2 0
BITMAP
00FC38FE00
03FE3BFF00
07FF37FF80
0FC3FF0780
0F01FE0380
1E01FC0380
3C00F80380
3C00F00780
7800F00780
7800E01F00
7801E7FE00
7001FFFC00
F001FFE000
F001F80000
F003E00000
F003C00000
F007E00000
F007E00000
F00FE00000
F01FF00000
783BF80E00
7FF37FFE00
3FE33FFE00
1FC31FF800
ENDCHAR
STARTCHAR 00E7
ENCODING 231
SWIDTH 450 0
DWIDTH 20 0
BBX 18 35 2 -11
BITMAP
007F80
01FFC0
07FFC0
0FC0C0
0F0000
1E0000
3C0000
3C0000
780000
780000
780000
700000
F00000
F00000
F00000
F00000
F00000
F00000
F00000
780000
7C0200
3FFE00
1FFE00
0FFC00
038000
030000
070000
078000
01C000
01E000
01E000
01C000
3FC000
3F8000
1C0000
ENDCHAR
STARTCHAR 00E8
ENCODING 232
SWIDTH 495 0
DWIDTH 22 0
BBX 19 34 2 0
BITMAP
00F000
007000
007800
003800
001C00
001C00
000E00
000000
000000
000000
00FF00
01FF80
07FFC0
0F83E0
0F01E0
1E01E0
3C01E0
3C01C0
7803C0
780F80
7BFF00
7FFE00
FFF800
FD0000
F00000
F00000
F00000
F00000
700000
780000
7C0300
3FFF00
1FFF00
0FFC00
ENDCHAR
STARTCHAR 00E9
ENCODING 233
SWIDTH 495 0
DWIDTH 22 0
BBX 19 34 2 0
BITMAP
0001E0
0003E0
0003C0
000780
000F00
001E00
003800
000000
000000
000000
00FF00
01FF80
07FFC0
0F83E0
0F01E0
1E01E0
3C01E0
3C01C0
7803C0
780F80
7BFF00
7FFE00
FFF800
FD0000
F00000
F00000
F00000
F00000
700000
780000
7C0300
3FFF00
1FFF00
0FFC00
ENDCHAR
STARTCHAR 00EA
ENCODING 234
SWIDTH 495 0
DWIDTH 22 0
BBX 19 34 2 0
BITMAP
001E00
001F00
003F00
007380
00E3C0
01C1C0
0380E0
000000
000000
000000
00FF00
01FF80
07FFC0
0F83E0
0F01E0
1E01E0
3C01E0
3C01C0
7803C0
780F80
7BFF00
7FFE00
FFF800
FD0000
F00000
F00000
F00000
F00000
700000
780000
7C0300
3FFF00
1FFF00
0FFC00
ENDCHAR
STARTCHAR 00EB
ENCODING 235
SWIDTH 495 0
DWIDTH 22 0
BBX 19 32 2 0
BITMAP
00E0E0
01E1E0
01E1E0
00C0C0
000000
000000
000000
000000
00FF00
01FF80
07FFC0
0F83E0
0F01E0
1E01E0
3C01E0
3C01C0
7803C0
780F80
7BFF00
7FFE00
FFF800
FD0000
F00000
F00000
F00000
F00000
700000
780000
7C0300
3FFF00
1FFF00
0FFC00
ENDCHAR
STARTCHAR 00EC
ENCODING 236
SWIDTH 247 0
DWIDTH 11 0
BBX 10 34 1 0
BITMAP
1E00
0F00
0F00
0780
0380
01C0
01C0
0000
0000
0000
0780
0780
0700
0700
0F00
0F00
0F00
0E00
0E00
1E00
1E00
1E00
1C00
3C00
3C00
3C00
3800
3800
7800
7800
7800
7000
7000
F000
ENDCHAR
STARTCHAR 00ED
ENCODING 237
SWIDTH 247 0
DWIDTH 11 0
BBX 15 34 1 0
BITMAP
003E
003C
0078
00F0
01E0
03C0
0380
0000
0000
0000
0780
0780
0700
0700
0F00
0F00
0F00
0E00
0E00
1E00
1E00
1E00
1C00
3C00
3C00
3C00
3800
3800
7800
7800
7800
7000
7000
F000
ENDCHAR
STARTCHAR 00EE
ENCODING 238
SWIDTH 247 0
DWIDTH 11 0
BBX 14 34 1 0
BITMAP
01E0
03E0
07F0
0F70
1C38
3838
701C
0000
0000
0000
0780
0780
0700
0700
0F00
0F00
0F00
0E00
0E00
1E00
1E00
1E00
1C00
3C00
3C00
3C00
3800
3800
7800
7800
7800
7000
7000
F000
ENDCHAR
STARTCHAR 00EF
ENCODING 239
SWIDTH 247 0
DWIDTH 11 0
BBX 14 32 1 0
BITMAP
1C1C
3C3C
3C3C
1818
0000
0000
0000
0000
0780
0780
0700
0700
0F00
0F00
0F00
0E00
0E00
1E00
1E00
1E00
1C00
3C00
3C00
3C00
3800
3800
7800
7800
7800
7000
7000
F000
ENDCHAR
STARTCHAR 00F0
ENCODING 240
SWIDTH 562 0
DWIDTH 25 0
BBX 22 34 2 0
BITMAP
001000
003C1C
003E7C
001FF8
000FE0
000FC0
003FC0
00F9E0
00F0E0
00C0F0
000070
000070
000078
00FC38
03FF38
0FFFB8
1F83B8
1E01F8
3C00F8
7800F8
780078
700078
F00070
F000F0
F000F0
F000F0
F000E0
F001E0
F003C0
7803C0
780F80
3FFF00
1FFE00
0FF800
ENDCHAR
STARTCHAR 00F1
ENCODING 241
SWIDTH 562 0
DWIDTH 25 0
BBX 24 33 1 0
BITMAP
000807
003F06
007F8E
00FFFC
00E1FC
00C070
000000
000000
000000
070FF0
071FF8
073FFC
0F787C
0FE03C
0FC03C
0F803C
0F003C
1F003C
1E003C
1E003C
1E0078
1C0078
3C0078
3C0078
3C0070
3C00F0
7800F0
7800F0
7800F0
7801E0
7801E0
F001E0
F001E0
ENDCHAR
STARTCHAR 00F2
ENCODING 242
SWIDTH 562 0
DWIDTH 25 0
BBX 21 34 2 0
BITMAP
00F000
007800
003800
003C00
001C00
000E00
000600
000000
000000
000000
007F00
01FFC0
07FFE0
0F81E0
1F00F0
1E00F0
3C0078
3C0078
780078
780078
700078
700078
F00078
F00070
F000F0
F000F0
F000E0
F001E0
7003E0
7803C0
7C0F80
3FFF00
1FFE00
07F800
ENDCHAR
STARTCHAR 00F3
ENCODING 243
SWIDTH 562 0
DWIDTH 25 0
BBX 21 34 2 0
BITMAP
0001F0
0001E0
0003C0
000780
000F00
000E00
001C00
000000
000000
000000
007F00
01FFC0
07FFE0
0F81E0
1F00F0
1E00F0
3C0078
3C0078
780078
780078
700078
700078
F00078
F00070
F000F0
F000F0
F000E0
F001E0
7003E0
7803C0
7C0F80
3FFF00
1FFE00
07F800
ENDCHAR
STARTCHAR 00F4
ENCODING 244
SWIDTH 562 0
DWIDTH 25 0
BBX 21 34 2 0
BITMAP
000F00
001F00
003F80
007B80
00F1C0
01C0E0
0380E0
000000
000000
000000
007F00
01FFC0
07FFE0
0F81E0
1F00F0
1E00F0
3C0078
3C0078
780078
780078
700078
700078
F00078
F00070
F000F0
F000F0
F000E0
F001E0
7003E0
7803C0
7C0F80
3FFF00
1FFE00
07F800
ENDCHAR
STARTCHAR 00F5
ENCODING 245
SWIDTH 562 0
DWIDTH 25 0
BBX 22 33 2 0
BITMAP
00201C
00FC18
01FE38
03FFF0
0307F0
0303C0
000000
000000
000000
007F00
01FFC0
07FFE0
0F81E0
1F00F0
1E00F0
3C0078
3C0078
780078
780078
700078
700078
F00078
F00070
F000F0
F000F0
F000E0
F001E0
7003E0
7803C0
7C0F80
3FFF00
1FFE00
07F800
ENDCHAR
STARTCHAR 00F6
ENCODING 246
SWIDTH 562 0
DWIDTH 25 0
BBX 21 32 2 0
BITMAP
00E0E0
00F0E0
00E0E0
00C0E0
000000
000000
000000
000000
007F00
01FFC0
07FFE0
0F81E0
1F00F0
1E00F0
3C0078
3C0078
780078
780078
700078
700078
F00078
F00070
F000F0
F000F0
F000E0
F001E0
7003E0
7803C0
7C0F80
3FFF00
1FFE00
07F800
ENDCHAR
STARTCHAR 00F7
ENCODING 247
SWIDTH 562 0
DWIDTH 25 0
BBX 21 21 3 5
BITMAP
007000
00F800
00F800
00F800
007000
000000
000000
000000
000000
FFFFF8
FFFFF8
FFFFF8
000000
000000
000000
002000
00F800
00F800
00F800
007800
002000
ENDCHAR
STARTCHAR 00F8
ENCODING 248
SWIDTH 562 0
DWIDTH 25 0
BBX 23 26 1 -2
BITMAP
00000C
003F9E
00FFFC
03FFF8
07C0F8
0F80F8
0F01F8
1E03FC
1C03BC
3C073C
3C0F3C
381E3C
383C3C
783838
787038
78E038
79E078
7BC070
7F80F0
3F00E0
3E01E0
3E07C0
3FFF80
7FFF00
F3FC00
600000
ENDCHAR
STARTCHAR 00F9
ENCODING 249
SWIDTH 562 0
DWIDTH 25 0
BBX 22 34 2 0
BITMAP
007800
003C00
001C00
001E00
000E00
000700
000300
000000
000000
000000
0F001C
0E003C
0E003C
1E003C
1E0038
1E0038
1C0078
3C0078
3C0078
3C0070
3C0070
3800F0
7800F0
7800E0
7801E0
7001E0
7003E0
F003E0
F007C0
F00FC0
781DC0
7FF9C0
3FF3C0
1FC380
ENDCHAR
STARTCHAR 00FA
ENCODING 250
SWIDTH 562 0
DWIDTH 25 0
BBX 22 34 2 0
BITMAP
0000F8
0000F0
0001E0
0003C0
000780
000700
000E00
000000
000000
000000
0F001C
0E003C
0E003C
1E003C
1E0038
1E0038
1C0078
3C0078
3C0078
3C0070
3C0070
3800F0
7800F0
7800E0
7801E0
7001E0
7003E0
F003E0
F007C0
F00FC0
781DC0
7FF9C0
3FF3C0
1FC380
ENDCHAR
STARTCHAR 00FB
ENCODING 251
SWIDTH 562 0
DWIDTH 25 0
BBX 22 34 2 0
BITMAP
000780
000F80
001FC0
003DC0
0078E0
00E070
01C070
000000
000000
000000
0F001C
0E003C
0E003C
1E003C
1E0038
1E0038
1C0078
3C0078
3C0078
3C0070
3C0070
3800F0
7800F0
7800E0
7801E0
7001E0
7003E0
F003E0
F007C0
F00FC0
781DC0
7FF9C0
3FF3C0
1FC380
ENDCHAR
STARTCHAR 00FC
ENCODING 252
SWIDTH 562 0
DWIDTH 25 0
BBX 22 32 2 0
BITMAP
007070
007070
007070
006060
000000
000000
000000
000000
0F001C
0E003C
0E003C
1E003C
1E0038
1E0038
1C0078
3C0078
3C0078
3C0070
3C0070
3800F0
7800F0
7800E0
7801E0
7001E0
7003E0
F003E0
F007C0
F00FC0
781DC0
7FF9C0
3FF3C0
1FC380
ENDCHAR
STARTCHAR 00FD
ENCODING 253
SWIDTH 450 0
DWIDTH 20 0
BBX 26 45 -4 -11
BITMAP
00001E00
00003E00
00003C00
00007800
0000F000
0001E000
00038000
00000000
00000000
00000000
03C001C0
03C003C0
03C00380
01C00780
01C00F00
01C00F00
01E01E00
01E01E00
01E03C00
00E03C00
00E07800
00E07000
00E0F000
00F0E000
00F1E000
00F1C000
0073C000
00738000
00778000
00770000
007F0000
007E0000
007C0000
003C0000
00380000
00780000
00700000
00F00000
01E00000
01E00000
03C00000
8F800000
FF000000
FE000000
78000000
ENDCHAR
STARTCHAR 00FE
ENCODING 254
SWIDTH 562 0
DWIDTH 25 0
BBX 24 45 -1 -11
BITMAP
007800
007800
007800
007000
007000
00F000
00F000
00E000
00E000
01E000
01E1F8
01E7FC
01CFFE
01DC1F
03F80F
03F00F
03E007
03C007
03C007
078007
078007
07800F
07000F
0F000F
0F000F
0F001E
0F001E
0F003C
1F003C
1F8078
1D80F8
1DFFF0
1CFFE0
3C7F80
3C0000
3C0000
380000
380000
780000
780000
780000
700000
F00000
F00000
F00000
ENDCHAR
STARTCHAR 00FF
ENCODING 255
SWIDTH 450 0
DWIDTH 20 0
BBX 26 43 -4 -11
BITMAP
000E0E00
001E1E00
001E1E00
000C0C00
00000000
00000000
00000000
00000000
03C001C0
03C003C0
03C00380
01C00780
01C00F00
01C00F00
01E01E00
01E01E00
01E03C00
00E03C00
00E07800
00E07000
00E0F000
00F0E000
00F1E000
00F1C000
0073C000
00738000
00778000
00770000
007F0000
007E0000
007C0000
003C0000
00380000
00780000
00700000
00F00000
01E00000
01E00000
03C00000
8F800000
FF000000
FE000000
78000000
ENDCHAR
STARTCHAR 0100
ENCODING 256
SWIDTH 540 0
DWIDTH 24 0
BBX 26 38 -2 0
BITMAP
0003FFC0
0003FF80
0007FF80
00000000
00000000
00000000
00007800
0000F800
0000F800
0001F800
0001F800
0003B800
0007BC00
00073C00
000F3C00
000F3C00
001E1C00
001C1C00
003C1C00
00381C00
00781E00
00701E00
00F01E00
01E01E00
01E01E00
03FFFE00
03FFFE00
07FFFE00
07800F00
0F000F00
0F000F00
1E000F00
1C000F00
3C000700
78000700
78000700
F0000780
F0000780
ENDCHAR
STARTCHAR 0101
ENCODING 257
SWIDTH 562 0
DWIDTH 25 0
BBX 22 30 2 0
BITMAP
00FFF0
00FFF0
00FFF0
000000
000000
000000
00FE1C
01FF1C
07FF9C
0FC1FC
0F00F8
1E00F8
3C00F8
3C0078
780070
7800F0
7800F0
7000F0
F000F0
F000E0
F001E0
F001E0
F003E0
F003E0
F007C0
F00FC0
781DC0
7FF9C0
3FF1C0
1FC380
ENDCHAR
STARTCHAR 0102
ENCODING 258
SWIDTH 540 0
DWIDTH 24 0
BBX 26 41 -2 0
BITMAP
000300C0
000301C0
000383C0
0003FF80
0001FF00
0000FC00
00000000
00000000
00000000
00007800
0000F800
0000F800
0001F800
0001F800
0003B800
0007BC00
00073C00
000F3C00
000F3C00
001E1C00
001C1C00
003C1C00
00381C00
00781E00
00701E00
00F01E00
01E01E00
01E01E00
03FFFE00
03FFFE00
07FFFE00
07800F00
0F000F00
0F000F00
1E000F00
1C000F00
3C000700
78000700
78000700
F0000780
F0000780
ENDCHAR
STARTCHAR 0103
ENCODING 259
SWIDTH 562 0
DWIDTH 25 0
BBX 22 33 2 0
BITMAP
00C038
00E030
00F070
007FE0
007FC0
001F80
000000
000000
000000
00FE1C
01FF1C
07FF9C
0FC1FC
0F00F8
1E00F8
3C00F8
3C0078
780070
7800F0
7800F0
7000F0
F000F0
F000E0
F001E0
F001E0
F003E0
F003E0
F007C0
F00FC0
781DC0
7FF9C0
3FF1C0
1FC380
ENDCHAR
STARTCHAR 0104
ENCODING 260
SWIDTH 540 0
DWIDTH 24 0
BBX 25 42 -2 -10
BITMAP
00007800
0000F800
0000F800
0001F800
0001F800
0003B800
0007BC00
00073C00
000F3C00
000F3C00
001E1C00
001C1C00
003C1C00
00381C00
00781E00
00701E00
00F01E00
01E01E00
01E01E00
03FFFE00
03FFFE00
07FFFE00
07800F00
0F000F00
0F000F00
1E000F00
1C000F00
3C000700
78000700
78000700
F0000780
F0000780
00000E00
00001C00
00003800
00007000
00007000
00006000
00007000
00007E00
00007E00
00001C00
ENDCHAR
STARTCHAR 0105
ENCODING 261
SWIDTH 562 0
DWIDTH 25 0
BBX 22 34 2 -10
BITMAP
00FE1C
01FF1C
07FF9C
0FC1FC
0F00F8
1E00F8
3C00F8
3C0078
780070
7800F0
7800F0
7000F0
F000F0
F000E0
F001E0
F001E0
F003E0
F003E0
F007C0
F00FC0
781DC0
7FF9C0
3FF1C0
1FC380
000300
000E00
001C00
003800
003800
003800
003800
003F00
003F00
000E00
ENDCHAR
STARTCHAR 0106
ENCODING 262
SWIDTH 585 0
DWIDTH 26 0
BBX 25 42 3 0
BITMAP
00000F00
00001E00
00003C00
00003800
00007000
0000E000
0001C000
00000000
00000000
00000000
0007FC00
003FFF80
007FFF80
01FC0700
03F00100
07C00000
0F800000
0F000000
1E000000
1E000000
3C000000
3C000000
78000000
78000000
78000000
78000000
70000000
F0000000
F0000000
F0000000
F0000000
F0000000
F0000000
78000000
78000000
78000000
7C000000
3E000000
1F806000
0FFFE000
07FFE000
03FFC000
ENDCHAR
STARTCHAR 0107
ENCODING 263
SWIDTH 450 0
DWIDTH 20 0
BBX 19 34 2 0
BITMAP
0001E0
0003C0
000780
000700
000E00
001C00
003800
000000
000000
000000
007F80
01FFC0
07FFC0
0FC0C0
0F0000
1E0000
3C0000
3C0000
780000
780000
780000
700000
F00000
F00000
F00000
F00000
F00000
F00000
F00000
780000
7C0200
3FFE00
1FFE00
0FFC00
ENDCHAR
STARTCHAR 0108
ENCODING 264
SWIDTH 585 0
DWIDTH 26 0
BBX 25 42 3 0
BITMAP
0000F000
0001F800
0001F800
0003BC00
00071C00
000E0E00
003C0700
00000000
00000000
00000000
0007FC00
003FFF80
007FFF80
01FC0700
03F00100
07C00000
0F800000
0F000000
1E000000
1E000000
3C000000
3C000000
78000000
78000000
78000000
78000000
70000000
F0000000
F0000000
F0000000
F0000000
F0000000
F0000000
78000000
78000000
78000000
7C000000
3E000000
1F806000
0FFFE000
07FFE000
03FFC000
ENDCHAR
STARTCHAR 0109
ENCODING 265
SWIDTH 450 0
DWIDTH 20 0
BBX 19 34 2 0
BITMAP
001E00
003F00
007F00
00F780
01E380
03C1C0
0700E0
000000
000000
000000
007F80
01FFC0
07FFC0
0FC0C0
0F0000
1E0000
3C0000
3C0000
780000
780000
780000
700000
F00000
F00000
F00000
F00000
F00000
F00000
F00000
780000
7C0200
3FFE00
1FFE00
0FFC00
ENDCHAR
STARTCHAR 010A
ENCODING 266
SWIDTH 585 0
DWIDTH 26 0
BBX 25 41 3 0
BITMAP
00002000
0000F000
0000F000
0000F000
0000E000
00000000
00000000
00000000
00000000
0007FC00
003FFF80
007FFF80
01FC0700
03F00100
07C00000
0F800000
0F000000
1E000000
1E000000
3C000000
3C000000
78000000
78000000
78000000
78000000
70000000
F0000000
F0000000
F0000000
F0000000
F0000000
F0000000
78000000
78000000
78000000
7C000000
3E000000
1F806000
0FFFE000
07FFE000
03FFC000
ENDCHAR
STARTCHAR 010B
ENCODING 267
SWIDTH 450 0
DWIDTH 20 0
BBX 18 33 2 0
BITMAP
000C00
001E00
001E00
001E00
001C00
000000
000000
000000
000000
007F80
01FFC0
07FFC0
0FC0C0
0F0000
1E0000
3C0000
3C0000
780000
780000
780000
700000
F00000
F00000
F00000
F00000
F00000
F00000
F00000
780000
7C0200
3FFE00
1FFE00
0FFC00
ENDCHAR
STARTCHAR 010C
ENCODING 268
SWIDTH 585 0
DWIDTH 26 0
BBX 25 42 3 0
BITMAP
000E0380
00070700
00070E00
0003BC00
0003F800
0001F000
0001E000
00000000
00000000
00000000
0007FC00
003FFF80
007FFF80
01FC0700
03F00100
07C00000
0F800000
0F000000
1E000000
1E000000
3C000000
3C000000
78000000
78000000
78000000
78000000
70000000
F0000000
F0000000
F0000000
F0000000
F0000000
F0000000
78000000
78000000
78000000
7C000000
3E000000
1F806000
0FFFE000
07FFE000
03FFC000
ENDCHAR
STARTCHAR 010D
ENCODING 269
SWIDTH 450 0
DWIDTH 20 0
BBX 20 34 2 0
BITMAP
01C070
01C0E0
00E3C0
007780
007F00
003E00
003C00
000000
000000
000000
007F80
01FFC0
07FFC0
0FC0C0
0F0000
1E0000
3C0000
3C0000
780000
780000
780000
700000
F00000
F00000
F00000
F00000
F00000
F00000
F00000
780000
7C0200
3FFE00
1FFE00
0FFC00
ENDCHAR
STARTCHAR 010E
ENCODING 270
SWIDTH 652 0
DWIDTH 29 0
BBX 26 42 2 0
BITMAP
000E03C0
00070700
00078E00
00039C00
0001F800
0001F800
0000F000
00000000
00000000
00000000
01FF8000
03FFF000
03FFFC00
03C1FE00
03803F00
07800F80
07800780
07800780
078003C0
070003C0
0F0003C0
0F0003C0
0F0003C0
0E0003C0
0E0003C0
1E0003C0
1E0003C0
1E0003C0
1C0003C0
3C000780
3C000780
3C000F80
3C000F00
38001F00
78003E00
78007C00
7800F800
7003F000
701FE000
FFFFC000
FFFF0000
FFF00000
ENDCHAR
STARTCHAR 010F
ENCODING 271
SWIDTH 607 0
DWIDTH 27 0
BBX 32 34 2 0
BITMAP
0000070F
0000070E
00000F1E
00000F1C
00000F38
00000E38
00000E70
00001E00
00001E00
00001C00
00FE1C00
03FF1C00
07FFBC00
0FC1FC00
1F00F800
1E00F800
3C007800
3C007800
78007800
78007000
78007000
7000F000
F000F000
F000F000
F001E000
F001E000
F003E000
F003E000
F007C000
F00FC000
781DC000
7FF9C000
3FF3C000
1FC38000
ENDCHAR
STARTCHAR 0110
ENCODING 272
SWIDTH 652 0
DWIDTH 29 0
BBX 26 32 2 0
BITMAP
01FF8000
03FFF000
03FFFC00
03C1FE00
03803F00
07800F80
07800780
07800780
078003C0
070003C0
0F0003C0
0F0003C0
0F0003C0
0E0003C0
0E0003C0
FFFC03C0
FFFC03C0
FFFC03C0
1C0003C0
3C000780
3C000780
3C000F80
3C000F00
38001F00
78003E00
78007C00
7800F800
7003F000
701FE000
FFFFC000
FFFF0000
FFF00000
ENDCHAR
STARTCHAR 0111
ENCODING 273
SWIDTH 562 0
DWIDTH 25 0
BBX 27 34 2 0
BITMAP
00000700
00000700
00000F00
00000F00
000FFFE0
000FFFE0
001FFFC0
00001E00
00001E00
00001C00
00FE1C00
03FF1C00
07FFBC00
0F81FC00
1F00F800
1E00F800
3C007800
3C007800
78007800
78007000
78007000
7000F000
F000F000
F000F000
F001E000
F001E000
F003E000
F003E000
F007C000
F00FC000
781DC000
7FF9C000
3FF3C000
1FC38000
ENDCHAR
STARTCHAR 0112
ENCODING 274
SWIDTH 495 0
DWIDTH 22 0
BBX 23 38 2 0
BITMAP
003FF8
007FF8
007FF8
000000
000000
000000
01FFFE
03FFFC
03FFFC
03FFFC
038000
078000
078000
078000
078000
070000
0F0000
0F0000
0F0000
0E0000
0FFFE0
1FFFE0
1FFFC0
1E0000
1C0000
3C0000
3C0000
3C0000
3C0000
380000
780000
780000
780000
700000
700000
FFFF00
FFFF00
FFFF00
ENDCHAR
STARTCHAR 0113
ENCODING 275
SWIDTH 495 0
DWIDTH 22 0
BBX 19 30 2 0
BITMAP
01FFE0
01FFE0
01FFC0
000000
000000
000000
00FF00
01FF80
07FFC0
0F83E0
0F01E0
1E01E0
3C01E0
3C01C0
7803C0
780F80
7BFF00
7FFE00
FFF800
FD0000
F00000
F00000
F00000
F00000
700000
780000
7C0300
3FFF00
1FFF00
0FFC00
ENDCHAR
STARTCHAR 0114
ENCODING 276
SWIDTH 495 0
DWIDTH 22 0
BBX 23 41 2 0
BITMAP
00300C
00301C
003838
003FF8
001FF0
000FC0
000000
000000
000000
01FFFE
03FFFC
03FFFC
03FFFC
038000
078000
078000
078000
078000
070000
0F0000
0F0000
0F0000
0E0000
0FFFE0
1FFFE0
1FFFC0
1E0000
1C0000
3C0000
3C0000
3C0000
3C0000
380000
780000
780000
780000
700000
700000
FFFF00
FFFF00
FFFF00
ENDCHAR
STARTCHAR 0115
ENCODING 277
SWIDTH 495 0
DWIDTH 22 0
BBX 20 33 2 0
BITMAP
018070
01C060
01C0E0
00FFC0
00FF80
003F00
000000
000000
000000
00FF00
01FF80
07FFC0
0F83E0
0F01E0
1E01E0
3C01E0
3C01C0
7803C0
780F80
7BFF00
7FFE00
FFF800
FD0000
F00000
F00000
F00000
F00000
700000
780000
7C0300
3FFF00
1FFF00
0FFC00
ENDCHAR
STARTCHAR 0116
ENCODING 278
SWIDTH 495 0
DWIDTH 22 0
BBX 23 41 2 0
BITMAP
000100
0003C0
0003C0
0003C0
000380
000000
000000
000000
000000
01FFFE
03FFFC
03FFFC
03FFFC
038000
078000
078000
078000
078000
070000
0F0000
0F0000
0F0000
0E0000
0FFFE0
1FFFE0
1FFFC0
1E0000
1C0000
3C0000
3C0000
3C0000
3C0000
380000
780000
780000
780000
700000
700000
FFFF00
FFFF00
FFFF00
ENDCHAR
STARTCHAR 0117
ENCODING 279
SWIDTH 495 0
DWIDTH 22 0
BBX 19 33 2 0
BITMAP
000400
001E00
001E00
001E00
001C00
000000
000000
000000
000000
00FF00
01FF80
07FFC0
0F83E0
0F01E0
1E01E0
3C01E0
3C01C0
7803C0
780F80
7BFF00
7FFE00
FFF800
FD0000
F00000
F00000
F00000
F00000
700000
780000
7C0300
3FFF00
1FFF00
0FFC00
ENDCHAR
STARTCHAR 0118
ENCODING 280
SWIDTH 495 0
DWIDTH 22 0
BBX 23 42 2 -10
BITMAP
01FFFE
03FFFC
03FFFC
03FFFC
038000
078000
078000
078000
078000
070000
0F0000
0F0000
0F0000
0E0000
0FFFE0
1FFFE0
1FFFC0
1E0000
1C0000
3C0000
3C0000
3C0000
3C0000
380000
780000
780000
780000
700000
700000
FFFF00
FFFF00
FFFF00
001C00
003800
007000
00E000
00E000
01C000
01E000
00FC00
00FC00
003800
ENDCHAR
STARTCHAR 0119
ENCODING 281
SWIDTH 495 0
DWIDTH 22 0
BBX 19 34 2 -10
BITMAP
00FF00
01FF80
07FFC0
0F83E0
0F01E0
1E01E0
3C01E0
3C01C0
7803C0
780F80
73FF00
7FFE00
FFF800
FD0000
F00000
F00000
F00000
F00000
F00000
780000
7C0300
3FFF00
1FFF00
0FFC00
001800
007000
00E000
01C000
01C000
01C000
01C000
01F800
00F800
007000
ENDCHAR
STARTCHAR 011A
ENCODING 282
SWIDTH 495 0
DWIDTH 22 0
BBX 23 42 2 0
BITMAP
00300E
00381C
001C78
001EF0
000FE0
0007C0
000780
000000
000000
000000
01FFFE
03FFFC
03FFFC
03FFFC
038000
078000
078000
078000
078000
070000
0F0000
0F0000
0F0000
0E0000
0FFFE0
1FFFE0
1FFFC0
1E0000
1C0000
3C0000
3C0000
3C0000
3C0000
380000
780000
780000
780000
700000
700000
FFFF00
FFFF00
FFFF00
ENDCHAR
STARTCHAR 011B
ENCODING 283
SWIDTH 495 0
DWIDTH 22 0
BBX 20 34 2 0
BITMAP
01C070
00E0E0
00F1C0
007780
007F00
003E00
003E00
000000
000000
000000
00FF00
01FF80
07FFC0
0F83E0
0F01E0
1E01E0
3C01E0
3C01C0
7803C0
780F80
7BFF00
7FFE00
FFF800
FD0000
F00000
F00000
F00000
F00000
700000
780000
7C0300
3FFF00
1FFF00
0FFC00
ENDCHAR
STARTCHAR 011C
ENCODING 284
SWIDTH 675 0
DWIDTH 30 0
BBX 26 42 3 0
BITMAP
00007800
0000FC00
0001FC00
0003DE00
00078E00
000F0700
001C0380
00000000
00000000
00000000
0007FE00
003FFFC0
007FFFC0
01FC07C0
03F00080
07C00000
0F800000
0F000000
1E000000
1E000000
3C000000
3C000000
78000000
78000000
78000000
7801FF80
F003FF80
F003FF00
F003FF00
F0000F00
F0000F00
F0000F00
F0000E00
F8001E00
78001E00
78001E00
7C001C00
3E001C00
1F803C00
0FFFFC00
07FFFC00
01FFE000
ENDCHAR
STARTCHAR 011D
ENCODING 285
SWIDTH 517 0
DWIDTH 23 0
BBX 26 45 -2 -11
BITMAP
0000F000
0001F000
0003F800
0007B800
000F1C00
001C1C00
00380E00
00000000
00000000
00000000
000FFFC0
003FFFC0
00FCFFC0
00F03C00
01E01C00
01C01C00
03C01C00
03801C00
03801C00
03803C00
03803800
03C07800
01E0F000
00FFE000
007FC000
01E40000
03800000
07000000
07000000
07800000
07FE0000
03FFC000
07FFE000
1E03F000
38007800
70007800
F0003800
E0007800
E0007800
E0007000
F001F000
7C07E000
3FFFC000
1FFF0000
01E00000
ENDCHAR
STARTCHAR 011E
ENCODING 286
SWIDTH 675 0
DWIDTH 30 0
BBX 26 41 3 0
BITMAP
00060180
00060380
00070700
0007FF00
0003FE00
0001F800
00000000
00000000
00000000
0007FE00
003FFFC0
007FFFC0
01FC07C0
03F00080
07C00000
0F800000
0F000000
1E000000
1E000000
3C000000
3C000000
78000000
78000000
78000000
7801FF80
F003FF80
F003FF00
F003FF00
F0000F00
F0000F00
F0000F00
F0000E00
F8001E00
78001E00
78001E00
7C001C00
3E001C00
1F803C00
0FFFFC00
07FFFC00
01FFE000
ENDCHAR
STARTCHAR 011F
ENCODING 287
SWIDTH 517 0
DWIDTH 23 0
BBX 26 44 -2 -11
BITMAP
00300E00
00380C00
00381C00
001FF800
001FF000
0007E000
00000000
00000000
00000000
000FFFC0
003FFFC0
00FCFFC0
00F03C00
01E01C00
01C01C00
03C01C00
03801C00
03801C00
03803C00
03803800
03C07800
01E0F000
00FFE000
007FC000
01E40000
03800000
07000000
07000000
07800000
07FE0000
03FFC000
07FFE000
1E03F000
38007800
70007800
F0003800
E0007800
E0007800
E0007000
F001F000
7C07E000
3FFFC000
1FFF0000
01E00000
ENDCHAR
STARTCHAR 0120
ENCODING 288
SWIDTH 675 0
DWIDTH 30 0
BBX 26 41 3 0
BITMAP
00001000
00007800
00007800
00007800
00007000
00000000
00000000
00000000
00000000
0007FE00
003FFFC0
007FFFC0
01FC07C0
03F00080
07C00000
0F800000
0F000000
1E000000
1E000000
3C000000
3C000000
78000000
78000000
78000000
7801FF80
F003FF80
F003FF00
F003FF00
F0000F00
F0000F00
F0000F00
F0000E00
F8001E00
78001E00
78001E00
7C001C00
3E001C00
1F803C00
0FFFFC00
07FFFC00
01FFE000
ENDCHAR
STARTCHAR 0121
ENCODING 289
SWIDTH 517 0
DWIDTH 23 0
BBX 26 44 -2 -11
BITMAP
0000C000
0001C000
0003E000
0003C000
0001C000
00000000
00000000
00000000
00000000
000FFFC0
003FFFC0
00FCFFC0
00F03C00
01E01C00
01C01C00
03C01C00
03801C00
03801C00
03803C00
03803800
03C07800
01E0F000
00FFE000
007FC000
01E40000
03800000
07000000
07000000
07800000
07FE0000
03FFC000
07FFE000
1E03F000
38007800
70007800
F0003800
E0007800
E0007800
E0007000
F001F000
7C07E000
3FFFC000
1FFF0000
01E00000
ENDCHAR
STARTCHAR 0122
ENCODING 290
SWIDTH 675 0
DWIDTH 30 0
BBX 26 42 3 -10
BITMAP
0007FE00
003FFFC0
007FFFC0
01FC07C0
03F00080
07C00000
0F800000
0F000000
1E000000
1E000000
3C000000
3C000000
78000000
78000000
78000000
7801FF80
F003FF80
F003FF00
F003FF00
F0000F00
F0000F00
F0000F00
F0000E00
F8001E00
78001E00
78001E00
7C001C00
3E001C00
1F803C00
0FFFFC00
07FFFC00
01FFE000
00000000
00000000
00000000
00380000
00780000
00700000
00F00000
00E00000
01C00000
01800000
ENDCHAR
STARTCHAR 0123
ENCODING 291
SWIDTH 517 0
DWIDTH 23 0
BBX 26 45 -2 -11
BITMAP
00003000
00007000
0000E000
0000E000
0001C000
0003C000
00038000
00000000
00000000
00000000
000FFFC0
003FFFC0
00FCFFC0
00F03C00
01E01C00
01C01C00
03C01C00
03801C00
03801C00
03803C00
03803800
03C07800
01E0F000
00FFE000
007FC000
01E40000
03800000
07000000
07000000
07800000
07FE0000
03FFC000
07FFE000
1E03F000
38007800
70007800
F0003800
E0007800
E0007800
E0007000
F001F000
7C07E000
3FFFC000
1FFF0000
01E00000
ENDCHAR
STARTCHAR 0124
ENCODING 292
SWIDTH 675 0
DWIDTH 30 0
BBX 28 42 2 0
BITMAP
00007800
0000F800
0001FC00
0003DC00
00078E00
000E0F00
001C0700
00000000
00000000
00000000
01C00070
03C000F0
03C000F0
03C000F0
038000E0
078000E0
078001E0
078001E0
078001E0
070001C0
0F0001C0
0F0003C0
0F0003C0
0E0003C0
0FFFFF80
1FFFFF80
1FFFFF80
1E000780
1C000780
1C000700
3C000F00
3C000F00
3C000F00
38000E00
78000E00
78001E00
78001E00
78001E00
70001C00
F0001C00
F0003C00
F0003C00
ENDCHAR
STARTCHAR 0125
ENCODING 293
SWIDTH 562 0
DWIDTH 25 0
BBX 22 44 1 0
BITMAP
007800
00F800
01FC00
03DC00
078E00
0E0F00
1C0700
000000
000000
000000
01E000
01E000
01E000
01C000
01C000
03C000
03C000
038000
038000
078000
0787E0
079FF8
073FF8
07787C
0FE03C
0FC03C
0F803C
0F003C
0F003C
1E003C
1E0038
1E0038
1C0078
3C0078
3C0078
3C0070
3800F0
3800F0
7800F0
7800E0
7800E0
7001E0
7001E0
F001E0
ENDCHAR
STARTCHAR 0126
ENCODING 294
SWIDTH 675 0
DWIDTH 30 0
BBX 31 32 2 0
BITMAP
01C00070
03C000F0
03C000F0
03C000F0
038000F0
078000E0
7FFFFFFE
7FFFFFFE
7FFFFFFE
070001C0
0F0001C0
0F0003C0
0F0003C0
0E0003C0
0FFFFF80
1FFFFF80
1FFFFF80
1E000780
1C000780
3C000700
3C000F00
3C000F00
3C000F00
38000E00
78000E00
78001E00
78001E00
70001E00
70001C00
F0001C00
F0003C00
F0003C00
ENDCHAR
STARTCHAR 0127
ENCODING 295
SWIDTH 562 0
DWIDTH 25 0
BBX 22 34 1 0
BITMAP
01E000
01E000
01E000
01C000
1FFFC0
1FFFC0
1FFF80
038000
038000
078000
0787E0
079FF0
073FF8
07787C
0FE03C
0FC03C
0F803C
0F003C
0F003C
1E003C
1E0038
1E0038
1C0078
3C0078
3C0078
3C0070
3800F0
3800F0
7800F0
7800E0
7800E0
7001E0
7001E0
F001E0
ENDCHAR
STARTCHAR 0128
ENCODING 296
SWIDTH 270 0
DWIDTH 12 0
BBX 18 41 2 0
BITMAP
0000C0
0FC180
1FE380
1FFF80
387F00
301E00
000000
000000
000000
01C000
03C000
03C000
03C000
038000
078000
078000
078000
070000
070000
0F0000
0F0000
0F0000
0E0000
0E0000
1E0000
1E0000
1E0000
1C0000
1C0000
3C0000
3C0000
3C0000
380000
780000
780000
780000
700000
700000
F00000
F00000
F00000
ENDCHAR
STARTCHAR 0129
ENCODING 297
SWIDTH 247 0
DWIDTH 11 0
BBX 16 33 1 0
BITMAP
0003
1F03
3FC7
7FFE
60FC
E078
0000
0000
0000
0780
0780
0700
0700
0F00
0F00
0F00
0E00
0E00
1E00
1E00
1E00
1C00
3C00
3C00
3C00
3800
3800
7800
7800
7800
7000
7000
F000
ENDCHAR
STARTCHAR 012A
ENCODING 298
SWIDTH 270 0
DWIDTH 12 0
BBX 16 38 2 0
BITMAP
0FFF
1FFE
1FFE
0000
0000
0000
01C0
03C0
03C0
03C0
0380
0780
0780
0780
0700
0700
0F00
0F00
0F00
0E00
0E00
1E00
1E00
1E00
1C00
1C00
3C00
3C00
3C00
3800
7800
7800
7800
7000
7000
F000
F000
F000
ENDCHAR
STARTCHAR 012B
ENCODING 299
SWIDTH 247 0
DWIDTH 11 0
BBX 14 30 1 0
BITMAP
3FFC
3FFC
3FFC
0000
0000
0000
0780
0780
0700
0700
0F00
0F00
0F00
0E00
0E00
1E00
1E00
1E00
1C00
3C00
3C00
3C00
3800
3800
7800
7800
7800
7000
7000
F000
ENDCHAR
STARTCHAR 012C
ENCODING 300
SWIDTH 270 0
DWIDTH 12 0
BBX 16 41 2 0
BITMAP
0C03
1C07
0E0E
0FFE
07FC
03F0
0000
0000
0000
01C0
03C0
03C0
03C0
0380
0780
0780
0780
0700
0700
0F00
0F00
0F00
0E00
0E00
1E00
1E00
1E00
1C00
1C00
3C00
3C00
3C00
3800
7800
7800
7800
7000
7000
F000
F000
F000
ENDCHAR
STARTCHAR 012D
ENCODING 301
SWIDTH 247 0
DWIDTH 11 0
BBX 15 33 1 0
BITMAP
380E
380C
3C1C
1FF8
0FF8
07E0
0000
0000
0000
0780
0780
0700
0700
0F00
0F00
0F00
0E00
0E00
1E00
1E00
1E00
1C00
3C00
3C00
3C00
3800
3800
7800
7800
7800
7000
7000
F000
ENDCHAR
STARTCHAR 012E
ENCODING 302
SWIDTH 270 0
DWIDTH 12 0
BBX 14 42 -2 -10
BITMAP
001C
003C
003C
003C
0038
0078
0078
0078
0070
0070
00F0
00F0
00F0
00E0
00E0
01E0
01E0
01E0
01C0
01C0
03C0
03C0
03C0
0380
0780
0780
0780
0700
0700
0F00
0F00
0F00
0E00
1C00
3800
7000
E000
E000
E000
FE00
7E00
1C00
ENDCHAR
STARTCHAR 012F
ENCODING 303
SWIDTH 247 0
DWIDTH 11 0
BBX 14 43 -2 -10
BITMAP
0018
003C
007C
007C
0038
0000
0000
0000
0000
00F0
00F0
00E0
00E0
01E0
01E0
01E0
01C0
01C0
03C0
03C0
03C0
0380
0780
0780
0780
0700
0700
0F00
0F00
0F00
0E00
0E00
1E00
0E00
1C00
3800
7000
E000
E000
E000
FE00
7E00
1C00
ENDCHAR
STARTCHAR 0130
ENCODING 304
SWIDTH 270 0
DWIDTH 12 0
BBX 12 41 2 0
BITMAP
0020
00F0
00F0
00F0
00E0
0000
0000
0000
0000
01C0
03C0
03C0
03C0
0380
0780
0780
0780
0700
0700
0F00
0F00
0F00
0E00
0E00
1E00
1E00
1E00
1C00
1C00
3C00
3C00
3C00
3800
7800
7800
7800
7000
7000
F000
F000
F000
ENDCHAR
STARTCHAR 0131
ENCODING 305
SWIDTH 247 0
DWIDTH 11 0
BBX 9 24 1 0
BITMAP
0780
0780
0700
0700
0F00
0F00
0F00
0E00
0E00
1E00
1E00
1E00
1C00
3C00
3C00
3C00
3800
3800
7800
7800
7800
7000
7000
F000
ENDCHAR
STARTCHAR 0132
ENCODING 306
SWIDTH 517 0
DWIDTH 23 0
BBX 22 40 2 -8
BITMAP
01C01C
03C03C
03C03C
03C03C
038038
078038
078078
078078
070078
070070
0F0070
0F00F0
0F00F0
0E00F0
0E00E0
1E01E0
1E01E0
1E01E0
1C01E0
1C01C0
3C03C0
3C03C0
3C03C0
380380
780380
780780
780780
700780
700700
F00F00
F00F00
F00F00
000F00
001E00
001E00
003E00
007C00
1FF800
1FF000
1FE000
ENDCHAR
STARTCHAR 0133
ENCODING 307
SWIDTH 495 0
DWIDTH 22 0
BBX 22 44 1 -11
BITMAP
00C018
01E03C
03E03C
03E03C
01C038
000000
000000
000000
000000
0780F0
0780F0
0700F0
0700E0
0F00E0
0F01E0
0F01E0
0E01E0
0E01C0
1E01C0
1E03C0
1E03C0
1C0380
3C0380
3C0780
3C0780
380780
380700
780700
780F00
780F00
700F00
700E00
F00E00
001E00
001E00
001C00
001C00
003C00
003C00
007800
0CF800
0FF000
0FE000
038000
ENDCHAR
STARTCHAR 0134
ENCODING 308
SWIDTH 247 0
DWIDTH 11 0
BBX 24 50 -7 -8
BITMAP
000078
0000F8
0001FC
0003DC
00078E
000E0F
001C07
000000
000000
000000
0000E0
0001E0
0001E0
0001E0
0001C0
0001C0
0003C0
0003C0
0003C0
000380
000780
000780
000780
000780
000700
000F00
000F00
000F00
000E00
000E00
001E00
001E00
001E00
001C00
003C00
003C00
003C00
003C00
003800
007800
007800
007800
007000
00F000
00F000
01E000
03E000
FFC000
FF8000
FF0000
ENDCHAR
STARTCHAR 0135
ENCODING 309
SWIDTH 247 0
DWIDTH 11 0
BBX 21 45 -6 -11
BITMAP
0003C0
0007C0
000FE0
001EE0
003C70
007070
00E038
000000
000000
000000
000F00
000F00
000E00
000E00
001E00
001E00
001E00
001C00
001C00
003C00
003C00
003C00
003800
003800
007800
007800
007000
007000
00F000
00F000
00F000
00E000
00E000
01E000
01E000
01E000
01C000
01C000
03C000
03C000
078000
DF8000
FF0000
FE0000
780000
ENDCHAR
STARTCHAR 0136
ENCODING 310
SWIDTH 540 0
DWIDTH 24 0
BBX 27 42 2 -10
BITMAP
01C003E0
03C007C0
03C00F80
03C01F00
03803E00
07807C00
0780F800
0781F000
0703E000
0707C000
0F0F8000
0F1F0000
0F3E0000
0E7C0000
0EF80000
1FF80000
1FFC0000
1F9C0000
1E1E0000
3C1E0000
3C0F0000
3C0F0000
3C070000
38078000
78078000
7803C000
7803C000
7001E000
7001E000
F001E000
F000F000
F000F000
00000000
00000000
00000000
01E00000
01C00000
03C00000
03800000
07000000
06000000
0E000000
ENDCHAR
STARTCHAR 0137
ENCODING 311
SWIDTH 472 0
DWIDTH 21 0
BBX 22 44 1 -10
BITMAP
01E000
01E000
01E000
01C000
03C000
03C000
03C000
038000
038000
078000
07803C
078078
0700F0
0701E0
0F03C0
0F0780
0F0F00
0E1E00
1E3C00
1E7800
1CF000
1DF000
1FF800
3F7800
3E3C00
3C3C00
381E00
381E00
780F00
780F00
780780
700780
7003C0
F003C0
000000
000000
000000
01C000
03C000
038000
078000
070000
0E0000
0C0000
ENDCHAR
STARTCHAR 0138
ENCODING 312
SWIDTH 472 0
DWIDTH 21 0
BBX 22 24 1 0
BITMAP
07803C
078078
0700F0
0701E0
0F03C0
0F0780
0F0F00
0E1E00
1E3C00
1E7800
1CF000
1DF000
1FF800
3F7800
3E3C00
3C3C00
381E00
381E00
780F00
780F00
780780
700780
7003C0
F003C0
ENDCHAR
STARTCHAR 0139
ENCODING 313
SWIDTH 472 0
DWIDTH 21 0
BBX 17 42 2 0
BITMAP
000F80
000F00
001E00
003C00
007800
00F000
00E000
000000
000000
000000
01C000
03C000
03C000
03C000
038000
078000
078000
078000
070000
070000
0F0000
0F0000
0F0000
0E0000
0E0000
1E0000
1E0000
1E0000
1C0000
3C0000
3C0000
3C0000
3C0000
380000
780000
780000
780000
700000
700000
FFFF00
FFFF00
FFFF00
ENDCHAR
STARTCHAR 013A
ENCODING 314
SWIDTH 247 0
DWIDTH 11 0
BBX 17 44 1 0
BITMAP
000F80
000F00
001E00
003C00
007800
007000
00E000
000000
000000
000000
01E000
01E000
01E000
01C000
03C000
03C000
03C000
038000
038000
078000
078000
078000
070000
070000
0F0000
0F0000
0F0000
0E0000
0E0000
1E0000
1E0000
1E0000
1C0000
3C0000
3C0000
3C0000
380000
380000
780000
780000
780000
700000
700000
F00000
ENDCHAR
STARTCHAR 013B
ENCODING 315
SWIDTH 472 0
DWIDTH 21 0
BBX 16 42 2 -10
BITMAP
01C0
03C0
03C0
03C0
0380
0780
0780
0780
0700
0700
0F00
0F00
0F00
0E00
0E00
1E00
1E00
1E00
1C00
3C00
3C00
3C00
3C00
3800
7800
7800
7800
7000
7000
FFFF
FFFF
FFFF
0000
0000
0000
03C0
0380
0780
0700
0E00
0C00
1800
ENDCHAR
STARTCHAR 013C
ENCODING 316
SWIDTH 247 0
DWIDTH 11 0
BBX 14 44 -2 -10
BITMAP
003C
003C
003C
0038
0078
0078
0078
0070
0070
00F0
00F0
00F0
00E0
00E0
01E0
01E0
01E0
01C0
01C0
03C0
03C0
03C0
0380
0780
0780
0780
0700
0700
0F00
0F00
0F00
0E00
0E00
1E00
0000
0000
0000
1E00
1C00
3C00
3800
7000
7000
E000
ENDCHAR
STARTCHAR 013D
ENCODING 317
SWIDTH 472 0
DWIDTH 21 0
BBX 21 32 2 0
BITMAP
01C078
03C070
03C0F0
03C0E0
0381E0
0781C0
078380
078000
070000
070000
0F0000
0F0000
0F0000
0E0000
0E0000
1E0000
1E0000
1E0000
1C0000
3C0000
3C0000
3C0000
3C0000
380000
780000
780000
780000
700000
700000
FFFF00
FFFF00
FFFF00
ENDCHAR
STARTCHAR 013E
ENCODING 318
SWIDTH 270 0
DWIDTH 12 0
BBX 18 34 1 0
BITMAP
01E1C0
01E3C0
01E380
01C700
03C700
03CE00
03CC00
038000
038000
078000
078000
078000
070000
070000
0F0000
0F0000
0F0000
0E0000
0E0000
1E0000
1E0000
1E0000
1C0000
3C0000
3C0000
3C0000
380000
380000
780000
780000
780000
700000
700000
F00000
ENDCHAR
STARTCHAR 013F
ENCODING 319
SWIDTH 472 0
DWIDTH 21 0
BBX 17 32 2 0
BITMAP
01C000
03C000
03C000
03C000
038000
078000
078000
078000
070000
070000
0F0000
0F0000
0F0000
0E0000
0E0380
1E0780
1E0780
1E0780
1C0000
3C0000
3C0000
3C0000
3C0000
380000
780000
780000
780000
700000
700000
FFFF00
FFFF00
FFFF00
ENDCHAR
STARTCHAR 0140
ENCODING 320
SWIDTH 270 0
DWIDTH 12 0
BBX 14 34 1 0
BITMAP
01E0
01E0
01E0
01C0
03C0
03C0
03C0
0380
0380
0780
0780
0780
0700
0700
0F00
0F08
0F3C
0E3C
0E3C
1E38
1E00
1E00
1C00
3C00
3C00
3C00
3800
3800
7800
7800
7800
7000
7000
F000
ENDCHAR
STARTCHAR 0141
ENCODING 321
SWIDTH 472 0
DWIDTH 21 0
BBX 17 32 1 0
BITMAP
01E000
01E000
01E000
01E000
01C000
03C000
03C000
03C000
038000
038000
078000
078000
078C00
071C00
077C00
0FF800
0FE000
0F8000
3E0000
FE0000
FE0000
DE0000
1E0000
1C0000
3C0000
3C0000
3C0000
380000
380000
7FFF80
7FFF80
7FFF80
ENDCHAR
STARTCHAR 0142
ENCODING 322
SWIDTH 247 0
DWIDTH 11 0
BBX 13 34 0 0
BITMAP
00F0
00F0
00F0
00E0
01E0
01E0
01E0
01C0
01C0
03C0
03C0
03C0
0380
0380
07B0
07F8
07F0
07C0
1F00
3F00
FF00
6F00
4E00
1E00
1E00
1E00
1C00
1C00
3C00
3C00
3C00
3800
3800
7800
ENDCHAR
STARTCHAR 0143
ENCODING 323
SWIDTH 697 0
DWIDTH 31 0
BBX 29 42 2 0
BITMAP
000007C0
00000780
00000F00
00001E00
00003C00
00007800
00007000
00000000
00000000
00000000
03C00038
03E00038
03E00078
03F00078
03F00078
07F00070
07780070
073800F0
073800F0
073C00E0
0F1C00E0
0F1E00E0
0E1E01E0
0E0E01E0
0E0F01C0
1E0701C0
1E0783C0
1C0783C0
1C0383C0
3C03C380
3C03C380
3C01C780
3801E780
3800E780
7800F700
7800F700
70007700
70007F00
70003E00
F0003E00
F0003E00
E0001E00
ENDCHAR
STARTCHAR 0144
ENCODING 324
SWIDTH 562 0
DWIDTH 25 0
BBX 22 34 1 0
BITMAP
00003C
000078
0000F0
0001E0
0001C0
000380
000700
000000
000000
000000
070FF0
071FF8
073FFC
0F787C
0FE03C
0FC03C
0F803C
0F003C
1F003C
1E003C
1E003C
1E0078
1C0078
3C0078
3C0078
3C0070
3C00F0
7800F0
7800F0
7800F0
7801E0
7801E0
F001E0
F001E0
ENDCHAR
STARTCHAR 0145
ENCODING 325
SWIDTH 697 0
DWIDTH 31 0
BBX 29 42 2 -10
BITMAP
03C00038
03E00038
03E00078
03F00078
03F00078
07F00070
07780070
073800F0
073800F0
073C00E0
0F1C00E0
0F1E00E0
0E1E01E0
0E0E01E0
0E0F01C0
1E0701C0
1E0783C0
1C0783C0
1C0383C0
3C03C380
3C03C380
3C01C780
3801E780
3800E780
7800F700
7800F700
70007700
70007F00
70003E00
F0003E00
F0003E00
E0001E00
00000000
00000000
00000000
00780000
00700000
00F00000
00E00000
01C00000
01C00000
03800000
ENDCHAR
STARTCHAR 0146
ENCODING 326
SWIDTH 562 0
DWIDTH 25 0
BBX 22 34 1 -10
BITMAP
070FF0
071FF8
073FFC
0F787C
0FE03C
0FC03C
0F803C
0F003C
1F003C
1E003C
1E003C
1E0078
1C0078
3C0078
3C0078
3C0070
3C00F0
7800F0
7800F0
7800F0
7801E0
7801E0
F001E0
F001E0
000000
000000
000000
00E000
01E000
01C000
038000
038000
070000
060000
ENDCHAR
STARTCHAR 0147
ENCODING 327
SWIDTH 697 0
DWIDTH 31 0
BBX 29 42 2 0
BITMAP
000701E0
00038380
0003C700
0001CE00
0000FC00
0000FC00
00007800
00000000
00000000
00000000
03C00038
03E00038
03E00078
03F00078
03F00078
07F00070
07780070
073800F0
073800F0
073C00E0
0F1C00E0
0F1E00E0
0E1E01E0
0E0E01E0
0E0F01C0
1E0701C0
1E0783C0
1C0783C0
1C0383C0
3C03C380
3C03C380
3C01C780
3801E780
3800E780
7800F700
7800F700
70007700
70007F00
70003E00
F0003E00
F0003E00
E0001E00
ENDCHAR
STARTCHAR 0148
ENCODING 328
SWIDTH 562 0
DWIDTH 25 0
BBX 23 34 1 0
BITMAP
00300E
00383C
001C78
001EF0
000FE0
0007C0
000780
000000
000000
000000
070FF0
071FF8
073FFC
0F787C
0FE03C
0FC03C
0F803C
0F003C
1F003C
1E003C
1E003C
1E0078
1C0078
3C0078
3C0078
3C0070
3C00F0
7800F0
7800F0
7800F0
7801E0
7801E0
F001E0
F001E0
ENDCHAR
STARTCHAR 0149
ENCODING 329
SWIDTH 630 0
DWIDTH 28 0
BBX 25 32 2 0
BITMAP
0F000000
0F000000
0F000000
1E000000
1E000000
3C000000
3C000000
38000000
71E1FC00
71E7FE00
E1CFFF00
01DE0F00
01F80F80
03F00780
03F00780
03E00700
03C00F00
03C00F00
07800F00
07800F00
07800E00
07801E00
0F001E00
0F001E00
0F001E00
0F003C00
0F003C00
1E003C00
1E003C00
1E003C00
1E007800
1C007800
ENDCHAR
STARTCHAR 014A
ENCODING 330
SWIDTH 697 0
DWIDTH 31 0
BBX 29 40 2 -8
BITMAP
03C00038
03E00038
03E00078
03F00078
03F00078
07F00070
07780070
073800F0
073C00F0
073C00E0
0F1C00E0
0F1E01E0
0E0E01E0
0E0E01E0
0E0F01C0
1E0701C0
1E0783C0
1C0783C0
1C0383C0
3C03C380
3C01C380
3C01E780
3801E780
3800E780
7800F700
78007700
70007700
70007F00
70003E00
F0003E00
F0001E00
E0001E00
00001E00
00001C00
00003C00
00007C00
0000F800
003FF000
003FE000
003FC000
ENDCHAR
STARTCHAR 014B
ENCODING 331
SWIDTH 562 0
DWIDTH 25 0
BBX 22 35 1 -11
BITMAP
0707E0
071FF8
073FF8
07787C
0FE03C
0FC03C
0F803C
0F003C
0F003C
1E003C
1E0038
1E0038
1C0078
3C0078
3C0078
3C0070
3800F0
3800F0
7800F0
7800E0
7800E0
7001E0
7001E0
F001E0
0001C0
0001C0
0003C0
0003C0
0003C0
000780
000780
009F00
00FF00
00FE00
007000
ENDCHAR
STARTCHAR 014C
ENCODING 332
SWIDTH 720 0
DWIDTH 32 0
BBX 28 38 3 0
BITMAP
000FFF00
000FFF00
000FFF00
00000000
00000000
00000000
000FF800
007FFE00
00FFFF00
01F81F80
03E007C0
078003C0
0F8003E0
1F0001E0
1E0001E0
3C0001E0
3C0000F0
3C0000F0
780000F0
780000F0
780000F0
780001E0
F00001E0
F00001E0
F00001E0
F00001E0
F00003C0
F00003C0
F00007C0
78000780
78000F80
78000F00
3C001F00
3E007E00
1F80FC00
0FFFF800
07FFE000
01FF8000
ENDCHAR
STARTCHAR 014D
ENCODING 333
SWIDTH 562 0
DWIDTH 25 0
BBX 21 30 2 0
BITMAP
01FFE0
01FFE0
01FFE0
000000
000000
000000
007F00
01FFC0
07FFE0
0F81E0
1F00F0
1E00F0
3C0078
3C0078
780078
780078
700078
700078
F00078
F00070
F000F0
F000F0
F000E0
F001E0
7003E0
7803C0
7C0F80
3FFF00
1FFE00
07F800
ENDCHAR
STARTCHAR 014E
ENCODING 334
SWIDTH 720 0
DWIDTH 32 0
BBX 28 41 3 0
BITMAP
000E0380
000E0300
000F0700
0007FE00
0007FE00
0001F800
00000000
00000000
00000000
000FF800
007FFE00
00FFFF00
01F81F80
03E007C0
078003C0
0F8003E0
1F0001E0
1E0001E0
3C0001E0
3C0000F0
3C0000F0
780000F0
780000F0
780000F0
780001E0
F00001E0
F00001E0
F00001E0
F00001E0
F00003C0
F00003C0
F00007C0
78000780
78000F80
78000F00
3C001F00
3E007E00
1F80FC00
0FFFF800
07FFE000
01FF8000
ENDCHAR
STARTCHAR 014F
ENCODING 335
SWIDTH 562 0
DWIDTH 25 0
BBX 21 33 2 0
BITMAP
00C030
01C070
00E0E0
00FFE0
007FC0
003F00
000000
000000
000000
007F00
01FFC0
07FFE0
0F81E0
1F00F0
1E00F0
3C0078
3C0078
780078
780078
700078
700078
F00078
F00070
F000F0
F000F0
F000E0
F001E0
7003E0
7803C0
7C0F80
3FFF00
1FFE00
07F800
ENDCHAR
STARTCHAR 0150
ENCODING 336
SWIDTH 720 0
DWIDTH 32 0
BBX 29 42 3 0
BITMAP
00007878
000070F0
0000F1E0
0001E1C0
0003C380
00070700
00060E00
00000000
00000000
00000000
000FF800
007FFE00
00FFFF00
01F81F80
03E007C0
078003C0
0F8003E0
1F0001E0
1E0001E0
3C0001E0
3C0000F0
3C0000F0
780000F0
780000F0
780000F0
780001E0
F00001E0
F00001E0
F00001E0
F00001E0
F00003C0
F00003C0
F00007C0
78000780
78000F80
78000F00
3C001F00
3E007E00
1F80FC00
0FFFF800
07FFE000
01FF8000
ENDCHAR
STARTCHAR 0151
ENCODING 337
SWIDTH 562 0
DWIDTH 25 0
BBX 24 34 2 0
BITMAP
000F0F
000F1E
001E3C
003C38
007870
0070E0
00C1C0
000000
000000
000000
007F00
01FFC0
07FFE0
0F81E0
1F00F0
1E00F0
3C0078
3C0078
780078
780078
700078
700078
F00078
F00070
F000F0
F000F0
F000E0
F001E0
7003E0
7803C0
7C0F80
3FFF00
1FFE00
07F800
ENDCHAR
STARTCHAR 0152
ENCODING 338
SWIDTH 855 0
DWIDTH 38 0
BBX 37 32 3 0
BITMAP
000FFFFFF8
007FFFFFF8
00FFFFFFF8
01F80FFFF0
03E00F0000
07C00E0000
0F000E0000
1F001E0000
1E001E0000
3C001E0000
3C001C0000
3C003C0000
78003C0000
78003C0000
78003FFF80
78003FFF80
F0007FFF80
F000780000
F000780000
F000700000
F000700000
F000F00000
F000F00000
7800F00000
7800E00000
7801E00000
3C01E00000
3E01E00000
1F81E00000
0FFFFFFE00
07FFFFFE00
01FFFFFC00
ENDCHAR
STARTCHAR 0153
ENCODING 339
SWIDTH 855 0
DWIDTH 38 0
BBX 35 24 2 0
BITMAP
007F007F00
01FFC1FFC0
07FFE3FFE0
0F81E7C1E0
1F00FF00E0
1E007E00E0
3C007E00E0
3C007C01E0
78007C03C0
78007807C0
700078FF80
70007FFE00
F0007FF800
F0007E0000
F000F00000
F000F00000
F000F00000
F001F00000
7003F80000
7803F80000
7C0FBC0300
3FFF1FFF00
1FFE1FFF00
07F807FE00
ENDCHAR
STARTCHAR 0154
ENCODING 340
SWIDTH 562 0
DWIDTH 25 0
BBX 23 42 2 0
BITMAP
00003E
00007C
000078
0000F0
0001E0
0003C0
000700
000000
000000
000000
01FF00
03FFF0
03FFF8
03C7FC
03803E
07801E
07801E
07801E
07801E
07001E
0F001E
0F001E
0F003C
0E007C
0E00F8
1E07F0
1FFFE0
1FFF80
1FFE00
3C0F00
3C0F00
3C0780
3C0780
380780
7803C0
7803C0
7801C0
7001E0
7001E0
F000F0
F000F0
F000F0
ENDCHAR
STARTCHAR 0155
ENCODING 341
SWIDTH 382 0
DWIDTH 17 0
BBX 19 34 1 0
BITMAP
0001E0
0003C0
000780
000700
000E00
001C00
003800
000000
000000
000000
070FC0
071FC0
073F80
077800
0FE000
0FC000
0F8000
0F0000
0F0000
1E0000
1E0000
1E0000
1C0000
3C0000
3C0000
3C0000
380000
380000
780000
780000
780000
700000
700000
F00000
ENDCHAR
STARTCHAR 0156
ENCODING 342
SWIDTH 562 0
DWIDTH 25 0
BBX 23 42 2 -10
BITMAP
01FF00
03FFF0
03FFF8
03C7FC
03803E
07801E
07801E
07801E
07801E
07001E
0F001E
0F001E
0F003C
0E007C
0E00F8
1E07F0
1FFFE0
1FFF80
1FFE00
3C0F00
3C0F00
3C0780
3C0780
380780
7803C0
7803C0
7801C0
7001E0
7001E0
F000F0
F000F0
F000F0
000000
000000
000000
01E000
01C000
03C000
038000
070000
060000
0E0000
ENDCHAR
STARTCHAR 0157
ENCODING 343
SWIDTH 382 0
DWIDTH 17 0
BBX 21 34 -2 -10
BITMAP
00E1F8
00E3F8
00E7F0
00EF00
01FC00
01F800
01F000
01E000
01E000
03C000
03C000
03C000
038000
078000
078000
078000
070000
070000
0F0000
0F0000
0F0000
0E0000
0E0000
1E0000
000000
000000
000000
1E0000
1C0000
1C0000
380000
300000
700000
E00000
ENDCHAR
STARTCHAR 0158
ENCODING 344
SWIDTH 562 0
DWIDTH 25 0
BBX 23 42 2 0
BITMAP
00380E
001C1C
001C38
000E70
000FE0
0007C0
0007C0
000000
000000
000000
01FF00
03FFF0
03FFF8
03C7FC
03803E
07801E
07801E
07801E
07801E
07001E
0F001E
0F001E
0F003C
0E007C
0E00F8
1E07F0
1FFFE0
1FFF80
1FFE00
3C0F00
3C0F00
3C0780
3C0780
380780
7803C0
7803C0
7801C0
7001E0
7001E0
F000F0
F000F0
F000F0
ENDCHAR
STARTCHAR 0159
ENCODING 345
SWIDTH 382 0
DWIDTH 17 0
BBX 20 34 1 0
BITMAP
018070
01C0E0
00E3C0
007780
007F00
003E00
003C00
000000
000000
000000
070FC0
071FC0
073F80
077800
0FE000
0FC000
0F8000
0F0000
0F0000
1E0000
1E0000
1E0000
1C0000
3C0000
3C0000
3C0000
380000
380000
780000
780000
780000
700000
700000
F00000
ENDCHAR
STARTCHAR 015A
ENCODING 346
SWIDTH 495 0
DWIDTH 22 0
BBX 22 42 1 0
BITMAP
00007C
0000F8
0000F0
0001E0
0003C0
000780
000E00
000000
000000
000000
003FE0
00FFFC
03FFFC
07E078
07C008
0F8000
0F0000
0F0000
0F0000
0F0000
0F0000
0F0000
0F8000
07E000
03F000
01FC00
007E00
003F80
000F80
0007C0
0003C0
0001E0
0001E0
0001E0
0001E0
0001C0
0003C0
0007C0
E01F80
FFFF00
FFFE00
7FF800
ENDCHAR
STARTCHAR 015B
ENCODING 347
SWIDTH 427 0
DWIDTH 19 0
BBX 19 34 0 0
BITMAP
0001E0
0003C0
000780
000F00
000E00
001C00
003800
000000
000000
000000
01FF00
07FFC0
0FFFC0
0F0180
1E0000
1E0000
1E0000
1E0000
1F0000
0F8000
07E000
03F000
01FC00
007E00
003E00
000F00
000F00
000F00
000F00
000F00
C01E00
FFFE00
FFFC00
7FF000
ENDCHAR
STARTCHAR 015C
ENCODING 348
SWIDTH 495 0
DWIDTH 22 0
BBX 22 42 1 0
BITMAP
0007C0
0007C0
000FC0
001EE0
0038F0
007070
00E038
000000
000000
000000
003FE0
00FFFC
03FFFC
07E078
07C008
0F8000
0F0000
0F0000
0F0000
0F0000
0F0000
0F0000
0F8000
07E000
03F000
01FC00
007E00
003F80
000F80
0007C0
0003C0
0001E0
0001E0
0001E0
0001E0
0001C0
0003C0
0007C0
E01F80
FFFF00
FFFE00
7FF800
ENDCHAR
STARTCHAR 015D
ENCODING 349
SWIDTH 427 0
DWIDTH 19 0
BBX 19 34 0 0
BITMAP
001E00
003F00
007F00
00F780
01E380
03C1C0
0700E0
000000
000000
000000
01FF00
07FFC0
0FFFC0
0F0180
1E0000
1E0000
1E0000
1E0000
1F0000
0F8000
07E000
03F000
01FC00
007E00
003E00
000F00
000F00
000F00
000F00
000F00
C01E00
FFFE00
FFFC00
7FF000
ENDCHAR
STARTCHAR 015E
ENCODING 350
SWIDTH 495 0
DWIDTH 22 0
BBX 22 43 1 -11
BITMAP
003FE0
00FFFC
03FFFC
07E078
07C008
0F8000
0F0000
0F0000
0F0000
0F0000
0F0000
0F0000
0F8000
07E000
03F000
01FC00
007E00
003F80
000F80
0007C0
0003C0
0001E0
0001E0
0001E0
0001E0
0001C0
0003C0
0007C0
E01F80
FFFF00
FFFE00
7FF800
018000
038000
030000
07C000
01E000
00E000
00E000
01E000
3FC000
3F8000
1E0000
ENDCHAR
STARTCHAR 015F
ENCODING 351
SWIDTH 427 0
DWIDTH 19 0
BBX 18 35 0 -11
BITMAP
01FF00
07FFC0
0FFFC0
0F0180
1E0000
1E0000
1E0000
1E0000
1F0000
0F8000
07E000
03F000
01FC00
007E00
003E00
000F00
000F00
000F00
000F00
000F00
C01E00
FFFE00
FFFC00
7FF000
030000
070000
060000
0F8000
03C000
01C000
01C000
01C000
3F8000
3F0000
3C0000
ENDCHAR
STARTCHAR 0160
ENCODING 352
SWIDTH 495 0
DWIDTH 22 0
BBX 23 42 1 0
BITMAP
00701E
00383C
003C70
001CE0
000FC0
000FC0
000780
000000
000000
000000
003FE0
00FFFC
03FFFC
07E078
07C008
0F8000
0F0000
0F0000
0F0000
0F0000
0F0000
0F0000
0F8000
07E000
03F000
01FC00
007E00
003F80
000F80
0007C0
0003C0
0001E0
0001E0
0001E0
0001E0
0001C0
0003C0
0007C0
E01F80
FFFF00
FFFE00
7FF800
ENDCHAR
STARTCHAR 0161
ENCODING 353
SWIDTH 427 0
DWIDTH 19 0
BBX 20 34 0 0
BITMAP
018070
01C0E0
00E3C0
007780
007F00
003E00
003C00
000000
000000
000000
01FF00
07FFC0
0FFFC0
0F0180
1E0000
1E0000
1E0000
1E0000
1F0000
0F8000
07E000
03F000
01FC00
007E00
003E00
000F00
000F00
000F00
000F00
000F00
C01E00
FFFE00
FFFC00
7FF000
ENDCHAR
STARTCHAR 0162
ENCODING 354
SWIDTH 495 0
DWIDTH 22 0
BBX 23 43 3 -11
BITMAP
3FFFFE
7FFFFE
7FFFFE
7FFFFC
003800
007800
007800
007800
007800
007000
00F000
00F000
00F000
00E000
00E000
01E000
01E000
01E000
01C000
03C000
03C000
03C000
03C000
038000
078000
078000
078000
078000
070000
0F0000
0F0000
0F0000
060000
0C0000
1C0000
1F0000
070000
038000
038000
070000
FF0000
FE0000
700000
ENDCHAR
STARTCHAR 0163
ENCODING 355
SWIDTH 315 0
DWIDTH 14 0
BBX 15 40 1 -11
BITMAP
00C0
01C0
0380
0380
0780
1FFE
7FFE
7FFE
0700
0F00
0F00
0F00
0E00
0E00
1E00
1E00
1E00
1C00
3C00
3C00
3C00
3800
3800
3800
3800
3C00
3FE0
3FE0
1FE0
0E00
0C00
1C00
1F00
0700
0380
0380
0700
FF00
FE00
F000
ENDCHAR
STARTCHAR 0164
ENCODING 356
SWIDTH 495 0
DWIDTH 22 0
BBX 22 42 4 0
BITMAP
038070
01C1E0
00E3C0
00F780
007F00
007E00
003C00
000000
000000
000000
7FFFFC
FFFFFC
FFFFFC
FFFFF8
007000
00F000
00F000
00F000
00F000
00E000
01E000
01E000
01E000
01C000
01C000
03C000
03C000
03C000
038000
078000
078000
078000
078000
070000
0F0000
0F0000
0F0000
0F0000
0E0000
1E0000
1E0000
1E0000
ENDCHAR
STARTCHAR 0165
ENCODING 357
SWIDTH 315 0
DWIDTH 14 0
BBX 17 34 2 0
BITMAP
000380
000780
000700
000F00
000E00
019C00
039800
070000
070000
0F0000
3FFC00
FFFC00
FFFC00
0E0000
1E0000
1E0000
1E0000
1C0000
1C0000
3C0000
3C0000
3C0000
380000
780000
780000
780000
700000
700000
700000
700000
780000
7FC000
7FC000
3FC000
ENDCHAR
STARTCHAR 0166
ENCODING 358
SWIDTH 495 0
DWIDTH 22 0
BBX 22 32 4 0
BITMAP
7FFFFC
FFFFFC
FFFFFC
FFFFF8
007000
00F000
00F000
00F000
00F000
00E000
01E000
01E000
01E000
01C000
FFFF80
FFFF00
FFFF00
03C000
038000
078000
078000
078000
078000
070000
0F0000
0F0000
0F0000
0F0000
0E0000
1E0000
1E0000
1E0000
ENDCHAR
STARTCHAR 0167
ENCODING 359
SWIDTH 315 0
DWIDTH 14 0
BBX 15 29 1 0
BITMAP
00C0
01C0
0380
0380
0780
1FFE
7FFE
7FFE
0700
0F00
0F00
0F00
0E00
1E00
FFF0
FFF0
1C00
1C00
3C00
3C00
3C00
3800
3800
3800
3800
3C00
3FE0
3FE0
1FE0
ENDCHAR
STARTCHAR 0168
ENCODING 360
SWIDTH 675 0
DWIDTH 30 0
BBX 27 41 4 0
BITMAP
00000380
001F8300
003FC700
007FFE00
0060FE00
00607800
00000000
00000000
00000000
0F0001E0
0F0001C0
0E0003C0
1E0003C0
1E0003C0
1E0003C0
1E000380
1C000780
3C000780
3C000780
3C000700
38000700
38000F00
78000F00
78000F00
78000E00
70001E00
F0001E00
F0001E00
F0001E00
F0001C00
E0003C00
E0003C00
E0003C00
E0007800
E0007800
F000F000
F801F000
7C07E000
7FFFC000
3FFF8000
0FFE0000
ENDCHAR
STARTCHAR 0169
ENCODING 361
SWIDTH 562 0
DWIDTH 25 0
BBX 22 33 2 0
BITMAP
00100C
007E0C
00FF1C
01FFF8
0183F8
0181E0
000000
000000
000000
0F001C
0E003C
0E003C
1E003C
1E0038
1E0038
1C0078
3C0078
3C0078
3C0070
3C0070
3800F0
7800F0
7800E0
7801E0
7001E0
7003E0
F003E0
F007C0
F00FC0
781DC0
7FF9C0
3FF3C0
1FC380
ENDCHAR
STARTCHAR 016A
ENCODING 362
SWIDTH 675 0
DWIDTH 30 0
BBX 27 38 4 0
BITMAP
003FFC00
003FFC00
003FFC00
00000000
00000000
00000000
0F0001E0
0F0001C0
0E0003C0
1E0003C0
1E0003C0
1E0003C0
1E000380
1C000780
3C000780
3C000780
3C000700
38000700
38000F00
78000F00
78000F00
78000E00
70001E00
F0001E00
F0001E00
F0001E00
F0001C00
E0003C00
E0003C00
E0003C00
E0007800
E0007800
F000F000
F801F000
7C07E000
7FFFC000
3FFF8000
0FFE0000
ENDCHAR
STARTCHAR 016B
ENCODING 363
SWIDTH 562 0
DWIDTH 25 0
BBX 22 30 2 0
BITMAP
00FFF0
00FFF0
00FFF0
000000
000000
000000
0F001C
0E003C
0E003C
1E003C
1E0038
1E0038
1C0078
3C0078
3C0078
3C0070
3C0070
3800F0
7800F0
7800E0
7801E0
7001E0
7003E0
F003E0
F007C0
F00FC0
781DC0
7FF9C0
3FF3C0
1FC380
ENDCHAR
STARTCHAR 016C
ENCODING 364
SWIDTH 675 0
DWIDTH 30 0
BBX 27 41 4 0
BITMAP
00380600
00380E00
001C1C00
001FFC00
000FF800
0007E000
00000000
00000000
00000000
0F0001E0
0F0001C0
0E0003C0
1E0003C0
1E0003C0
1E0003C0
1E000380
1C000780
3C000780
3C000780
3C000700
38000700
38000F00
78000F00
78000F00
78000E00
70001E00
F0001E00
F0001E00
F0001E00
F0001C00
E0003C00
E0003C00
E0003C00
E0007800
E0007800
F000F000
F801F000
7C07E000
7FFFC000
3FFF8000
0FFE0000
ENDCHAR
STARTCHAR 016D
ENCODING 365
SWIDTH 562 0
DWIDTH 25 0
BBX 22 33 2 0
BITMAP
00E018
00E038
007070
007FF0
003FE0
001F80
000000
000000
000000
0F001C
0E003C
0E003C
1E003C
1E0038
1E0038
1C0078
3C0078
3C0078
3C0070
3C0070
3800F0
7800F0
7800E0
7801E0
7001E0
7003E0
F003E0
F007C0
F00FC0
781DC0
7FF9C0
3FF3C0
1FC380
ENDCHAR
STARTCHAR 016E
ENCODING 366
SWIDTH 675 0
DWIDTH 30 0
BBX 27 44 4 0
BITMAP
0003E000
000FF000
000C3800
001C1800
001C1800
000C1800
000E3800
000FF000
0003E000
00000000
00000000
00000000
0F0001E0
0F0001C0
0E0003C0
1E0003C0
1E0003C0
1E0003C0
1E000380
1C000780
3C000780
3C000780
3C000700
38000700
38000F00
78000F00
78000F00
78000E00
70001E00
F0001E00
F0001E00
F0001E00
F0001C00
E0003C00
E0003C00
E0003C00
E0007800
E0007800
F000F000
F801F000
7C07E000
7FFFC000
3FFF8000
0FFE0000
ENDCHAR
STARTCHAR 016F
ENCODING 367
SWIDTH 562 0
DWIDTH 25 0
BBX 22 36 2 0
BITMAP
000F80
003FC0
0030E0
003060
007060
003060
0038E0
003FC0
000F80
000000
000000
000000
0F001C
0E003C
0E003C
1E003C
1E0038
1E0038
1C0078
3C0078
3C0078
3C0070
3C0070
3800F0
7800F0
7800E0
7801E0
7001E0
7003E0
F003E0
F007C0
F00FC0
781DC0
7FF9C0
3FF3C0
1FC380
ENDCHAR
STARTCHAR 0170
ENCODING 368
SWIDTH 675 0
DWIDTH 30 0
BBX 27 42 4 0
BITMAP
0001E1E0
0001E3C0
0003C380
00078700
000F0E00
000E1C00
00183800
00000000
00000000
00000000
0F0001E0
0F0001C0
0E0003C0
1E0003C0
1E0003C0
1E0003C0
1E000380
1C000780
3C000780
3C000780
3C000700
38000700
38000F00
78000F00
78000F00
78000E00
70001E00
F0001E00
F0001E00
F0001E00
F0001C00
E0003C00
E0003C00
E0003C00
E0007800
E0007800
F000F000
F801F000
7C07E000
7FFFC000
3FFF8000
0FFE0000
ENDCHAR
STARTCHAR 0171
ENCODING 369
SWIDTH 562 0
DWIDTH 25 0
BBX 25 34 2 0
BITMAP
00078780
00078F00
000F1E00
001E1C00
003C3800
00387000
0060E000
00000000
00000000
00000000
0F001C00
0E003C00
0E003C00
1E003C00
1E003800
1E003800
1C007800
3C007800
3C007800
3C007000
3C007000
3800F000
7800F000
7800E000
7801E000
7001E000
7003E000
F003E000
F007C000
F00FC000
781DC000
7FF9C000
3FF3C000
1FC38000
ENDCHAR
STARTCHAR 0172
ENCODING 370
SWIDTH 675 0
DWIDTH 30 0
BBX 27 42 4 -10
BITMAP
0F0001E0
0F0001C0
0E0003C0
1E0003C0
1E0003C0
1E0003C0
1E000380
1C000780
3C000780
3C000780
3C000700
38000700
38000F00
78000F00
78000F00
78000E00
70001E00
F0001E00
F0001E00
F0001E00
F0001C00
E0003C00
E0003C00
E0003C00
E0007800
E0007800
F000F000
F801F000
7C07E000
7FFFC000
3FFF8000
0FFE0000
00700000
00E00000
01C00000
03800000
07000000
07000000
07000000
07E00000
03E00000
00E00000
ENDCHAR
STARTCHAR 0173
ENCODING 371
SWIDTH 562 0
DWIDTH 25 0
BBX 22 34 2 -10
BITMAP
0F001C
0E003C
0E003C
1E003C
1E0038
1E0038
1C0078
3C0078
3C0078
3C0070
3C0070
3800F0
7800F0
7800E0
7801E0
7001E0
7003E0
F003E0
F007C0
F00FC0
781DC0
7FF9C0
3FF3C0
1FC380
000300
000E00
001C00
003800
003800
003800
003800
003F00
003F00
000E00
ENDCHAR
STARTCHAR 0174
ENCODING 372
SWIDTH 832 0
DWIDTH 37 0
BBX 37 42 5 0
BITMAP
00003C0000
00007C0000
0000FE0000
0001EE0000
0003C70000
0007070000
000E038000
0000000000
0000000000
0000000000
E000F00078
E000F000F0
F001F000F0
F001F001E0
F003F001E0
F003F003C0
F007F003C0
F007700380
F007780780
F00E780700
F00E780F00
F01C380F00
F01C381E00
F03C381E00
F038381C00
7078383C00
7070383800
70F0387800
70E0387000
71E038F000
71C038E000
73C038E000
738039E000
738039C000
77003BC000
77003B8000
7F003B8000
7E003F0000
7E003F0000
7C003E0000
7C003E0000
78003C0000
ENDCHAR
STARTCHAR 0175
ENCODING 373
SWIDTH 697 0
DWIDTH 31 0
BBX 30 34 3 0
BITMAP
0003C000
0003E000
0007E000
000E7000
001C7800
00383800
00701C00
00000000
00000000
00000000
E007803C
E00F803C
E00F8038
E01F8078
E01F8070
E03B80F0
E03B80F0
E07B81E0
E07381E0
E0F383C0
E0E383C0
E0E38380
E1C3C780
E1C3C700
E381CF00
E381CE00
E701DE00
E701DC00
EE01DC00
EE01FC00
EC01F800
FC01F800
7C01F000
7801F000
ENDCHAR
STARTCHAR 0176
ENCODING 374
SWIDTH 495 0
DWIDTH 22 0
BBX 22 42 4 0
BITMAP
001E00
003E00
007F00
00F700
01E380
03C1C0
0700C0
000000
000000
000000
F0003C
F0003C
700078
7800F0
7800F0
7801E0
3803C0
3C03C0
3C0780
1C0F00
1C0F00
1E1E00
1E3C00
0E3C00
0E7800
0EF000
0FE000
07E000
07C000
078000
078000
078000
070000
070000
0F0000
0F0000
0F0000
0E0000
0E0000
1E0000
1E0000
1E0000
ENDCHAR
STARTCHAR 0177
ENCODING 375
SWIDTH 450 0
DWIDTH 20 0
BBX 26 45 -4 -11
BITMAP
0001E000
0001F000
0003F000
00073800
000E3C00
001C1C00
00380E00
00000000
00000000
00000000
03C001C0
03C003C0
03C00380
01C00780
01C00F00
01C00F00
01E01E00
01E01E00
01E03C00
00E03C00
00E07800
00E07000
00E0F000
00F0E000
00F1E000
00F1C000
0073C000
00738000
00778000
00770000
007F0000
007E0000
007C0000
003C0000
00380000
00780000
00700000
00F00000
01E00000
01E00000
03C00000
8F800000
FF000000
FE000000
78000000
ENDCHAR
STARTCHAR 0178
ENCODING 376
SWIDTH 495 0
DWIDTH 22 0
BBX 22 40 4 0
BITMAP
01C1C0
01E1E0
01C1C0
01C1C0
000000
000000
000000
000000
F0003C
F0003C
700078
7800F0
7800F0
7801E0
3803C0
3C03C0
3C0780
1C0F00
1C0F00
1E1E00
1E3C00
0E3C00
0E7800
0EF000
0FE000
07E000
07C000
078000
078000
078000
070000
070000
0F0000
0F0000
0F0000
0E0000
0E0000
1E0000
1E0000
1E0000
ENDCHAR
STARTCHAR 0179
ENCODING 377
SWIDTH 517 0
DWIDTH 23 0
BBX 25 42 0 0
BITMAP
00001F00
00003E00
00003C00
00007800
0000F000
0001E000
00038000
00000000
00000000
00000000
01FFFF80
03FFFF80
03FFFF80
03FFFF80
00000F00
00001E00
00003C00
00007C00
0000F800
0000F000
0001E000
0003C000
0007C000
000F8000
000F0000
001E0000
003C0000
007C0000
00780000
00F00000
01E00000
03C00000
07C00000
07800000
0F000000
1E000000
3C000000
7C000000
78000000
FFFFF000
FFFFF000
FFFFE000
ENDCHAR
STARTCHAR 017A
ENCODING 378
SWIDTH 427 0
DWIDTH 19 0
BBX 21 34 -1 0
BITMAP
0000F8
0000F0
0001E0
0003C0
000780
000700
000E00
000000
000000
000000
03FFF0
03FFF0
03FFF0
0000F0
0001E0
0003C0
000780
000F00
001F00
001E00
003C00
007800
00F000
01E000
01E000
03C000
078000
0F0000
1E0000
3C0000
3C0000
7FFF80
7FFF00
FFFF00
ENDCHAR
STARTCHAR 017B
ENCODING 379
SWIDTH 517 0
DWIDTH 23 0
BBX 25 41 0 0
BITMAP
00004000
0001E000
0001E000
0001E000
0000C000
00000000
00000000
00000000
00000000
01FFFF80
03FFFF80
03FFFF80
03FFFF80
00000F00
00001E00
00003C00
00007C00
0000F800
0000F000
0001E000
0003C000
0007C000
000F8000
000F0000
001E0000
003C0000
007C0000
00780000
00F00000
01E00000
03C00000
07C00000
07800000
0F000000
1E000000
3C000000
7C000000
78000000
FFFFF000
FFFFF000
FFFFE000
ENDCHAR
STARTCHAR 017C
ENCODING 380
SWIDTH 427 0
DWIDTH 19 0
BBX 20 33 -1 0
BITMAP
000300
000780
000F80
000F80
000700
000000
000000
000000
000000
03FFF0
03FFF0
03FFF0
0000F0
0001E0
0003C0
000780
000F00
001F00
001E00
003C00
007800
00F000
01E000
01E000
03C000
078000
0F0000
1E0000
3C0000
3C0000
7FFF80
7FFF00
FFFF00
ENDCHAR
STARTCHAR 017D
ENCODING 381
SWIDTH 517 0
DWIDTH 23 0
BBX 25 42 0 0
BITMAP
001C0780
000E0F00
000F1C00
00073800
0003F000
0003F000
0001E000
00000000
00000000
00000000
01FFFF80
03FFFF80
03FFFF80
03FFFF80
00000F00
00001E00
00003C00
00007C00
0000F800
0000F000
0001E000
0003C000
0007C000
000F8000
000F0000
001E0000
003C0000
007C0000
00780000
00F00000
01E00000
03C00000
07C00000
07800000
0F000000
1E000000
3C000000
7C000000
78000000
FFFFF000
FFFFF000
FFFFE000
ENDCHAR
STARTCHAR 017E
ENCODING 382
SWIDTH 427 0
DWIDTH 19 0
BBX 22 34 -1 0
BITMAP
00E01C
007078
0038F0
003DE0
001FC0
001F80
000F00
000000
000000
000000
03FFF0
03FFF0
03FFF0
0000F0
0001E0
0003C0
000780
000F00
001F00
001E00
003C00
007800
00F000
01E000
01E000
03C000
078000
0F0000
1E0000
3C0000
3C0000
7FFF80
7FFF00
FFFF00
ENDCHAR
STARTCHAR 017F
ENCODING 383
SWIDTH 270 0
DWIDTH 12 0
BBX 25 45 -6 -11
BITMAP
00003F00
0000FF80
0001FF00
0003E000
0003C000
00078000
00078000
00078000
00070000
000F0000
000F0000
000F0000
000E0000
000E0000
001E0000
001E0000
001E0000
001C0000
001C0000
003C0000
003C0000
003C0000
00380000
00780000
00780000
00780000
00780000
00700000
00F00000
00F00000
00F00000
00E00000
00E00000
01E00000
01E00000
01E00000
01C00000
03C00000
03C00000
03C00000
07800000
9F800000
FF000000
FE000000
70000000
ENDCHAR
STARTCHAR 0192
ENCODING 402
SWIDTH 540 0
DWIDTH 24 0
BBX 24 43 0 -11
BITMAP
0000FF
0001FF
0003FF
0007C0
000780
000700
000F00
000F00
000F00
000E00
000E00
003FF0
01FFF0
01FFF0
001C00
001C00
003C00
003C00
003800
003800
007800
007800
007800
007000
007000
00F000
00F000
00F000
00E000
00E000
01E000
01E000
01E000
01C000
03C000
03C000
03C000
078000
078000
9F0000
FF0000
FE0000
780000
ENDCHAR
STARTCHAR 01A0
ENCODING 416
SWIDTH 697 0
DWIDTH 31 0
BBX 34 34 3 0
BITMAP
00000003C0
00000003C0
000FF80780
007FFE0780
00FFFF0F00
01F81F9F00
03E007FE00
078003F800
0F8003E000
1F0001E000
1E0001E000
3C0001E000
3C0000F000
3C0000F000
780000F000
780000F000
780000F000
780001E000
F00001E000
F00001E000
F00001E000
F00001E000
F00003C000
F00003C000
F00007C000
7800078000
78000F8000
78000F0000
3C001F0000
3E007E0000
1F80FC0000
0FFFF80000
07FFE00000
01FF800000
ENDCHAR
STARTCHAR 01A1
ENCODING 417
SWIDTH 562 0
DWIDTH 25 0
BBX 27 27 2 0
BITMAP
000001E0
000001E0
000001E0
007F03C0
01FFC3C0
07FFE780
0F81FE00
1F00FC00
1E00F000
3C007800
3C007800
78007800
78007800
70007800
70007800
F0007800
F0007000
F000F000
F000F000
F000E000
F001E000
7003E000
7803C000
7C0F8000
3FFF0000
1FFE0000
07F80000
ENDCHAR
STARTCHAR 01AF
ENCODING 431
SWIDTH 720 0
DWIDTH 32 0
BBX 34 34 4 0
BITMAP
00000003C0
00000003C0
0F0001E3C0
0F0001C780
0E0003C780
1E0003CF00
1E0003FE00
1E0003FC00
1E0003F000
1C00078000
3C00078000
3C00078000
3C00070000
3800070000
38000F0000
78000F0000
78000F0000
78000E0000
70001E0000
F0001E0000
F0001E0000
F0001E0000
F0001C0000
E0003C0000
E0003C0000
E0003C0000
E000780000
E000780000
F000F00000
F801F00000
7C07E00000
7FFFC00000
3FFF800000
0FFE000000
ENDCHAR
STARTCHAR 01B0
ENCODING 432
SWIDTH 607 0
DWIDTH 27 0
BBX 30 27 2 0
BITMAP
0000003C
0000003C
0000003C
0F001C78
0E003CF0
0E003DE0
1E003FC0
1E003F80
1E003C00
1C007800
3C007800
3C007800
3C007000
3C007000
3800F000
7800F000
7800E000
7801E000
7001E000
7003E000
F003E000
F007C000
F00FC000
781DC000
7FF9C000
3FF3C000
1FC38000
ENDCHAR
STARTCHAR 01EA
ENCODING 490
SWIDTH 720 0
DWIDTH 32 0
BBX 28 42 3 -10
BITMAP
000FF800
007FFE00
00FFFF00
01F81F80
03E007C0
078003C0
0F8003E0
1F0001E0
1E0001E0
3C0001E0
3C0000F0
3C0000F0
780000F0
780000F0
780000F0
780001E0
F00001E0
F00001E0
F00001E0
F00001E0
F00003C0
F00003C0
F00007C0
78000780
78000F80
78000F00
3C001F00
3E007E00
1F80FC00
0FFFF800
07FFE000
01FF8000
00180000
00700000
00E00000
01C00000
01C00000
01C00000
01C00000
01F80000
01F80000
00700000
ENDCHAR
STARTCHAR 01EB
ENCODING 491
SWIDTH 562 0
DWIDTH 25 0
BBX 21 34 2 -10
BITMAP
007F00
01FFC0
07FFE0
0F81E0
1F00F0
1E00F0
3C0078
3C0078
780078
780078
700078
700078
F00078
F00070
F000F0
F000F0
F000E0
F001E0
7003E0
7803C0
7C0F80
3FFF00
1FFE00
07F800
01C000
038000
070000
0E0000
0E0000
0E0000
0E0000
0FC000
0FC000
038000
ENDCHAR
STARTCHAR 01EC
ENCODING 492
SWIDTH 720 0
DWIDTH 32 0
BBX 28 48 3 -10
BITMAP
000FFF00
000FFF00
000FFF00
00000000
00000000
00000000
000FF800
007FFE00
00FFFF00
01F81F80
03E007C0
078003C0
0F8003E0
1F0001E0
1E0001E0
3C0001E0
3C0000F0
3C0000F0
780000F0
780000F0
780000F0
780001E0
F00001E0
F00001E0
F00001E0
F00001E0
F00003C0
F00003C0
F00007C0
78000780
78000F80
78000F00
3C001F00
3E007E00
1F80FC00
0FFFF800
07FFE000
01FF8000
00180000
00700000
00E00000
01C00000
01C00000
01C00000
01C00000
01F80000
01F80000
00700000
ENDCHAR
STARTCHAR 01ED
ENCODING 493
SWIDTH 562 0
DWIDTH 25 0
BBX 21 40 2 -10
BITMAP
01FFE0
01FFE0
01FFE0
000000
000000
000000
007F00
01FFC0
07FFE0
0F81E0
1F00F0
1E00F0
3C0078
3C0078
780078
780078
700078
700078
F00078
F00070
F000F0
F000F0
F000E0
F001E0
7003E0
7803C0
7C0F80
3FFF00
1FFE00
07F800
01C000
038000
070000
0E0000
0E0000
0E0000
0E0000
0FC000
0FC000
038000
ENDCHAR
STARTCHAR 01F0
ENCODING 496
SWIDTH 247 0
DWIDTH 11 0
BBX 23 45 -6 -11
BITMAP
00700E
00383C
001C78
001CF0
000FE0
000FC0
000780
000000
000000
000000
000F00
000F00
000E00
000E00
001E00
001E00
001E00
001C00
001C00
003C00
003C00
003C00
003800
003800
007800
007800
007000
007000
00F000
00F000
00F000
00E000
00E000
01E000
01E000
01E000
01C000
01C000
03C000
03C000
078000
DF8000
FF0000
FE0000
780000
ENDCHAR
STARTCHAR 01FA
ENCODING 506
SWIDTH 540 0
DWIDTH 24 0
BBX 27 43 -2 0
BITMAP
000003E0
000007C0
00000F80
00001E00
00003C00
00007800
00000000
00007000
0001FC00
00038E00
00030600
00030600
00030600
00030600
0003FE00
0001FC00
0003F800
0007B800
0007BC00
000F3C00
000F3C00
001E1C00
001E1C00
003C1C00
003C1C00
00781C00
00701E00
00F01E00
01E01E00
01E01E00
03FFFE00
03FFFE00
07FFFE00
07800F00
0F000F00
0F000F00
1E000F00
1C000F00
3C000700
78000700
78000700
F0000780
F0000780
ENDCHAR
STARTCHAR 01FB
ENCODING 507
SWIDTH 562 0
DWIDTH 25 0
BBX 22 43 2 0
BITMAP
00007C
0000F8
0000F0
0001E0
000380
000700
000000
000000
001F00
003FC0
0071C0
0060C0
0060E0
0060C0
0071C0
003F80
001F00
000000
000000
00FE1C
01FF1C
07FF9C
0FC1FC
0F00F8
1E00F8
3C00F8
3C0078
780070
7800F0
7800F0
7000F0
F000F0
F000E0
F001E0
F001E0
F003E0
F003E0
F007C0
F00FC0
781DC0
7FF9C0
3FF1C0
1FC380
ENDCHAR
STARTCHAR 01FC
ENCODING 508
SWIDTH 810 0
DWIDTH 36 0
BBX 40 42 -2 0
BITMAP
0000000F00
0000001E00
0000003C00
0000003800
0000007000
000000E000
000001C000
0000000000
0000000000
0000000000
00000FFFFF
00001FFFFF
00003FFFFF
00003FFFFF
000079E000
0000F1E000
0000F1C000
0001E3C000
0003C3C000
0003C3C000
000783C000
0007838000
000F078000
001E078000
001E07FFF0
003C07FFF0
007807FFF0
00780F0000
00F00F0000
01FFFF0000
01FFFE0000
03FFFE0000
03C01E0000
07801E0000
0F001E0000
0F001C0000
1E003C0000
3C003C0000
3C003C0000
78003FFFC0
F8003FFFC0
F0007FFFC0
ENDCHAR
STARTCHAR 01FD
ENCODING 509
SWIDTH 810 0
DWIDTH 36 0
BBX 33 34 2 0
BITMAP
000003C000
000007C000
0000078000
00000F0000
00001E0000
0000380000
0000700000
0000000000
0000000000
0000000000
00FC38FE00
03FE3BFF00
07FF37FF80
0FC3FF0780
0F01FE0380
1E01FC0380
3C00F80380
3C00F00780
7800F00780
7800E01F00
7801E7FE00
7001FFFC00
F001FFE000
F001F80000
F003E00000
F003C00000
F007E00000
F007E00000
F00FE00000
F01FF00000
783BF80E00
7FF37FFE00
3FE33FFE00
1FC31FF800
ENDCHAR
STARTCHAR 01FE
ENCODING 510
SWIDTH 720 0
DWIDTH 32 0
BBX 29 44 3 -2
BITMAP
00000780
00000F80
00000F00
00001E00
00003C00
00007800
0000F000
0000C000
00000000
00000020
000FF878
007FFCF0
00FFFFE0
01F81FC0
03E007C0
078007C0
0F000FE0
1F001FE0
1E003DE0
3C003DE0
3C0078E0
3C00F0F0
7801E0F0
7803C0F0
780780F0
700780E0
F00F01E0
F01E01E0
F03C01E0
F07801E0
F07803C0
F0F003C0
F1E003C0
7BC00780
7F800F80
7F000F00
3F001F00
3E007E00
3F80FC00
7FFFF800
F7FFE000
F1FF8000
E0000000
40000000
ENDCHAR
STARTCHAR 01FF
ENCODING 511
SWIDTH 562 0
DWIDTH 25 0
BBX 23 35 1 -2
BITMAP
00003C
000078
0000F8
0000E0
0001C0
000380
000700
000000
000000
00000C
003F9E
00FFFC
03FFF8
07C0F8
0F80F8
0F01F8
1E03FC
1C03BC
3C073C
3C0F3C
381E3C
383C3C
783838
787038
78E038
79E078
7BC070
7F80F0
3F00E0
3E01E0
3E07C0
3FFF80
7FFF00
F3FC00
600000
ENDCHAR
STARTCHAR 0218
ENCODING 536
SWIDTH 495 0
DWIDTH 22 0
BBX 22 42 1 -10
BITMAP
003FE0
00FFFC
03FFFC
07E078
07C008
0F8000
0F0000
0F0000
0F0000
0F0000
0F0000
0F0000
0F8000
07E000
03F000
01FC00
007E00
003F80
000F80
0007C0
0003C0
0001E0
0001E0
0001E0
0001E0
0001C0
0003C0
0007C0
E01F80
FFFF00
FFFE00
7FF800
000000
000000
000000
038000
078000
070000
070000
0E0000
1C0000
180000
ENDCHAR
STARTCHAR 0219
ENCODING 537
SWIDTH 427 0
DWIDTH 19 0
BBX 18 34 0 -10
BITMAP
01FF00
07FFC0
0FFFC0
0F0180
1E0000
1E0000
1E0000
1E0000
1F0000
0F8000
07E000
03F000
01FC00
007E00
003E00
000F00
000F00
000F00
000F00
000F00
C01E00
FFFE00
FFFC00
7FF000
000000
000000
000000
078000
070000
0F0000
0E0000
1C0000
1C0000
380000
ENDCHAR
STARTCHAR 021A
ENCODING 538
SWIDTH 495 0
DWIDTH 22 0
BBX 22 42 4 -10
BITMAP
7FFFFC
FFFFFC
FFFFFC
FFFFF8
007000
00F000
00F000
00F000
00F000
00E000
01E000
01E000
01E000
01C000
01C000
03C000
03C000
03C000
038000
078000
078000
078000
078000
070000
0F0000
0F0000
0F0000
0F0000
0E0000
1E0000
1E0000
1E0000
000000
000000
000000
1C0000
3C0000
380000
780000
700000
E00000
C00000
ENDCHAR
STARTCHAR 021B
ENCODING 539
SWIDTH 315 0
DWIDTH 14 0
BBX 14 39 2 -10
BITMAP
0180
0380
0700
0700
0F00
3FFC
FFFC
FFFC
0E00
1E00
1E00
1E00
1C00
1C00
3C00
3C00
3C00
3800
7800
7800
7800
7000
7000
7000
7000
7800
7FC0
7FC0
3FC0
0000
0000
0000
1C00
3C00
3800
7000
7000
E000
C000
ENDCHAR
STARTCHAR 0237
ENCODING 567
SWIDTH 247 0
DWIDTH 11 0
BBX 16 35 -6 -11
BITMAP
000F
000F
000E
000E
001E
001E
001E
001C
001C
003C
003C
003C
0038
0038
0078
0078
0070
0070
00F0
00F0
00F0
00E0
00E0
01E0
01E0
01E0
01C0
01C0
03C0
03C0
0780
DF80
FF00
FE00
7800
ENDCHAR
STARTCHAR 0259
ENCODING 601
SWIDTH 495 0
DWIDTH 22 0
BBX 19 24 1 0
BITMAP
03FC00
1FFF00
1FFF80
1C0780
0003C0
0003C0
0001E0
0001E0
0001E0
0001E0
0001E0
01FFE0
0FFFC0
1FFFC0
3E03C0
7803C0
700780
F00780
F00F00
F01F00
F03E00
7FFC00
7FF800
1FE000
ENDCHAR
STARTCHAR 02BC
ENCODING 700
SWIDTH 157 0
DWIDTH 7 0
BBX 8 11 3 21
BITMAP
0F
0F
1E
1E
1C
3C
38
78
70
E0
E0
ENDCHAR
STARTCHAR 02C6
ENCODING 710
SWIDTH 382 0
DWIDTH 17 0
BBX 13 7 5 27
BITMAP
03C0
07C0
0FE0
1EF0
3C70
7838
E018
ENDCHAR
STARTCHAR 02C7
ENCODING 711
SWIDTH 382 0
DWIDTH 17 0
BBX 14 7 6 27
BITMAP
E01C
7078
38F0
3DE0
1FC0
1F80
0F00
ENDCHAR
STARTCHAR 02C9
ENCODING 713
SWIDTH 337 0
DWIDTH 15 0
BBX 12 3 5 27
BITMAP
FFF0
FFF0
FFF0
ENDCHAR
STARTCHAR 02D8
ENCODING 728
SWIDTH 360 0
DWIDTH 16 0
BBX 13 6 6 27
BITMAP
C038
E030
E070
7FE0
7FC0
1F80
ENDCHAR
STARTCHAR 02D9
ENCODING 729
SWIDTH 157 0
DWIDTH 7 0
BBX 4 5 6 28
BITMAP
60
F0
F0
F0
E0
ENDCHAR
STARTCHAR 02DA
ENCODING 730
SWIDTH 292 0
DWIDTH 13 0
BBX 10 9 6 27
BITMAP
3F00
7F80
E180
C1C0
C1C0
C1C0
E380
7F80
3E00
ENDCHAR
STARTCHAR 02DB
ENCODING 731
SWIDTH 225 0
DWIDTH 10 0
BBX 7 10 -2 -10
BITMAP
0E
1C
38
70
E0
E0
E0
FC
7C
1C
ENDCHAR
STARTCHAR 02DC
ENCODING 732
SWIDTH 405 0
DWIDTH 18 0
BBX 16 6 5 27
BITMAP
0403
3F07
7FC6
7FFE
E1FC
C078
ENDCHAR
STARTCHAR 02DD
ENCODING 733
SWIDTH 405 0
DWIDTH 18 0
BBX 16 7 5 27
BITMAP
078F
0F0E
1E1E
1C3C
3878
70E0
E0C0
ENDCHAR
STARTCHAR 02F3
ENCODING 755
SWIDTH 315 0
DWIDTH 14 0
BBX 9 9 -1 -12
BITMAP
7E00
FF00
C380
C180
C180
C380
E380
7F00
3C00
ENDCHAR
STARTCHAR 0300
ENCODING 768
SWIDTH 0 0
DWIDTH 0 0
BBX 7 7 -16 27
BITMAP
F0
F0
70
78
38
1C
0E
ENDCHAR
STARTCHAR 0301
ENCODING 769
SWIDTH 0 0
DWIDTH 0 0
BBX 9 7 -10 27
BITMAP
0780
0F00
1E00
3C00
3800
7000
E000
ENDCHAR
STARTCHAR 0302
ENCODING 770
SWIDTH 0 0
DWIDTH 0 0
BBX 14 7 -4 27
BITMAP
03C0
07E0
07E0
0E70
1C78
3838
F01C
ENDCHAR
STARTCHAR 0303
ENCODING 771
SWIDTH 0 0
DWIDTH 0 0
BBX 16 6 -18 27
BITMAP
0807
3F06
7F8E
F7FE
E1FC
C070
ENDCHAR
STARTCHAR 0304
ENCODING 772
SWIDTH 0 0
DWIDTH 0 0
BBX 12 3 -3 27
BITMAP
7FF0
FFF0
FFF0
ENDCHAR
STARTCHAR 0306
ENCODING 774
SWIDTH 0 0
DWIDTH 0 0
BBX 12 6 -2 27
BITMAP
C030
C030
E0F0
FFE0
7FC0
1F00
ENDCHAR
STARTCHAR 0307
ENCODING 775
SWIDTH 0 0
DWIDTH 0 0
BBX 4 5 2 28
BITMAP
60
F0
F0
F0
E0
ENDCHAR
STARTCHAR 0308
ENCODING 776
SWIDTH 0 0
DWIDTH 0 0
BBX 12 4 -2 28
BITMAP
7070
F0F0
F0F0
6060
ENDCHAR
STARTCHAR 0309
ENCODING 777
SWIDTH 0 0
DWIDTH 0 0
BBX 8 10 -13 26
BITMAP
FE
FF
07
07
07
1E
7C
60
60
60
ENDCHAR
STARTCHAR 030A
ENCODING 778
SWIDTH 0 0
DWIDTH 0 0
BBX 10 9 -1 27
BITMAP
1F00
7F80
71C0
60C0
E0C0
60C0
71C0
7F80
1F00
ENDCHAR
STARTCHAR 030B
ENCODING 779
SWIDTH 0 0
DWIDTH 0 0
BBX 16 7 -3 27
BITMAP
078F
0F0F
1E1E
1C3C
3878
7060
E0C0
ENDCHAR
STARTCHAR 030C
ENCODING 780
SWIDTH 0 0
DWIDTH 0 0
BBX 13 7 -2 27
BITMAP
E038
7070
78E0
3BC0
3F80
1F00
1F00
ENDCHAR
STARTCHAR 030F
ENCODING 783
SWIDTH 0 0
DWIDTH 0 0
BBX 14 7 -21 27
BITMAP
F1E0
F0F0
70F0
7878
3C38
1C1C
0E1C
ENDCHAR
STARTCHAR 0312
ENCODING 786
SWIDTH 0 0
DWIDTH 0 0
BBX 8 11 -1 21
BITMAP
07
07
0E
1E
1C
3C
3C
78
78
F0
F0
ENDCHAR
STARTCHAR 0323
ENCODING 803
SWIDTH 0 0
DWIDTH 0 0
BBX 4 5 -18 -8
BITMAP
F0
F0
F0
E0
40
ENDCHAR
STARTCHAR 0326
ENCODING 806
SWIDTH 0 0
DWIDTH 0 0
BBX 7 7 2 -10
BITMAP
1E
1C
3C
38
70
60
E0
ENDCHAR
STARTCHAR 0327
ENCODING 807
SWIDTH 0 0
DWIDTH 0 0
BBX 8 11 -7 -11
BITMAP
0C
1C
18
3E
0F
07
07
0F
FE
FC
F0
ENDCHAR
STARTCHAR 0328
ENCODING 808
SWIDTH 0 0
DWIDTH 0 0
BBX 6 10 -6 -10
BITMAP
0C
38
70
E0
E0
E0
E0
FC
FC
38
ENDCHAR
STARTCHAR 0384
ENCODING 900
SWIDTH 540 0
DWIDTH 24 0
BBX 8 9 13 27
BITMAP
0F
0F
1E
1E
3C
38
38
70
E0
ENDCHAR
STARTCHAR 0385
ENCODING 901
SWIDTH 427 0
DWIDTH 19 0
BBX 14 9 7 28
BITMAP
00F0
00E0
01E0
01C0
0380
E33C
F63C
E03C
E018
ENDCHAR
STARTCHAR 0386
ENCODING 902
SWIDTH 540 0
DWIDTH 24 0
BBX 25 32 -2 0
BITMAP
00F07800
00F0F800
01E0F800
01C1F800
03C1F800
0383B800
0707BC00
07073C00
0E0F3C00
000F3C00
001E1C00
001C1C00
003C1C00
00381C00
00781E00
00701E00
00F01E00
01E01E00
01E01E00
03FFFE00
03FFFE00
07FFFE00
07800F00
0F000F00
0F000F00
1E000F00
1C000F00
3C000700
78000700
78000700
F0000780
F0000780
ENDCHAR
STARTCHAR 0387
ENCODING 903
SWIDTH 247 0
DWIDTH 11 0
BBX 5 5 5 19
BITMAP
78
F8
F8
F8
F0
ENDCHAR
STARTCHAR 0388
ENCODING 904
SWIDTH 585 0
DWIDTH 26 0
BBX 27 32 2 0
BITMAP
0F1FFFE0
1F3FFFC0
1E3FFFC0
1C3FFFC0
3C380000
38780000
70780000
70780000
E0780000
00700000
00F00000
00F00000
00F00000
00E00000
00FFFE00
01FFFE00
01FFFC00
01E00000
01C00000
03C00000
03C00000
03C00000
03C00000
03800000
07800000
07800000
07800000
07000000
07000000
0FFFF000
0FFFF000
0FFFF000
ENDCHAR
STARTCHAR 0389
ENCODING 905
SWIDTH 742 0
DWIDTH 33 0
BBX 32 32 2 0
BITMAP
1E3C000F
1E38000E
1E78000E
3C78001E
3878001E
7870001E
7070001C
E0F0003C
E0F0003C
00F0003C
00E00038
00E00038
01E00078
01E00078
01FFFFF8
01FFFFF0
03FFFFF0
03C000F0
03C000F0
038000F0
038000E0
078000E0
078001E0
078001E0
070001E0
070001C0
0F0003C0
0F0003C0
0F0003C0
0E000380
1E000380
1E000780
ENDCHAR
STARTCHAR 038A
ENCODING 906
SWIDTH 337 0
DWIDTH 15 0
BBX 14 32 2 0
BITMAP
1E3C
1E3C
1E38
3C78
3878
7878
7070
E070
E0F0
00F0
00F0
00E0
00E0
01E0
01E0
01E0
01C0
01C0
03C0
03C0
03C0
0380
0780
0780
0780
0700
0700
0F00
0F00
0F00
0E00
0E00
ENDCHAR
STARTCHAR 038C
ENCODING 908
SWIDTH 765 0
DWIDTH 34 0
BBX 31 32 2 0
BITMAP
1E01FF00
1E07FFC0
1E1FFFE0
3C3F03F0
387C00F8
78F8007C
71F0003C
E1E0003C
E3C0001E
03C0001E
0780001E
0780001E
0780001E
0F00001E
0F00001E
0F00001E
0F00001E
0F00003C
0E00003C
0E00003C
0E00003C
0E000078
0F000078
0F0000F8
0F0000F0
0F8001E0
078003E0
07C007C0
03F01F80
01FFFF00
00FFFE00
003FF000
ENDCHAR
STARTCHAR 038E
ENCODING 910
SWIDTH 630 0
DWIDTH 28 0
BBX 32 32 1 0
BITMAP
0F78001F
1E38001E
1E38003C
1C3C007C
3C3C0078
381C00F0
701C01E0
701E01E0
E01E03C0
000E0780
000E0780
000F0F00
000F1E00
00071E00
00073C00
0007F800
0003F800
0003F000
0003E000
0003E000
0003C000
0003C000
0003C000
00038000
00038000
00078000
00078000
00078000
00070000
000F0000
000F0000
000F0000
ENDCHAR
STARTCHAR 038F
ENCODING 911
SWIDTH 787 0
DWIDTH 35 0
BBX 32 32 2 0
BITMAP
0F01FF80
1F07FFE0
1E1FFFF0
1C3F81F8
3C7C007C
38F8003C
71F0001E
71E0001E
E3C0001E
03C0000F
07C0000F
0780000F
0780000F
0780000F
0700000F
0F00000E
0F00001E
0F00001E
0F00001E
0F00003C
0700003C
07800078
07800078
078000F0
03C001E0
03C003C0
01E00780
00F00F00
00703E00
7FF87FFC
7FF87FFC
FFF87FFC
ENDCHAR
STARTCHAR 0390
ENCODING 912
SWIDTH 292 0
DWIDTH 13 0
BBX 14 37 2 0
BITMAP
0078
00F0
00E0
01E0
01C0
739C
F31C
F01C
6018
0000
0000
0000
0000
0F00
0E00
0E00
1E00
1E00
1E00
1C00
3C00
3C00
3C00
3800
3800
7800
7800
7800
7000
7000
F000
F000
F000
F000
7F80
7F80
3F80
ENDCHAR
STARTCHAR 0391
ENCODING 913
SWIDTH 540 0
DWIDTH 24 0
BBX 25 32 -2 0
BITMAP
00007800
0000F800
0000F800
0001F800
0001F800
0003B800
0007BC00
00073C00
000F3C00
000F3C00
001E1C00
001C1C00
003C1C00
00381C00
00781E00
00701E00
00F01E00
01E01E00
01E01E00
03FFFE00
03FFFE00
07FFFE00
07800F00
0F000F00
0F000F00
1E000F00
1C000F00
3C000700
78000700
78000700
F0000780
F0000780
ENDCHAR
STARTCHAR 0392
ENCODING 914
SWIDTH 585 0
DWIDTH 26 0
BBX 24 32 2 0
BITMAP
01FFC0
03FFF8
03FFFC
03C1FE
03801F
07800F
07800F
07800F
07800F
07000F
0F000F
0F001E
0F003C
0E00F8
0FFFF0
1FFF80
1FFFE0
1E01F0
1C0078
3C003C
3C003C
3C003C
3C003C
38003C
78003C
78007C
780078
7001F8
7007F0
FFFFE0
FFFF80
FFFC00
ENDCHAR
STARTCHAR 0393
ENCODING 915
SWIDTH 472 0
DWIDTH 21 0
BBX 23 32 2 0
BITMAP
01FFFE
03FFFC
03FFFC
03FFFC
038000
078000
078000
078000
078000
070000
0F0000
0F0000
0F0000
0E0000
0E0000
1E0000
1E0000
1E0000
1C0000
3C0000
3C0000
3C0000
3C0000
380000
780000
780000
780000
700000
700000
F00000
F00000
F00000
ENDCHAR
STARTCHAR 0394
ENCODING 916
SWIDTH 540 0
DWIDTH 24 0
BBX 23 32 -1 0
BITMAP
0000F0
0001F0
0001F0
0003F0
0003F0
0007F0
000770
000F78
000E78
001E78
003C78
003C38
007838
007838
00F038
00F038
01E03C
01C03C
03C03C
03803C
07801C
07001C
0F001C
0E001C
1E001C
3C001E
3C001E
78001E
78001E
FFFFFE
FFFFFE
FFFFFE
ENDCHAR
STARTCHAR 0395
ENCODING 917
SWIDTH 495 0
DWIDTH 22 0
BBX 23 32 2 0
BITMAP
01FFFE
03FFFC
03FFFC
03FFFC
038000
078000
078000
078000
078000
070000
0F0000
0F0000
0F0000
0E0000
0FFFE0
1FFFE0
1FFFC0
1E0000
1C0000
3C0000
3C0000
3C0000
3C0000
380000
780000
780000
780000
700000
700000
FFFF00
FFFF00
FFFF00
ENDCHAR
STARTCHAR 0396
ENCODING 918
SWIDTH 517 0
DWIDTH 23 0
BBX 25 32 0 0
BITMAP
01FFFF80
03FFFF80
03FFFF80
03FFFF80
00000F00
00001E00
00003C00
00007C00
0000F800
0000F000
0001E000
0003C000
0007C000
000F8000
000F0000
001E0000
003C0000
007C0000
00780000
00F00000
01E00000
03C00000
07C00000
07800000
0F000000
1E000000
3C000000
7C000000
78000000
FFFFF000
FFFFF000
FFFFE000
ENDCHAR
STARTCHAR 0397
ENCODING 919
SWIDTH 675 0
DWIDTH 30 0
BBX 28 32 2 0
BITMAP
01C00070
03C000F0
03C000F0
03C000F0
038000E0
078000E0
078001E0
078001E0
078001E0
070001C0
0F0001C0
0F0003C0
0F0003C0
0E0003C0
0FFFFF80
1FFFFF80
1FFFFF80
1E000780
1C000780
1C000700
3C000F00
3C000F00
3C000F00
38000E00
78000E00
78001E00
78001E00
78001E00
70001C00
F0001C00
F0003C00
F0003C00
ENDCHAR
STARTCHAR 0398
ENCODING 920
SWIDTH 720 0
DWIDTH 32 0
BBX 28 32 3 0
BITMAP
000FF800
007FFE00
00FFFF00
01F81F80
03E007C0
07C003C0
0F0003E0
1F0001E0
1E0001E0
3C0001E0
3C0000F0
3C0000F0
780000F0
780000F0
78FFF0F0
78FFF0E0
F0FFF1E0
F00001E0
F00001E0
F00001E0
F00003C0
F00003C0
F00003C0
78000780
78000F80
78000F00
3C001F00
3E007E00
1F80FC00
0FFFF800
07FFE000
01FF8000
ENDCHAR
STARTCHAR 0399
ENCODING 921
SWIDTH 270 0
DWIDTH 12 0
BBX 10 32 2 0
BITMAP
01C0
03C0
03C0
03C0
0380
0780
0780
0780
0700
0700
0F00
0F00
0F00
0E00
0E00
1E00
1E00
1E00
1C00
1C00
3C00
3C00
3C00
3800
7800
7800
7800
7000
7000
F000
F000
F000
ENDCHAR
STARTCHAR 039A
ENCODING 922
SWIDTH 540 0
DWIDTH 24 0
BBX 27 32 2 0
BITMAP
01C003E0
03C007C0
03C00F80
03C01F00
03803E00
07807C00
0780F800
0781F000
0703E000
0707C000
0F0F8000
0F1F0000
0F3E0000
0E7C0000
0EF80000
1FF80000
1FFC0000
1F9C0000
1E1E0000
3C1E0000
3C0F0000
3C0F0000
3C070000
38078000
78078000
7803C000
7803C000
7001E000
7001E000
F001E000
F000F000
F000F000
ENDCHAR
STARTCHAR 039B
ENCODING 923
SWIDTH 540 0
DWIDTH 24 0
BBX 25 32 -2 0
BITMAP
00007800
0000F800
0000F800
0001F800
0001F800
0003F800
0007BC00
0007BC00
000F3C00
000F3C00
001E1C00
001E1C00
003C1C00
003C1C00
00781E00
00701E00
00F01E00
01E01E00
01E00E00
03C00E00
03C00E00
07800E00
07800F00
0F000F00
0F000F00
1E000F00
1E000700
3C000700
78000700
78000700
F0000780
F0000780
ENDCHAR
STARTCHAR 039C
ENCODING 924
SWIDTH 832 0
DWIDTH 37 0
BBX 35 32 2 0
BITMAP
03F00003E0
03F00007E0
03F0000FE0
03F0000FE0
03F0001FC0
07F0001DC0
0778003DC0
0778003BC0
0738007BC0
0738007380
0F3800E380
0F3801E780
0E3801C780
0E3803C780
0E3C038700
1E3C078F00
1E1C070F00
1C1C0F0F00
1C1C0E0F00
3C1C1C0E00
3C1C1C1E00
3C1C381E00
381E781E00
380E701C00
780EF01C00
780EE03C00
700FE03C00
700FC03C00
700F803800
F00F803800
F00F007800
E007007800
ENDCHAR
STARTCHAR 039D
ENCODING 925
SWIDTH 697 0
DWIDTH 31 0
BBX 29 32 2 0
BITMAP
03C00038
03E00038
03E00078
03F00078
03F00078
07F00070
07780070
073800F0
073800F0
073C00E0
0F1C00E0
0F1E00E0
0E1E01E0
0E0E01E0
0E0F01C0
1E0701C0
1E0783C0
1C0783C0
1C0383C0
3C03C380
3C03C380
3C01C780
3801E780
3800E780
7800F700
7800F700
70007700
70007F00
70003E00
F0003E00
F0003E00
E0001E00
ENDCHAR
STARTCHAR 039E
ENCODING 926
SWIDTH 495 0
DWIDTH 22 0
BBX 25 32 0 0
BITMAP
01FFFF80
01FFFF00
03FFFF00
03FFFF00
00000000
00000000
00000000
00000000
00000000
00000000
00000000
00000000
00000000
00000000
03FFF000
03FFF000
07FFE000
00000000
00000000
00000000
00000000
00000000
00000000
00000000
00000000
00000000
00000000
00000000
00000000
FFFFE000
FFFFE000
FFFFE000
ENDCHAR
STARTCHAR 039F
ENCODING 927
SWIDTH 720 0
DWIDTH 32 0
BBX 28 32 3 0
BITMAP
000FF800
007FFE00
00FFFF00
01F81F80
03E007C0
078003C0
0F8003E0
1F0001E0
1E0001E0
3C0001E0
3C0000F0
3C0000F0
780000F0
780000F0
780000F0
780001E0
F00001E0
F00001E0
F00001E0
F00001E0
F00003C0
F00003C0
F00007C0
78000780
78000F80
78000F00
3C001F00
3E007E00
1F80FC00
0FFFF800
07FFE000
01FF8000
ENDCHAR
STARTCHAR 03A0
ENCODING 928
SWIDTH 675 0
DWIDTH 30 0
BBX 28 32 2 0
BITMAP
01FFFFF0
03FFFFF0
03FFFFF0
03FFFFF0
038000E0
078001E0
078001E0
078001E0
078001E0
070001C0
0F0003C0
0F0003C0
0F0003C0
0E0003C0
0E000380
1E000780
1E000780
1E000780
1C000700
3C000700
3C000F00
3C000F00
3C000F00
38000E00
78001E00
78001E00
78001E00
70001E00
70001C00
F0003C00
F0003C00
F0003C00
ENDCHAR
STARTCHAR 03A1
ENCODING 929
SWIDTH 562 0
DWIDTH 25 0
BBX 23 32 2 0
BITMAP
01FF80
03FFF0
03FFF8
03C3FC
03803C
07801E
07801E
07801E
07801E
07001E
0F001E
0F001E
0F001E
0E003C
0E007C
1E01F8
1FFFF0
1FFFC0
1FFF00
3C0000
3C0000
3C0000
3C0000
380000
780000
780000
780000
700000
700000
F00000
F00000
F00000
ENDCHAR
STARTCHAR 03A3
ENCODING 931
SWIDTH 517 0
DWIDTH 23 0
BBX 26 32 -1 0
BITMAP
01FFFFC0
01FFFFC0
01FFFFC0
01FFFF80
01E00000
00F00000
00F00000
00780000
00780000
003C0000
003C0000
001E0000
001E0000
000F0000
000F0000
00078000
000F0000
001E0000
003C0000
007C0000
00780000
00F00000
01E00000
03C00000
07800000
0F000000
1E000000
3C000000
7C000000
7FFFF800
7FFFF800
FFFFF800
ENDCHAR
STARTCHAR 03A4
ENCODING 932
SWIDTH 495 0
DWIDTH 22 0
BBX 22 32 4 0
BITMAP
7FFFFC
FFFFFC
FFFFFC
FFFFF8
007000
00F000
00F000
00F000
00F000
00E000
01E000
01E000
01E000
01C000
01C000
03C000
03C000
03C000
038000
078000
078000
078000
078000
070000
0F0000
0F0000
0F0000
0F0000
0E0000
1E0000
1E0000
1E0000
ENDCHAR
STARTCHAR 03A5
ENCODING 933
SWIDTH 495 0
DWIDTH 22 0
BBX 22 32 4 0
BITMAP
F0003C
F0003C
700078
7800F0
7800F0
7801E0
3803C0
3C03C0
3C0780
1C0F00
1C0F00
1E1E00
1E3C00
0E3C00
0E7800
0EF000
0FE000
07E000
07C000
078000
078000
078000
070000
070000
0F0000
0F0000
0F0000
0E0000
0E0000
1E0000
1E0000
1E0000
ENDCHAR
STARTCHAR 03A6
ENCODING 934
SWIDTH 742 0
DWIDTH 33 0
BBX 29 32 3 0
BITMAP
0000F000
0000E000
0001E000
0001E000
003FFE00
01FFFF80
07FFFFC0
0FE3C7E0
1F03C1F0
3E03C0F0
3C03C0F0
78038078
78078078
78078078
F0078078
F0070078
F00F0078
F00F0070
F00F00F0
F00F00F0
780E01E0
781E03E0
7C1E07C0
3E1E1F80
1FFFFF00
0FFFFC00
03FFF000
007C0000
003C0000
00380000
00780000
00780000
ENDCHAR
STARTCHAR 03A7
ENCODING 935
SWIDTH 517 0
DWIDTH 23 0
BBX 29 32 -2 0
BITMAP
01E00078
01E000F0
00E001E0
00F003C0
00700780
00780780
00780F00
00381E00
003C3C00
003C3C00
001C7800
001EF000
000FE000
000FC000
000FC000
000F8000
000F8000
001FC000
003FC000
0079C000
0071E000
00F1E000
01E0E000
03C0F000
0780F000
07807000
0F007800
1E007800
3C003C00
3C003C00
78003C00
F0001E00
ENDCHAR
STARTCHAR 03A8
ENCODING 936
SWIDTH 720 0
DWIDTH 32 0
BBX 31 32 4 0
BITMAP
1E01E01E
3C01C01E
3C03C01C
3C03C03C
3C03C03C
3803C03C
7803803C
78078078
78078078
78078078
70070078
F0070070
F00F00F0
F00F00F0
F00F01F0
700E01E0
781E03E0
781E07C0
3E1E1F80
3FFFFF00
1FFFFE00
07FFF000
003C0000
003C0000
003C0000
00380000
00780000
00780000
00780000
00700000
00700000
00F00000
ENDCHAR
STARTCHAR 03A9
ENCODING 937
SWIDTH 720 0
DWIDTH 32 0
BBX 31 32 0 0
BITMAP
0003FF00
000FFFC0
003FFFE0
007F03F0
00F800F8
01F0007C
01E0003C
03C0003C
07C0001E
0780001E
0780001E
0F00001E
0F00001E
0F00001E
0F00001E
0F00001E
0E00001C
0E00003C
0E00003C
0F000078
0F000078
0F0000F0
0F0000F0
070001E0
078003C0
03800780
03C00F00
01E01E00
00F07C00
FFF0FFF8
FFF0FFF8
FFF0FFF8
ENDCHAR
STARTCHAR 03AA
ENCODING 938
SWIDTH 270 0
DWIDTH 12 0
BBX 16 40 2 0
BITMAP
0F0F
0F0F
0F0F
0E0E
0000
0000
0000
0000
01C0
03C0
03C0
03C0
0380
0780
0780
0780
0700
0700
0F00
0F00
0F00
0E00
0E00
1E00
1E00
1E00
1C00
1C00
3C00
3C00
3C00
3800
7800
7800
7800
7000
7000
F000
F000
F000
ENDCHAR
STARTCHAR 03AB
ENCODING 939
SWIDTH 495 0
DWIDTH 22 0
BBX 22 40 4 0
BITMAP
01C1C0
01E1E0
01C1C0
01C1C0
000000
000000
000000
000000
F0003C
F0003C
700078
7800F0
7800F0
7801E0
3803C0
3C03C0
3C0780
1C0F00
1C0F00
1E1E00
1E3C00
0E3C00
0E7800
0EF000
0FE000
07E000
07C000
078000
078000
078000
070000
070000
0F0000
0F0000
0F0000
0E0000
0E0000
1E0000
1E0000
1E0000
ENDCHAR
STARTCHAR 03AC
ENCODING 940
SWIDTH 562 0
DWIDTH 25 0
BBX 23 36 2 0
BITMAP
0000F0
0001E0
0001E0
0001C0
0003C0
000380
000700
000700
000E00
000000
000000
000000
00FE0E
03FF1E
07FF9C
0F83FC
1F00FC
1E00F8
3C00F8
3C00F8
7800F0
7800F0
7800F0
7000F0
F000E0
F001E0
F001E0
F001E0
F003E0
F003C0
F007C0
F00FC0
781FC0
7FF9F8
3FF1F8
1FC0F8
ENDCHAR
STARTCHAR 03AD
ENCODING 941
SWIDTH 427 0
DWIDTH 19 0
BBX 19 36 1 0
BITMAP
0001E0
0003C0
0003C0
000380
000780
000700
000E00
000E00
001C00
000000
000000
000000
00FF80
03FFE0
07FFE0
0F80C0
0F0000
0E0000
0E0000
0E0000
0E0000
0F0000
07FC00
01FC00
0FFC00
3F0000
7C0000
700000
F00000
F00000
F00000
F00000
780300
7FFF00
3FFF00
1FFC00
ENDCHAR
STARTCHAR 03AE
ENCODING 942
SWIDTH 562 0
DWIDTH 25 0
BBX 22 47 1 -11
BITMAP
000078
000078
0000F0
0000E0
0001E0
0001C0
000380
000380
000700
000000
000000
000000
0707E0
071FF8
073FF8
07787C
0FE03C
0FC03C
0F803C
0F003C
0F003C
1E003C
1E0038
1E0078
1C0078
3C0078
3C0078
3C0070
3800F0
3800F0
7800F0
7800E0
7800E0
7001E0
7001E0
F001E0
0001C0
0001C0
0003C0
0003C0
0003C0
000380
000780
000780
000780
000700
000700
ENDCHAR
STARTCHAR 03AF
ENCODING 943
SWIDTH 292 0
DWIDTH 13 0
BBX 13 36 2 0
BITMAP
0078
00F0
00F0
01E0
01C0
03C0
0380
0700
0700
0000
0000
0000
0F00
0E00
0E00
1E00
1E00
1E00
1C00
3C00
3C00
3C00
3800
3800
7800
7800
7800
7000
7000
F000
F000
F000
F000
7F80
7F80
3F80
ENDCHAR
STARTCHAR 03B0
ENCODING 944
SWIDTH 562 0
DWIDTH 25 0
BBX 21 37 3 0
BITMAP
0001E0
0003C0
000380
000700
000700
01CE70
03CCF0
03C0F0
018060
000000
000000
000000
000000
1E0078
1C0078
3C0078
3C0078
3C0078
380078
380078
780070
780070
780070
7000F0
7000F0
F000F0
F000E0
F001E0
E001E0
E001C0
E003C0
F003C0
F00780
780F00
7FFE00
3FFC00
1FF800
ENDCHAR
STARTCHAR 03B1
ENCODING 945
SWIDTH 562 0
DWIDTH 25 0
BBX 23 24 2 0
BITMAP
00FE0E
03FF1E
07FF9C
0F83FC
1F00FC
1E00F8
3C00F8
3C00F8
7800F0
7800F0
7800F0
7000F0
F000E0
F001E0
F001E0
F001E0
F003E0
F003C0
F007C0
F00FC0
781FC0
7FF9F8
3FF1F8
1FC0F8
ENDCHAR
STARTCHAR 03B2
ENCODING 946
SWIDTH 562 0
DWIDTH 25 0
BBX 26 45 -1 -11
BITMAP
0003F800
000FFE00
001FFF00
003E0F80
007C07C0
007803C0
00F003C0
00F003C0
00E003C0
01E003C0
01E003C0
01E00380
01C00780
01C00F00
03C07E00
03C7F800
03C7E000
0387F800
03803C00
07801E00
07800F00
07800F00
07000F00
0F000F00
0F000F00
0F000F00
0F000F00
0E000E00
1E001E00
1E003E00
1F807C00
1FFFF800
1DFFF000
3C7FC000
3C000000
3C000000
38000000
38000000
78000000
78000000
78000000
70000000
F0000000
F0000000
F0000000
ENDCHAR
STARTCHAR 03B3
ENCODING 947
SWIDTH 450 0
DWIDTH 20 0
BBX 20 35 2 -11
BITMAP
F000F0
F000F0
F001E0
7001E0
7003C0
7003C0
780780
780780
780F00
380E00
381E00
381C00
383C00
3C3800
3C7800
3CF000
1CF000
1CE000
1DC000
1DC000
1F8000
1F8000
0F0000
0F0000
1E0000
1E0000
3C0000
3C0000
380000
780000
780000
700000
F00000
F00000
F00000
ENDCHAR
STARTCHAR 03B4
ENCODING 948
SWIDTH 540 0
DWIDTH 24 0
BBX 23 34 2 0
BITMAP
000FE0
003FF8
007FFE
00F03C
01E00C
01E000
01C000
01E000
01E000
00E000
00F000
007800
003E00
001F00
00FF80
03F7C0
0F83C0
1F01E0
3C00E0
7800F0
7800F0
F000F0
F000F0
E000F0
E000F0
E000F0
E000E0
E001E0
F003E0
F003C0
780F80
7FFF00
3FFE00
0FF800
ENDCHAR
STARTCHAR 03B5
ENCODING 949
SWIDTH 427 0
DWIDTH 19 0
BBX 19 24 1 0
BITMAP
00FF80
03FFE0
07FFE0
0F80C0
0F0000
0E0000
0E0000
0E0000
0E0000
0F0000
07FC00
01FC00
0FFC00
3F0000
7C0000
700000
F00000
F00000
F00000
F00000
780300
7FFF00
3FFF00
1FFC00
ENDCHAR
STARTCHAR 03B6
ENCODING 950
SWIDTH 450 0
DWIDTH 20 0
BBX 21 43 2 -9
BITMAP
01FFF8
01FFF8
03FFF8
0000F0
0001E0
0003C0
000F80
001F00
003E00
007800
00F000
01E000
03C000
078000
078000
0F0000
1E0000
1C0000
3C0000
780000
780000
700000
F00000
F00000
F00000
F00000
F00000
F00000
F80000
7C0000
7E0000
3F8000
0FE000
07F800
00F800
003C00
003C00
003C00
003C00
003800
007800
00F000
01E000
ENDCHAR
STARTCHAR 03B7
ENCODING 951
SWIDTH 562 0
DWIDTH 25 0
BBX 22 35 1 -11
BITMAP
0707E0
071FF8
073FF8
07787C
0FE03C
0FC03C
0F803C
0F003C
0F003C
1E003C
1E0038
1E0078
1C0078
3C0078
3C0078
3C0070
3800F0
3800F0
7800F0
7800E0
7800E0
7001E0
7001E0
F001E0
0001C0
0001C0
0003C0
0003C0
0003C0
000380
000780
000780
000780
000700
000700
ENDCHAR
STARTCHAR 03B8
ENCODING 952
SWIDTH 540 0
DWIDTH 24 0
BBX 21 34 2 0
BITMAP
001F80
007FE0
00FFF0
01F0F0
03C078
078078
070038
0F0038
0E0038
1E0038
1C0038
1C0038
3C0038
3C0078
380078
7FFFF8
7FFFF8
7FFFF0
700070
7000F0
F000F0
F000E0
F001E0
F001E0
F001C0
F003C0
F003C0
F00780
F00780
700F00
781E00
3FFC00
3FF800
0FF000
ENDCHAR
STARTCHAR 03B9
ENCODING 953
SWIDTH 292 0
DWIDTH 13 0
BBX 9 24 2 0
BITMAP
0F00
0E00
0E00
1E00
1E00
1E00
1C00
3C00
3C00
3C00
3800
3800
7800
7800
7800
7000
7000
F000
F000
F000
F000
7F80
7F80
3F80
ENDCHAR
STARTCHAR 03BA
ENCODING 954
SWIDTH 472 0
DWIDTH 21 0
BBX 22 24 1 0
BITMAP
07803C
078078
0700F0
0701E0
0F03C0
0F0780
0F0F00
0E1E00
1E3C00
1E7800
1CF000
1DF000
1FF800
3F7800
3E3C00
3C3C00
381E00
381E00
780F00
780F00
780780
700780
7003C0
F003C0
ENDCHAR
STARTCHAR 03BB
ENCODING 955
SWIDTH 472 0
DWIDTH 21 0
BBX 22 34 -2 0
BITMAP
01F800
01FC00
01FE00
001E00
000F00
000F00
000700
000700
000700
000700
000780
000780
000F80
001F80
001F80
003B80
003B80
007B80
007380
00F3C0
01E3C0
01C3C0
03C3C0
0381C0
0781C0
0F01C0
0F01C0
1E01E0
1E01E0
3C01E0
3801E0
7800FC
F000FC
F0007C
ENDCHAR
STARTCHAR 03BC
ENCODING 956
SWIDTH 562 0
DWIDTH 25 0
BBX 26 35 -1 -11
BITMAP
01E003C0
01E00380
01C00380
01C00780
03C00780
03C00700
03C00700
03800F00
03800F00
07800F00
07800E00
07800E00
07001E00
0F001E00
0F001E00
0F003C00
0F003C00
0E007C00
1E00FC00
1F01F800
1F03B800
1FFF3800
1FFE3800
3DFC3800
3C000000
38000000
38000000
38000000
78000000
78000000
70000000
70000000
F0000000
F0000000
F0000000
ENDCHAR
STARTCHAR 03BD
ENCODING 957
SWIDTH 472 0
DWIDTH 21 0
BBX 20 24 2 0
BITMAP
F00070
F000F0
F000F0
7000E0
7000E0
7001E0
7801E0
7801C0
7803C0
7803C0
780780
380780
380F00
380F00
381E00
3C1C00
3C3C00
3C7800
3CF000
1DE000
1FE000
1FC000
1F8000
1E0000
ENDCHAR
STARTCHAR 03BE
ENCODING 958
SWIDTH 427 0
DWIDTH 19 0
BBX 20 43 2 -9
BITMAP
03FFF0
03FFF0
03FFE0
003E00
00F000
01C000
038000
078000
070000
0F0000
0F0000
0F0000
070000
078000
03E000
01FF00
00FF00
07FF00
0F8000
3E0000
3C0000
780000
F00000
F00000
F00000
E00000
E00000
F00000
F00000
F80000
7E0000
3F8000
1FE000
07F000
00F800
007C00
003C00
003C00
003800
007800
007000
00F000
01E000
ENDCHAR
STARTCHAR 03BF
ENCODING 959
SWIDTH 562 0
DWIDTH 25 0
BBX 21 24 2 0
BITMAP
007F00
01FFC0
07FFE0
0F81E0
1F00F0
1E00F0
3C0078
3C0078
780078
780078
700078
700078
F00078
F00070
F000F0
F000F0
F000E0
F001E0
7003E0
7803C0
7C0F80
3FFF00
1FFE00
07F800
ENDCHAR
STARTCHAR 03C0
ENCODING 960
SWIDTH 585 0
DWIDTH 26 0
BBX 26 24 2 0
BITMAP
0FFFFFC0
7FFFFFC0
FFFFFF80
07007800
0F007000
0F00F000
0F00F000
0E00F000
0E00F000
1E00E000
1E01E000
1E01E000
1C01E000
3C01C000
3C01C000
3C03C000
3803C000
3803C000
78038000
78038000
78038000
7003F800
F003F800
F001F800
ENDCHAR
STARTCHAR 03C1
ENCODING 961
SWIDTH 562 0
DWIDTH 25 0
BBX 24 35 -1 -11
BITMAP
000FF0
003FF8
007FFC
00F83E
01F01E
01E00F
03C00F
03C00F
038007
078007
07800F
07800F
07000F
0F000F
0F000E
0F001E
0E001E
0E003C
1E003C
1E0078
1F80F8
1FFFF0
1DFFE0
3C7F80
3C0000
3C0000
380000
380000
780000
780000
780000
700000
F00000
F00000
F00000
ENDCHAR
STARTCHAR 03C2
ENCODING 962
SWIDTH 450 0
DWIDTH 20 0
BBX 18 33 2 -9
BITMAP
007F80
01FFC0
07FFC0
0F80C0
1F0000
1E0000
3C0000
3C0000
780000
780000
700000
F00000
F00000
F00000
F00000
F00000
F00000
F00000
780000
7C0000
3E0000
1FC000
0FF000
03F800
00F800
003C00
003C00
003C00
003C00
003800
007800
00F000
01E000
ENDCHAR
STARTCHAR 03C3
ENCODING 963
SWIDTH 562 0
DWIDTH 25 0
BBX 25 24 2 0
BITMAP
001FFF80
01FFFF00
03FFFF00
0FE1C000
1F00E000
1E00E000
3C00F000
38007000
78007000
78007000
70007000
F0007000
F0007000
F000F000
F000F000
F000F000
F000E000
F001E000
7001C000
7803C000
7C0F8000
3FFF0000
1FFE0000
07F80000
ENDCHAR
STARTCHAR 03C4
ENCODING 964
SWIDTH 405 0
DWIDTH 18 0
BBX 18 24 2 0
BITMAP
1FFFC0
7FFFC0
FFFFC0
03C000
03C000
03C000
038000
038000
078000
078000
078000
070000
0F0000
0F0000
0F0000
0E0000
0E0000
1E0000
1E0000
1E0000
1E0000
0FF800
0FF800
07F800
ENDCHAR
STARTCHAR 03C5
ENCODING 965
SWIDTH 562 0
DWIDTH 25 0
BBX 21 24 3 0
BITMAP
1E0078
1C0078
3C0078
3C0078
3C0078
380078
380078
780070
780070
780070
7000F0
7000F0
F000F0
F000E0
F001E0
E001E0
E001C0
E003C0
F003C0
F00780
780F00
7FFE00
3FFC00
1FF800
ENDCHAR
STARTCHAR 03C6
ENCODING 966
SWIDTH 652 0
DWIDTH 29 0
BBX 26 35 2 -11
BITMAP
0100FE00
0381FF00
0783FF80
0F078780
1E078380
1E0F03C0
3C0F03C0
380E03C0
780E03C0
781E03C0
701E03C0
F01E03C0
F01C0380
F01C0780
F03C0780
F03C0700
F03C0F00
F0381E00
70381E00
78783C00
3C78F800
3FFFF000
1FFFE000
07FF8000
00F00000
00F00000
00E00000
00E00000
01E00000
01E00000
01E00000
01C00000
01C00000
03C00000
03C00000
ENDCHAR
STARTCHAR 03C7
ENCODING 967
SWIDTH 495 0
DWIDTH 22 0
BBX 29 35 -5 -11
BITMAP
00F80078
00FC00F0
00FC01E0
001E01E0
001E03C0
000E0780
000E0700
000E0F00
000F1E00
000F1C00
000F3C00
00077800
00077000
0007F000
0007E000
0007C000
0007C000
00078000
000F8000
001F8000
003F8000
003BC000
007BC000
00F3C000
01E1C000
01E1C000
03C1C000
0781C000
0701E000
0F01E000
1E01E000
3C00F000
3C00FE00
78007E00
F0001C00
ENDCHAR
STARTCHAR 03C8
ENCODING 968
SWIDTH 697 0
DWIDTH 31 0
BBX 27 45 3 -11
BITMAP
0000E000
0001E000
0001E000
0001E000
0001C000
0001C000
0003C000
0003C000
0003C000
00038000
1C0381E0
1C0781E0
3C0781E0
3C0701E0
3C0701E0
380F01E0
380F01E0
780F01E0
780E01E0
780E01C0
701E01C0
701E03C0
F01E03C0
F01C03C0
F01C0780
F03C0780
F03C0F00
F0380F00
F0381E00
78383E00
7C78FC00
3FFFF000
1FFFE000
07FF8000
00F00000
00F00000
00F00000
00E00000
00E00000
01E00000
01E00000
01C00000
01C00000
01C00000
03C00000
ENDCHAR
STARTCHAR 03C9
ENCODING 969
SWIDTH 720 0
DWIDTH 32 0
BBX 28 24 2 0
BITMAP
038000F0
078000F0
0F000070
0F000070
1E000070
1E000070
3C000070
3C000070
38000070
78078070
78070070
700700F0
F00F00F0
F00F00F0
F00F00E0
F00E00E0
F00E01E0
F01E01E0
F01E03C0
F03E03C0
787F0780
7FF7FF00
3FE3FE00
1FC1FC00
ENDCHAR
STARTCHAR 03CA
ENCODING 970
SWIDTH 292 0
DWIDTH 13 0
BBX 13 32 2 0
BITMAP
3838
7878
7878
3030
0000
0000
0000
0000
0F00
0E00
0E00
1E00
1E00
1E00
1C00
3C00
3C00
3C00
3800
3800
7800
7800
7800
7000
7000
F000
F000
F000
F000
7F80
7F80
3F80
ENDCHAR
STARTCHAR 03CB
ENCODING 971
SWIDTH 562 0
DWIDTH 25 0
BBX 21 32 3 0
BITMAP
00E0E0
01E1E0
01E1E0
00C0C0
000000
000000
000000
000000
1E0078
1C0078
3C0078
3C0078
3C0078
380078
380078
780070
780070
780070
7000F0
7000F0
F000F0
F000E0
F001E0
E001E0
E001C0
E003C0
F003C0
F00780
780F00
7FFE00
3FFC00
1FF800
ENDCHAR
STARTCHAR 03CC
ENCODING 972
SWIDTH 562 0
DWIDTH 25 0
BBX 21 36 2 0
BITMAP
0001E0
0003C0
0003C0
000780
000780
000700
000E00
000E00
001C00
000000
000000
000000
007F00
01FFC0
07FFE0
0F81E0
1F00F0
1E00F0
3C0078
3C0078
780078
780078
700078
700078
F00078
F00070
F000F0
F000F0
F000E0
F001E0
7003E0
7803C0
7C0F80
3FFF00
1FFE00
07F800
ENDCHAR
STARTCHAR 03CD
ENCODING 973
SWIDTH 562 0
DWIDTH 25 0
BBX 21 36 3 0
BITMAP
0003C0
0003C0
0003C0
000780
000700
000F00
000E00
001C00
001800
000000
000000
000000
1E0078
1C0078
3C0078
3C0078
3C0078
380078
380078
780070
780070
780070
7000F0
7000F0
F000F0
F000E0
F001E0
E001E0
E001C0
E003C0
F003C0
F00780
780F00
7FFE00
3FFC00
1FF800
ENDCHAR
STARTCHAR 03CE
ENCODING 974
SWIDTH 720 0
DWIDTH 32 0
BBX 28 36 2 0
BITMAP
00001E00
00001E00
00003C00
00003C00
00007800
00007000
0000F000
0000E000
0001C000
00000000
00000000
00000000
038000F0
078000F0
0F000070
0F000070
1E000070
1E000070
3C000070
3C000070
38000070
78078070
78070070
700700F0
F00F00F0
F00F00F0
F00F00E0
F00E00E0
F00E01E0
F01E01E0
F01E03C0
F03E03C0
787F0780
7FF7FF00
3FE3FE00
1FC1FC00
ENDCHAR
STARTCHAR 03D1
ENCODING 977
SWIDTH 562 0
DWIDTH 25 0
BBX 25 34 1 0
BITMAP
001FC000
003FE000
007FF000
00F0F800
01E07800
01E03C00
01C03C00
01C03C00
01C01C00
01E01C00
01E01C00
00F01C00
007E1C00
003FFF80
000FFF80
78007F80
FC003C00
FE003C00
1E003800
1E007800
1E007800
1C007800
3C007000
3C00F000
3800F000
7801E000
7801E000
7803C000
7003C000
78078000
781F0000
3FFE0000
3FFC0000
0FF00000
ENDCHAR
STARTCHAR 03D2
ENCODING 978
SWIDTH 495 0
DWIDTH 22 0
BBX 23 32 4 0
BITMAP
F0003E
F0007E
7000FE
7801F0
7801E0
7803C0
380780
380780
3C0F00
1C0E00
1C1E00
1C3C00
1E3800
0E7800
0E7000
0EF000
0FE000
07C000
07C000
078000
078000
078000
070000
070000
0F0000
0F0000
0F0000
0E0000
1E0000
1E0000
1E0000
1E0000
ENDCHAR
STARTCHAR 03D6
ENCODING 982
SWIDTH 787 0
DWIDTH 35 0
BBX 34 24 2 0
BITMAP
0FFFFFFFC0
7FFFFFFFC0
FFFFFFFFC0
03C0007000
0780007800
0700007800
0F00007800
0E00007800
1E00007800
1C00007800
3C00007800
3C03807800
3803807800
3807807800
7807807000
780700F000
780700F000
780F00F000
780F01E000
381F03E000
3C3F87C000
3FFBFF8000
1FF1FF0000
0FE0FE0000
ENDCHAR
STARTCHAR 0400
ENCODING 1024
SWIDTH 495 0
DWIDTH 22 0
BBX 23 42 2 0
BITMAP
001E00
001E00
000E00
000F00
000700
000380
0001C0
000000
000000
000000
01FFFE
03FFFC
03FFFC
03FFFC
038000
078000
078000
078000
078000
070000
0F0000
0F0000
0F0000
0E0000
0FFFE0
1FFFE0
1FFFC0
1E0000
1C0000
3C0000
3C0000
3C0000
3C0000
380000
780000
780000
780000
700000
700000
FFFF00
FFFF00
FFFF00
ENDCHAR
STARTCHAR 0401
ENCODING 1025
SWIDTH 495 0
DWIDTH 22 0
BBX 23 40 2 0
BITMAP
003838
003C3C
003838
003838
000000
000000
000000
000000
01FFFE
03FFFC
03FFFC
03FFFC
038000
078000
078000
078000
078000
070000
0F0000
0F0000
0F0000
0E0000
0FFFE0
1FFFE0
1FFFC0
1E0000
1C0000
3C0000
3C0000
3C0000
3C0000
380000
780000
780000
780000
700000
700000
FFFF00
FFFF00
FFFF00
ENDCHAR
STARTCHAR 0402
ENCODING 1026
SWIDTH 652 0
DWIDTH 29 0
BBX 23 32 4 0
BITMAP
7FFFF0
FFFFF0
FFFFF0
FFFFF0
01E000
01C000
03C000
03C000
03C000
038000
038000
078000
078000
07FFE0
07FFF8
0FFFFC
0F007C
0F003C
0F001E
0E001E
1E001E
1E001C
1E001C
1C003C
1C003C
3C003C
3C0038
3C0078
3800F8
383FF0
783FE0
783FC0
ENDCHAR
STARTCHAR 0403
ENCODING 1027
SWIDTH 472 0
DWIDTH 21 0
BBX 23 42 2 0
BITMAP
00003C
000078
0000F0
0000E0
0001C0
000380
000700
000000
000000
000000
01FFFE
03FFFC
03FFFC
03FFFC
038000
078000
078000
078000
078000
070000
0F0000
0F0000
0F0000
0E0000
0E0000
1E0000
1E0000
1E0000
1C0000
3C0000
3C0000
3C0000
3C0000
380000
780000
780000
780000
700000
700000
F00000
F00000
F00000
ENDCHAR
STARTCHAR 0404
ENCODING 1028
SWIDTH 585 0
DWIDTH 26 0
BBX 25 32 3 0
BITMAP
0007FC00
003FFF80
00FFFF80
01FC0700
03F00100
07C00000
0F800000
0F000000
1E000000
1E000000
3C000000
3C000000
78000000
78000000
7FFFE000
7FFFC000
7FFFC000
F0000000
F0000000
F0000000
F0000000
F0000000
F0000000
70000000
78000000
78000000
7C000000
3E000000
1F806000
1FFFE000
07FFE000
03FFC000
ENDCHAR
STARTCHAR 0405
ENCODING 1029
SWIDTH 495 0
DWIDTH 22 0
BBX 22 32 1 0
BITMAP
003FE0
00FFFC
03FFFC
07E078
07C008
0F8000
0F0000
0F0000
0F0000
0F0000
0F0000
0F0000
0F8000
07E000
03F000
01FC00
007E00
003F80
000F80
0007C0
0003C0
0001E0
0001E0
0001E0
0001E0
0001C0
0003C0
0007C0
E01F80
FFFF00
FFFE00
7FF800
ENDCHAR
STARTCHAR 0406
ENCODING 1030
SWIDTH 270 0
DWIDTH 12 0
BBX 10 32 2 0
BITMAP
01C0
03C0
03C0
03C0
0380
0780
0780
0780
0700
0700
0F00
0F00
0F00
0E00
0E00
1E00
1E00
1E00
1C00
1C00
3C00
3C00
3C00
3800
7800
7800
7800
7000
7000
F000
F000
F000
ENDCHAR
STARTCHAR 0407
ENCODING 1031
SWIDTH 270 0
DWIDTH 12 0
BBX 16 40 2 0
BITMAP
0F0F
0F0F
0F0F
0E0E
0000
0000
0000
0000
01C0
03C0
03C0
03C0
0380
0780
0780
0780
0700
0700
0F00
0F00
0F00
0E00
0E00
1E00
1E00
1E00
1C00
1C00
3C00
3C00
3C00
3800
7800
7800
7800
7000
7000
F000
F000
F000
ENDCHAR
STARTCHAR 0408
ENCODING 1032
SWIDTH 247 0
DWIDTH 11 0
BBX 19 40 -7 -8
BITMAP
0000E0
0001E0
0001E0
0001E0
0001C0
0001C0
0003C0
0003C0
0003C0
000380
000780
000780
000780
000780
000700
000F00
000F00
000F00
000E00
000E00
001E00
001E00
001E00
001C00
003C00
003C00
003C00
003C00
003800
007800
007800
007800
007000
00F000
00F000
01E000
03E000
FFC000
FF8000
FF0000
ENDCHAR
STARTCHAR 0409
ENCODING 1033
SWIDTH 877 0
DWIDTH 39 0
BBX 38 33 -1 -1
BITMAP
0003FFF800
0003FFF800
0003FFF000
0003FFF000
000780F000
000780F000
000700F000
000F00E000
000F01E000
000F01E000
000E01E000
001E01E000
001E01C000
001C03C000
003C03FFC0
003C03FFF0
003C03FFF8
00380380F8
007807807C
007807803C
007007803C
00F007003C
00F007003C
01E00F003C
01E00F003C
01C00F003C
03C00E0078
07C01E00F8
0F801E07F0
FF001FFFE0
FF001FFF80
FC001FFC00
2000000000
ENDCHAR
STARTCHAR 040A
ENCODING 1034
SWIDTH 900 0
DWIDTH 40 0
BBX 36 32 2 0
BITMAP
01C001C000
03C003C000
03C003C000
03C003C000
0380038000
0780038000
0780078000
0780078000
0700078000
0700070000
0F00070000
0F000F0000
0F000F0000
0E000F0000
0FFFFFFE00
1FFFFFFF80
1FFFFFFFC0
1E001E07E0
1C001E01E0
3C001C01E0
3C003C00F0
3C003C00F0
3C003C00F0
38003800F0
78003801E0
78007801E0
78007803E0
70007807C0
7000701F80
F0007FFF00
F000FFFE00
F000FFF000
ENDCHAR
STARTCHAR 040B
ENCODING 1035
SWIDTH 652 0
DWIDTH 29 0
BBX 23 32 4 0
BITMAP
7FFFF0
FFFFF0
FFFFF0
FFFFF0
01E000
01C000
03C000
03C000
03C000
038000
038000
078000
078000
07FFF0
07FFF8
07FFFC
0F007C
0F003C
0F001E
0E001E
1E001C
1E001C
1E001C
1C003C
1C003C
3C003C
3C0038
3C0078
380078
380078
780070
780070
ENDCHAR
STARTCHAR 040C
ENCODING 1036
SWIDTH 540 0
DWIDTH 24 0
BBX 27 42 2 0
BITMAP
00001E00
00003C00
00007800
00007000
0000E000
0001C000
00038000
00000000
00000000
00000000
01C003E0
03C007C0
03C00F80
03C01F00
03803C00
07807800
0780F000
0781E000
0703C000
07078000
0F0F0000
0F1E0000
0F3C0000
0E780000
0EF00000
1FE00000
1FE00000
1EF00000
1CF00000
3C780000
3C3C0000
3C3C0000
3C1E0000
381F0000
780F0000
78078000
78078000
7003C000
7001E000
F001E000
F000F000
F0007800
ENDCHAR
STARTCHAR 040D
ENCODING 1037
SWIDTH 697 0
DWIDTH 31 0
BBX 29 42 2 0
BITMAP
0003C000
0003C000
0001E000
0000E000
0000F000
00007000
00003800
00000000
00000000
00000000
01C00078
03C000F8
03C001F8
038003F8
038003F0
078007F0
07800F70
07801EF0
07001CE0
070038E0
0F0078E0
0F00F1E0
0E01E1E0
0E01C1C0
0E03C1C0
1E0781C0
1E0F03C0
1C0E03C0
1C1E0380
3C3C0380
3C780780
3CF00780
38E00780
39E00700
7BC00700
7F800F00
77000F00
7F000E00
7E000E00
FC000E00
F8001E00
F0001E00
ENDCHAR
STARTCHAR 040E
ENCODING 1038
SWIDTH 562 0
DWIDTH 25 0
BBX 29 42 0 0
BITMAP
001C01C0
003C03C0
003C03C0
001C0780
001FFF00
000FFE00
0007F800
00000000
00000000
00000000
07000078
07800078
078000F0
038001E0
038001E0
03C003C0
03C003C0
01C00780
01E00F00
01E00F00
00E01E00
00E01E00
00F03C00
00F07800
00707800
0070F000
0078E000
0039E000
0039C000
003BC000
001F8000
001F0000
001F0000
001E0000
003C0000
003C0000
00780000
00F00000
83F00000
FFE00000
FF800000
FF000000
ENDCHAR
STARTCHAR 040F
ENCODING 1039
SWIDTH 675 0
DWIDTH 30 0
BBX 28 40 2 -8
BITMAP
01C00070
03C000F0
03C000F0
03C000F0
038000E0
078000E0
078001E0
078001E0
078001E0
070001C0
0F0003C0
0F0003C0
0F0003C0
0E0003C0
0E000380
1E000780
1E000780
1E000780
1C000700
3C000700
3C000F00
3C000F00
3C000F00
38000E00
78000E00
78001E00
78001E00
70001E00
70001C00
FFFFFC00
FFFFFC00
FFFFFC00
00700000
00700000
00F00000
00F00000
00F00000
00E00000
00E00000
01E00000
ENDCHAR
STARTCHAR 0410
ENCODING 1040
SWIDTH 540 0
DWIDTH 24 0
BBX 25 32 -2 0
BITMAP
00007800
0000F800
0000F800
0001F800
0001F800
0003B800
0007BC00
00073C00
000F3C00
000F3C00
001E1C00
001C1C00
003C1C00
00381C00
00781E00
00701E00
00F01E00
01E01E00
01E01E00
03FFFE00
03FFFE00
07FFFE00
07800F00
0F000F00
0F000F00
1E000F00
1C000F00
3C000700
78000700
78000700
F0000780
F0000780
ENDCHAR
STARTCHAR 0411
ENCODING 1041
SWIDTH 562 0
DWIDTH 25 0
BBX 23 32 2 0
BITMAP
01FFFE
03FFFC
03FFFC
03FFFC
038000
078000
078000
078000
078000
070000
0F0000
0F0000
0F0000
0F0000
0FFF00
1FFFC0
1FFFE0
1E03E0
1C00F0
1C00F0
3C00F0
3C0070
3C0070
3800F0
7800F0
7800F0
7801E0
7803E0
700FC0
FFFF80
FFFE00
FFF000
ENDCHAR
STARTCHAR 0412
ENCODING 1042
SWIDTH 585 0
DWIDTH 26 0
BBX 24 32 2 0
BITMAP
01FFC0
03FFF8
03FFFC
03C1FE
03801F
07800F
07800F
07800F
07800F
07000F
0F000F
0F001E
0F003C
0E00F8
0FFFF0
1FFF80
1FFFE0
1E01F0
1C0078
3C003C
3C003C
3C003C
3C003C
38003C
78003C
78007C
780078
7001F8
7007F0
FFFFE0
FFFF80
FFFC00
ENDCHAR
STARTCHAR 0413
ENCODING 1043
SWIDTH 472 0
DWIDTH 21 0
BBX 23 32 2 0
BITMAP
01FFFE
03FFFC
03FFFC
03FFFC
038000
078000
078000
078000
078000
070000
0F0000
0F0000
0F0000
0E0000
0E0000
1E0000
1E0000
1E0000
1C0000
3C0000
3C0000
3C0000
3C0000
380000
780000
780000
780000
700000
700000
F00000
F00000
F00000
ENDCHAR
STARTCHAR 0414
ENCODING 1044
SWIDTH 607 0
DWIDTH 27 0
BBX 32 40 -4 -8
BITMAP
00001FFF
00003FFE
00003FFE
00003FFE
0000781E
0000781C
0000701C
0000F03C
0000F03C
0000E03C
0001E038
0001C078
0003C078
0003C078
00078078
00078070
000F00F0
000F00F0
001E00F0
001E00F0
003C00E0
003C01E0
007801E0
00F001E0
00F001C0
01E003C0
01E003C0
03C003C0
078003C0
1FFFFFF8
3FFFFFF8
3FFFFFF8
38000078
38000078
38000070
78000070
780000F0
700000F0
700000E0
F00000E0
ENDCHAR
STARTCHAR 0415
ENCODING 1045
SWIDTH 495 0
DWIDTH 22 0
BBX 23 32 2 0
BITMAP
01FFFE
03FFFC
03FFFC
03FFFC
038000
078000
078000
078000
078000
070000
0F0000
0F0000
0F0000
0E0000
0FFFE0
1FFFE0
1FFFC0
1E0000
1C0000
3C0000
3C0000
3C0000
3C0000
380000
780000
780000
780000
700000
700000
FFFF00
FFFF00
FFFF00
ENDCHAR
STARTCHAR 0416
ENCODING 1046
SWIDTH 765 0
DWIDTH 34 0
BBX 40 32 -2 0
BITMAP
01E003800F
00E003801E
00F007803C
0078078078
00780780F8
003C0701F0
003C0703E0
001E0F07C0
001E0F0F80
000F0E0F00
000F0E1E00
00079E3C00
00079E7800
0003DEF000
0003DDE000
0001FFC000
0003FFC000
0007BDC000
000F3DE000
001F38F000
003E38F000
007C787800
00F8787800
01F0703C00
01E0703C00
03C0701E00
0780F01E00
0F00F00F00
1E00E00F00
3E00E00780
7C01E00780
F801E003C0
ENDCHAR
STARTCHAR 0417
ENCODING 1047
SWIDTH 517 0
DWIDTH 23 0
BBX 23 32 0 0
BITMAP
003FE0
00FFF8
03FFFC
07E07C
03001E
00001E
00001E
00000E
00001E
00001E
00001E
00003C
000078
0001F0
03FFC0
03FF00
03FFC0
0007E0
0000F0
000078
000078
000078
000078
000078
000078
000078
0000F0
8001F0
E007E0
FFFFC0
FFFF80
3FFE00
ENDCHAR
STARTCHAR 0418
ENCODING 1048
SWIDTH 697 0
DWIDTH 31 0
BBX 29 32 2 0
BITMAP
01C00078
03C000F8
03C001F8
038003F8
038003F0
078007F0
07800F70
07801EF0
07001CE0
070038E0
0F0078E0
0F00F1E0
0E01E1E0
0E01C1C0
0E03C1C0
1E0781C0
1E0F03C0
1C0E03C0
1C1E0380
3C3C0380
3C780780
3CF00780
38E00780
39E00700
7BC00700
7F800F00
77000F00
7F000E00
7E000E00
FC000E00
F8001E00
F0001E00
ENDCHAR
STARTCHAR 0419
ENCODING 1049
SWIDTH 697 0
DWIDTH 31 0
BBX 29 42 2 0
BITMAP
000E00E0
001E00E0
000E01E0
000E03C0
000FFF80
0007FF00
0003FC00
00000000
00000000
00000000
01C00078
03C000F8
03C001F8
038003F8
038003F0
078007F0
07800F70
07801EF0
07001CE0
070038E0
0F0078E0
0F00F1E0
0E01E1E0
0E01C1C0
0E03C1C0
1E0781C0
1E0F03C0
1C0E03C0
1C1E0380
3C3C0380
3C780780
3CF00780
38E00780
39E00700
7BC00700
7F800F00
77000F00
7F000E00
7E000E00
FC000E00
F8001E00
F0001E00
ENDCHAR
STARTCHAR 041A
ENCODING 1050
SWIDTH 540 0
DWIDTH 24 0
BBX 27 32 2 0
BITMAP
01C003E0
03C007C0
03C00F80
03C01F00
03803C00
07807800
0780F000
0781E000
0703C000
07078000
0F0F0000
0F1E0000
0F3C0000
0E780000
0EF00000
1FE00000
1FE00000
1EF00000
1CF00000
3C780000
3C3C0000
3C3C0000
3C1E0000
381F0000
780F0000
78078000
78078000
7003C000
7001E000
F001E000
F000F000
F0007800
ENDCHAR
STARTCHAR 041B
ENCODING 1051
SWIDTH 630 0
DWIDTH 28 0
BBX 30 33 -1 -1
BITMAP
0003FFFC
0003FFFC
0003FFFC
0003FFF8
00078078
00078078
00070078
000F0070
000F0070
000F00F0
000E00F0
001E00F0
001E00E0
001C00E0
003C01E0
003C01E0
003C01E0
003801C0
007803C0
007803C0
007003C0
00F003C0
00F00380
01E00780
01E00780
01C00780
03C00700
07C00700
0F800F00
FF000F00
FF000F00
FC000E00
20000000
ENDCHAR
STARTCHAR 041C
ENCODING 1052
SWIDTH 832 0
DWIDTH 37 0
BBX 35 32 2 0
BITMAP
03F00003E0
03F00007E0
03F0000FE0
03F0000FE0
03F0001FC0
07F0001DC0
0778003DC0
0778003BC0
0738007BC0
0738007380
0F3800E380
0F3801E780
0E3801C780
0E3803C780
0E3C038700
1E3C078F00
1E1C070F00
1C1C0F0F00
1C1C0E0F00
3C1C1C0E00
3C1C1C1E00
3C1C381E00
381E781E00
380E701C00
780EF01C00
780EE03C00
700FE03C00
700FC03C00
700F803800
F00F803800
F00F007800
E007007800
ENDCHAR
STARTCHAR 041D
ENCODING 1053
SWIDTH 675 0
DWIDTH 30 0
BBX 28 32 2 0
BITMAP
01C00070
03C000F0
03C000F0
03C000F0
038000E0
078000E0
078001E0
078001E0
078001E0
070001C0
0F0001C0
0F0003C0
0F0003C0
0E0003C0
0FFFFF80
1FFFFF80
1FFFFF80
1E000780
1C000780
1C000700
3C000F00
3C000F00
3C000F00
38000E00
78000E00
78001E00
78001E00
78001E00
70001C00
F0001C00
F0003C00
F0003C00
ENDCHAR
STARTCHAR 041E
ENCODING 1054
SWIDTH 720 0
DWIDTH 32 0
BBX 28 32 3 0
BITMAP
000FF800
007FFE00
00FFFF00
01F81F80
03E007C0
078003C0
0F8003E0
1F0001E0
1E0001E0
3C0001E0
3C0000F0
3C0000F0
780000F0
780000F0
780000F0
780001E0
F00001E0
F00001E0
F00001E0
F00001E0
F00003C0
F00003C0
F00007C0
78000780
78000F80
78000F00
3C001F00
3E007E00
1F80FC00
0FFFF800
07FFE000
01FF8000
ENDCHAR
STARTCHAR 041F
ENCODING 1055
SWIDTH 675 0
DWIDTH 30 0
BBX 28 32 2 0
BITMAP
01FFFFF0
03FFFFF0
03FFFFF0
03FFFFF0
038000E0
078001E0
078001E0
078001E0
078001E0
070001C0
0F0003C0
0F0003C0
0F0003C0
0E0003C0
0E000380
1E000780
1E000780
1E000780
1C000700
3C000700
3C000F00
3C000F00
3C000F00
38000E00
78001E00
78001E00
78001E00
70001E00
70001C00
F0003C00
F0003C00
F0003C00
ENDCHAR
STARTCHAR 0420
ENCODING 1056
SWIDTH 562 0
DWIDTH 25 0
BBX 23 32 2 0
BITMAP
01FF80
03FFF0
03FFF8
03C3FC
03803C
07801E
07801E
07801E
07801E
07001E
0F001E
0F001E
0F001E
0E003C
0E007C
1E01F8
1FFFF0
1FFFC0
1FFF00
3C0000
3C0000
3C0000
3C0000
380000
780000
780000
780000
700000
700000
F00000
F00000
F00000
ENDCHAR
STARTCHAR 0421
ENCODING 1057
SWIDTH 585 0
DWIDTH 26 0
BBX 25 32 3 0
BITMAP
0007FC00
003FFF80
007FFF80
01FC0700
03F00100
07C00000
0F800000
0F000000
1E000000
1E000000
3C000000
3C000000
78000000
78000000
78000000
78000000
70000000
F0000000
F0000000
F0000000
F0000000
F0000000
F0000000
78000000
78000000
78000000
7C000000
3E000000
1F806000
0FFFE000
07FFE000
03FFC000
ENDCHAR
STARTCHAR 0422
ENCODING 1058
SWIDTH 495 0
DWIDTH 22 0
BBX 22 32 4 0
BITMAP
7FFFFC
FFFFFC
FFFFFC
FFFFF8
007000
00F000
00F000
00F000
00F000
00E000
01E000
01E000
01E000
01C000
01C000
03C000
03C000
03C000
038000
078000
078000
078000
078000
070000
0F0000
0F0000
0F0000
0F0000
0E0000
1E0000
1E0000
1E0000
ENDCHAR
STARTCHAR 0423
ENCODING 1059
SWIDTH 562 0
DWIDTH 25 0
BBX 29 32 0 0
BITMAP
07000078
07800078
078000F0
038001E0
038001E0
03C003C0
03C003C0
01C00780
01E00F00
01E00F00
00E01E00
00E01E00
00F03C00
00F07800
00707800
0070F000
0078E000
0039E000
0039C000
003BC000
001F8000
001F0000
001F0000
001E0000
003C0000
003C0000
00780000
00F00000
83F00000
FFE00000
FF800000
FF000000
ENDCHAR
STARTCHAR 0424
ENCODING 1060
SWIDTH 742 0
DWIDTH 33 0
BBX 29 32 3 0
BITMAP
0000F000
0000E000
0001E000
0001E000
003FFE00
01FFFF80
07FFFFC0
0FE3C7E0
1F03C1F0
3E03C0F0
3C03C0F0
78038078
78078078
78078078
F0078078
F0070078
F00F0078
F00F0070
F00F00F0
F00F00F0
780E01E0
781E03E0
7C1E07C0
3E1E1F80
1FFFFF00
0FFFFC00
03FFF000
007C0000
003C0000
00380000
00780000
00780000
ENDCHAR
STARTCHAR 0425
ENCODING 1061
SWIDTH 517 0
DWIDTH 23 0
BBX 29 32 -2 0
BITMAP
01E00078
01E000F0
00E001E0
00F003C0
00700780
00780780
00780F00
00381E00
003C3C00
003C3C00
001C7800
001EF000
000FE000
000FC000
000FC000
000F8000
000F8000
001FC000
003FC000
0079C000
0071E000
00F1E000
01E0E000
03C0F000
0780F000
07807000
0F007800
1E007800
3C003C00
3C003C00
78003C00
F0001E00
ENDCHAR
STARTCHAR 0426
ENCODING 1062
SWIDTH 652 0
DWIDTH 29 0
BBX 28 40 2 -8
BITMAP
03C000F0
03C000F0
03C000E0
03C001E0
038001E0
078001E0
078001E0
078001C0
070003C0
070003C0
0F0003C0
0F000380
0F000380
0E000780
0E000780
1E000780
1E000700
1E000F00
1C000F00
3C000F00
3C000F00
3C000E00
3C001E00
38001E00
78001E00
78001C00
78001C00
70003C00
70003C00
FFFFFF80
FFFFFF80
FFFFFF80
00000780
00000700
00000700
00000F00
00000F00
00000F00
00000E00
00000E00
ENDCHAR
STARTCHAR 0427
ENCODING 1063
SWIDTH 630 0
DWIDTH 28 0
BBX 23 32 5 0
BITMAP
1E000E
1E000E
1C001E
3C001E
3C001E
3C001C
38001C
38003C
78003C
78003C
780038
700078
700078
F00078
F00078
F00070
F801F0
7E3FF0
7FFFF0
3FFEE0
0FE0E0
0001E0
0001E0
0001E0
0001C0
0003C0
0003C0
0003C0
0003C0
000380
000780
000780
ENDCHAR
STARTCHAR 0428
ENCODING 1064
SWIDTH 945 0
DWIDTH 42 0
BBX 41 32 2 0
BITMAP
03C003800780
03C003800700
03C007800700
03C007800F00
038007800F00
078007000F00
07800F000E00
07800F000E00
07000F001E00
07000F001E00
0F000E001E00
0F001E001C00
0F001E003C00
0E001E003C00
0E001C003C00
1E001C003C00
1E003C003800
1E003C007800
1C003C007800
3C0038007800
3C0038007000
3C0078007000
3C007800F000
38007800F000
78007000F000
7800F000E000
7800F000E000
7000F001E000
7000F001E000
FFFFFFFFE000
FFFFFFFFC000
FFFFFFFFC000
ENDCHAR
STARTCHAR 0429
ENCODING 1065
SWIDTH 945 0
DWIDTH 42 0
BBX 41 40 2 -8
BITMAP
03C003800780
03C003800780
03C007800700
03C007800F00
038007800F00
078007000F00
07800F000E00
07800F000E00
07000F001E00
07000F001E00
0F000E001E00
0F001E001C00
0F001E001C00
0E001E003C00
0E001C003C00
1E001C003C00
1E003C003800
1E003C007800
1C003C007800
3C0038007800
3C0038007000
3C0078007000
3C007800F000
38007800F000
78007000F000
7800F000E000
7800F000E000
7000F001E000
7000F001E000
FFFFFFFFFC00
FFFFFFFFFC00
FFFFFFFFFC00
000000003C00
000000003800
000000003800
000000007800
000000007800
000000007000
000000007000
000000007000
ENDCHAR
STARTCHAR 042A
ENCODING 1066
SWIDTH 607 0
DWIDTH 27 0
BBX 21 32 4 0
BITMAP
7FE000
FFE000
FFE000
FFE000
01E000
01C000
01C000
03C000
03C000
03C000
038000
078000
078000
078000
07FF80
07FFE0
0FFFF0
0F01F0
0F0078
0E0078
0E0078
1E0038
1E0038
1E0078
1C0078
1C0078
3C00F0
3C01F0
3C07E0
3FFFC0
7FFF00
7FF800
ENDCHAR
STARTCHAR 042B
ENCODING 1067
SWIDTH 765 0
DWIDTH 34 0
BBX 33 32 2 0
BITMAP
01C0000780
03C0000780
03C0000780
03C0000700
0380000F00
0780000F00
0780000F00
0780000F00
0700000E00
0700001E00
0F00001E00
0F00001E00
0F00001C00
0E00001C00
0FFE003C00
1FFF803C00
1FFFC03C00
1E03E03800
1C01F03800
3C00F07800
3C00F07800
3C00F07800
3C00F07000
3800F0F000
7800F0F000
7801E0F000
7801E0F000
7003C0E000
701FC1E000
FFFF81E000
FFFE01E000
FFF001C000
ENDCHAR
STARTCHAR 042C
ENCODING 1068
SWIDTH 540 0
DWIDTH 24 0
BBX 20 32 2 0
BITMAP
01C000
03C000
03C000
03C000
038000
078000
078000
078000
070000
070000
0F0000
0F0000
0F0000
0E0000
0FFF00
1FFF80
1FFFE0
1E03E0
1C01F0
3C00F0
3C00F0
3C00F0
3C00F0
3800F0
7800F0
7800F0
7801E0
7003E0
701FC0
FFFF80
FFFE00
FFF000
ENDCHAR
STARTCHAR 042D
ENCODING 1069
SWIDTH 585 0
DWIDTH 26 0
BBX 25 32 0 0
BITMAP
00FFC000
07FFF000
07FFF800
0380FC00
00003E00
00001E00
00000F00
00000F00
00000F00
00000780
00000780
00000780
00000780
00000780
01FFFF80
01FFFF80
01FFFF00
00000F00
00000F00
00000F00
00000F00
00001E00
00001E00
00003C00
00003C00
00007800
0000F800
8003F000
F00FE000
FFFFC000
FFFF0000
3FFC0000
ENDCHAR
STARTCHAR 042E
ENCODING 1070
SWIDTH 967 0
DWIDTH 43 0
BBX 40 32 2 0
BITMAP
01C0007FC0
03C001FFE0
03C007FFF8
03C00FC0FC
03801F007C
07803E003E
07807C001E
078078001F
0700F0000F
0700F0000F
0F01E0000F
0F01E0000F
0F01E0000F
0E03C0000F
0FFFC0000F
1FFFC0000F
1FFFC0000F
1E03C0000F
1C03C0001E
3C03C0001E
3C03C0001E
3C03C0001E
3C03C0003C
3803C0003C
7803C00078
7801E000F8
7801E001F0
7001F003E0
7000FC07E0
F0007FFF80
F0003FFF00
F0000FFC00
ENDCHAR
STARTCHAR 042F
ENCODING 1071
SWIDTH 562 0
DWIDTH 25 0
BBX 27 32 -1 0
BITMAP
0001FFE0
000FFFC0
003FFFC0
007FC3C0
00F803C0
01F003C0
01E00380
01C00780
03C00780
03C00780
03C00700
03C00700
03E00F00
01E00F00
01F00F00
00FF0E00
007FFE00
001FFE00
003FFE00
00781E00
00F81C00
01F03C00
01E03C00
03C03C00
07C03C00
0F803800
0F007800
1E007800
3C007800
7C007000
78007000
F000F000
ENDCHAR
STARTCHAR 0430
ENCODING 1072
SWIDTH 562 0
DWIDTH 25 0
BBX 22 24 2 0
BITMAP
00FE1C
01FF1C
07FF9C
0FC1FC
0F00F8
1E00F8
3C00F8
3C0078
780070
7800F0
7800F0
7000F0
F000F0
F000E0
F001E0
F001E0
F003E0
F003E0
F007C0
F00FC0
781DC0
7FF9C0
3FF1C0
1FC380
ENDCHAR
STARTCHAR 0431
ENCODING 1073
SWIDTH 540 0
DWIDTH 24 0
BBX 24 34 2 0
BITMAP
00000E
0001FE
001FFF
007FF8
00FF00
01F000
03E000
078000
0F0000
0F0000
1E0000
1E0000
3C3F00
3CFFC0
39FFE0
7BC3E0
7F01E0
7C00F0
7C00F0
7800F0
F000F0
F000F0
F000F0
F000F0
F000E0
F001E0
F001E0
F001E0
7003C0
7807C0
7C0F80
3FFF00
1FFE00
0FF800
ENDCHAR
STARTCHAR 0432
ENCODING 1074
SWIDTH 517 0
DWIDTH 23 0
BBX 20 24 2 0
BITMAP
007F80
03FFE0
07FFF0
0F80F0
1F00F0
1E0070
3C0070
380070
7800F0
7801E0
703FC0
FFFF00
FFFF00
FFFFC0
F003C0
F001E0
F001E0
F001E0
7801E0
7801C0
7C03C0
3FFF80
1FFF00
07FE00
ENDCHAR
STARTCHAR 0433
ENCODING 1075
SWIDTH 450 0
DWIDTH 20 0
BBX 18 24 1 0
BITMAP
03FE00
1FFF00
0FFF80
0E07C0
0003C0
0003C0
0003C0
000380
000F80
001F00
00FE00
03F800
0FE000
3F0000
7C0000
780000
F00000
F00000
F00000
F00000
F80600
7FFE00
3FFE00
1FF800
ENDCHAR
STARTCHAR 0434
ENCODING 1076
SWIDTH 562 0
DWIDTH 25 0
BBX 21 34 2 0
BITMAP
00FF00
03FFC0
01FFE0
0103E0
0000F0
0000F0
000078
000078
000078
000078
000038
007838
03FF38
07FFB8
0F83B8
1F01F8
1E00F8
3C00F8
3C0078
780078
780078
700070
F000F0
F000F0
F000E0
F001E0
F001E0
F003C0
F007C0
780780
7C1F00
3FFE00
1FFC00
0FF000
ENDCHAR
STARTCHAR 0435
ENCODING 1077
SWIDTH 495 0
DWIDTH 22 0
BBX 19 24 2 0
BITMAP
00FF00
01FF80
07FFC0
0F83E0
0F01E0
1E01E0
3C01E0
3C01C0
7803C0
780F80
7BFF00
7FFE00
FFF800
FD0000
F00000
F00000
F00000
F00000
700000
780000
7C0300
3FFF00
1FFF00
0FFC00
ENDCHAR
STARTCHAR 0436
ENCODING 1078
SWIDTH 810 0
DWIDTH 36 0
BBX 39 24 -1 0
BITMAP
0FE00F00FE
0FF00E03FE
0FF80E07FE
007C0E0F80
003C0E0F00
003C1E1E00
001C1C3C00
001E1C3C00
001E1C3800
001E3C7800
001E3C7800
001FFFF800
001FFFF000
003C387000
003C78F000
003C78F000
0078707000
0078707000
00F0707800
01F0F07800
03E0E07C00
7FC0E03FE0
7F80E01FE0
FE00E00FE0
ENDCHAR
STARTCHAR 0437
ENCODING 1079
SWIDTH 427 0
DWIDTH 19 0
BBX 18 24 0 0
BITMAP
03FE00
0FFF80
0FFFC0
0E03C0
0003C0
0001C0
0001C0
0003C0
0003C0
000F80
03FE00
03F800
03FE00
001F00
000700
000780
000780
000780
000780
000F00
C01F00
FFFE00
FFFC00
7FF000
ENDCHAR
STARTCHAR 0438
ENCODING 1080
SWIDTH 562 0
DWIDTH 25 0
BBX 22 24 2 0
BITMAP
0F001C
0E003C
0E003C
1E003C
1E0038
1E0038
1C0078
3C0078
3C0078
3C0070
3C0070
3800F0
7800F0
7800E0
7801E0
7001E0
7003E0
F003E0
F007C0
F00FC0
781DC0
7FF9C0
3FF3C0
1FC380
ENDCHAR
STARTCHAR 0439
ENCODING 1081
SWIDTH 562 0
DWIDTH 25 0
BBX 23 34 2 0
BITMAP
01C01E
01C01E
01C01C
01E03C
00FFF8
00FFF0
003FC0
000000
000000
000000
0F001C
0E003C
0E003C
1E003C
1E0038
1E0038
1C0078
3C0078
3C0078
3C0070
3C0070
3800F0
7800F0
7800E0
7801E0
7001E0
7003E0
F003E0
F007C0
F00FC0
781DC0
7FF9C0
3FF3C0
1FC380
ENDCHAR
STARTCHAR 043A
ENCODING 1082
SWIDTH 472 0
DWIDTH 21 0
BBX 22 24 1 0
BITMAP
07803C
078078
0700F0
0701E0
0F03C0
0F0780
0F0F00
0E1E00
0E3C00
1E7800
1EF000
1DE000
1FE000
3DE000
3CF000
3C7800
387800
383C00
781E00
781E00
780F00
700F80
700780
F003C0
ENDCHAR
STARTCHAR 043B
ENCODING 1083
SWIDTH 517 0
DWIDTH 23 0
BBX 24 24 -2 0
BITMAP
0000FF
0003FF
000FFF
000F0F
001E0F
003C0F
003C0E
00381E
00781E
00701E
00F01C
00F01C
00E03C
01E03C
01E03C
01C038
03C038
038078
078078
078078
0F0070
FE00F0
FE00F0
F800F0
ENDCHAR
STARTCHAR 043C
ENCODING 1084
SWIDTH 675 0
DWIDTH 30 0
BBX 28 24 1 0
BITMAP
07C001F0
07C001F0
07C003F0
07C003F0
0EE00770
0EE007E0
0EE00EE0
0EE01EE0
0EE01CE0
1CE039E0
1C6039C0
1C7071C0
1C7071C0
1C70E3C0
3870E3C0
3871C380
3873C380
38738380
783F0780
703F0780
703E0700
703E0700
703C0700
F03C0F00
ENDCHAR
STARTCHAR 043D
ENCODING 1085
SWIDTH 585 0
DWIDTH 26 0
BBX 24 24 1 0
BITMAP
07800F
07800F
07000F
07000E
0F000E
0F001E
0F001E
0E001E
0E001C
1E001C
1FFFFC
1FFFFC
1FFFFC
3C0038
3C0078
3C0078
380078
380078
780070
7800F0
7800F0
7000F0
7000E0
F000E0
ENDCHAR
STARTCHAR 043E
ENCODING 1086
SWIDTH 562 0
DWIDTH 25 0
BBX 21 24 2 0
BITMAP
007F00
01FFC0
07FFE0
0F81E0
1F00F0
1E00F0
3C0078
3C0078
780078
780078
700078
700078
F00078
F00070
F000F0
F000F0
F000E0
F001E0
7003E0
7803C0
7C0F80
3FFF00
1FFE00
07F800
ENDCHAR
STARTCHAR 043F
ENCODING 1087
SWIDTH 562 0
DWIDTH 25 0
BBX 22 24 1 0
BITMAP
070FF0
071FF8
073FFC
0F787C
0FE03C
0FC03C
0F803C
0F003C
1F003C
1E003C
1E003C
1E0078
1C0078
3C0078
3C0078
3C0070
3C00F0
7800F0
7800F0
7800F0
7801E0
7801E0
F001E0
F001E0
ENDCHAR
STARTCHAR 0440
ENCODING 1088
SWIDTH 562 0
DWIDTH 25 0
BBX 24 35 -1 -11
BITMAP
01C1F8
01C7FC
01CFFE
01DC1F
03F80F
03F00F
03E007
03C007
03C007
078007
078007
07800F
07000F
0F000F
0F000F
0F001E
0F001E
0F003C
1F003C
1F8078
1D80F8
1DFFF0
1CFFE0
3C7F80
3C0000
3C0000
380000
380000
780000
780000
780000
700000
F00000
F00000
F00000
ENDCHAR
STARTCHAR 0441
ENCODING 1089
SWIDTH 450 0
DWIDTH 20 0
BBX 18 24 2 0
BITMAP
007F80
01FFC0
07FFC0
0FC0C0
0F0000
1E0000
3C0000
3C0000
780000
780000
780000
700000
F00000
F00000
F00000
F00000
F00000
F00000
F00000
780000
7C0200
3FFE00
1FFE00
0FFC00
ENDCHAR
STARTCHAR 0442
ENCODING 1090
SWIDTH 855 0
DWIDTH 38 0
BBX 35 24 1 0
BITMAP
0707E03F80
071FF07FC0
073FF1FFE0
07707BC1E0
0FE07B01E0
0FC03F00E0
0F803E00E0
0F003C01E0
0F007C01E0
1E007801E0
1E007801E0
1E007001C0
1C007003C0
3C00F003C0
3C00F003C0
3C00F00380
3800E00380
3801E00780
7801E00780
7801E00780
7801C00700
7001C00700
7003C00F00
F003C00F00
ENDCHAR
STARTCHAR 0443
ENCODING 1091
SWIDTH 450 0
DWIDTH 20 0
BBX 26 35 -4 -11
BITMAP
03C001C0
03C003C0
03C00380
01C00780
01C00F00
01C00F00
01E01E00
01E01E00
01E03C00
00E03C00
00E07800
00E07000
00E0F000
00F0E000
00F1E000
00F1C000
0073C000
00738000
00778000
00770000
007F0000
007E0000
007C0000
003C0000
00380000
00780000
00700000
00F00000
01E00000
01E00000
03C00000
8F800000
FF000000
FE000000
78000000
ENDCHAR
STARTCHAR 0444
ENCODING 1092
SWIDTH 652 0
DWIDTH 29 0
BBX 25 45 2 -11
BITMAP
0000E000
0001E000
0001E000
0001C000
0001C000
0001C000
0003C000
0003C000
00038000
00038000
003FF000
01FFFC00
03FFFE00
0FC73F00
1F070F00
1E0F0780
3C0F0780
380E0780
780E0380
780E0380
701E0380
F01E0380
F01C0780
F01C0780
F01C0780
F03C0700
F03C0F00
F0380F00
78381E00
78383C00
3E78F800
1FFFF000
0FFFE000
07FF8000
00F00000
00F00000
00E00000
00E00000
00E00000
01E00000
01E00000
01C00000
01C00000
01C00000
03C00000
ENDCHAR
STARTCHAR 0445
ENCODING 1093
SWIDTH 472 0
DWIDTH 21 0
BBX 23 24 -1 0
BITMAP
07001E
07803C
03807C
03C078
03C0F0
01C1E0
01E3C0
00E780
00F700
007F00
007E00
003C00
007C00
00FC00
01FE00
01CE00
03CF00
078F00
0F0780
1E0780
3C0380
7C03C0
7801C0
F001E0
ENDCHAR
STARTCHAR 0446
ENCODING 1094
SWIDTH 585 0
DWIDTH 26 0
BBX 22 32 2 -8
BITMAP
0F001C
0E003C
0E003C
1E003C
1E0038
1E0038
1C0078
3C0078
3C0078
3C0070
3C0070
3800F0
7800F0
7800E0
7801E0
7001E0
7003E0
F003E0
F007C0
F00FC0
781DC0
7FF9FC
3FF1F8
1FC0F8
000078
000078
000078
000070
0000F0
0000F0
0000F0
0000E0
ENDCHAR
STARTCHAR 0447
ENCODING 1095
SWIDTH 540 0
DWIDTH 24 0
BBX 20 24 3 0
BITMAP
3C0070
3C00F0
3800F0
7800F0
7800E0
7801E0
7001E0
7001E0
7003E0
F007C0
F007C0
781FC0
7C7FC0
7FF380
3FE380
0F8780
000780
000780
000700
000700
000F00
000F00
000F00
000E00
ENDCHAR
STARTCHAR 0448
ENCODING 1096
SWIDTH 855 0
DWIDTH 38 0
BBX 35 24 2 0
BITMAP
0F003C00E0
0E003801E0
1E007801E0
1E007801E0
1E007801E0
1E007001C0
1C007003C0
3C00F003C0
3C00F003C0
3C00F00380
3800E00380
3800E00780
7801E00780
7801E00780
7801E00F00
7003C00F00
7003C00F00
F007C01F00
F00FC03F00
F01DC07E00
7839E0EE00
7FF1FFCE00
3FE0FF8E00
1FC07F1C00
ENDCHAR
STARTCHAR 0449
ENCODING 1097
SWIDTH 877 0
DWIDTH 39 0
BBX 35 32 2 -8
BITMAP
0F003C00E0
0E003801E0
1E007801E0
1E007801E0
1E007801E0
1E007001C0
1C007003C0
3C00F003C0
3C00F003C0
3C00F00380
3800E00380
3800E00780
7801E00780
7801E00780
7801E00F00
7003C00F00
7003C00F00
F007C01F00
F00FC03F00
F01DC07F00
7839E0EF00
7FF1FFCFE0
3FE0FF8FE0
1FC07F07C0
00000003C0
00000003C0
00000003C0
0000000380
0000000380
0000000780
0000000780
0000000780
ENDCHAR
STARTCHAR 044A
ENCODING 1098
SWIDTH 585 0
DWIDTH 26 0
BBX 22 24 2 0
BITMAP
FFF000
FFE000
FFE000
01E000
01E000
01E000
01C000
03C000
03C000
03C000
03BFC0
03FFF0
07FFF8
0780F8
078038
07003C
07003C
07003C
070038
078078
0780F8
03FFF0
03FFE0
00FF80
ENDCHAR
STARTCHAR 044B
ENCODING 1099
SWIDTH 697 0
DWIDTH 31 0
BBX 28 24 3 0
BITMAP
1E0000F0
1C0000E0
1C0000E0
3C0001E0
3C0001E0
3C0001E0
380001C0
780003C0
780003C0
780003C0
77F80380
7FFE0380
FFFF0780
F01F0780
F00F0780
E0078700
E0078700
E0078F00
E0070F00
F00F0F00
F01F0E00
7FFE0E00
3FFC1E00
1FF01E00
ENDCHAR
STARTCHAR 044C
ENCODING 1100
SWIDTH 517 0
DWIDTH 23 0
BBX 17 24 3 0
BITMAP
1E0000
1C0000
1C0000
3C0000
3C0000
3C0000
380000
780000
780000
780000
77F800
7FFE00
FFFF00
F00F80
F00780
E00380
E00380
E00380
E00780
F00780
F80F00
7FFE00
3FFC00
1FF800
ENDCHAR
STARTCHAR 044D
ENCODING 1101
SWIDTH 450 0
DWIDTH 20 0
BBX 18 24 0 0
BITMAP
07F800
1FFE00
1FFF00
080F80
000780
0003C0
0003C0
0003C0
0003C0
0001C0
0FFFC0
0FFFC0
0FFFC0
0003C0
0003C0
000380
000780
000780
000F00
001F00
803E00
FFFC00
FFF800
7FE000
ENDCHAR
STARTCHAR 044E
ENCODING 1102
SWIDTH 765 0
DWIDTH 34 0
BBX 32 24 1 0
BITMAP
07800FE0
07803FF8
07007FFC
0700F83C
0F01E01E
0F03C01E
0F03C00E
0E07800F
0E07800F
1E07000F
1FFF000F
1FFF000F
1FFF000E
3C0F001E
3C0E001E
3C0E001E
380F001C
380F003C
780F0078
78078078
780781F0
7003FFE0
7001FFC0
F000FF00
ENDCHAR
STARTCHAR 044F
ENCODING 1103
SWIDTH 517 0
DWIDTH 23 0
BBX 23 24 -1 0
BITMAP
001FFE
00FFFE
01FFFE
03F01C
07C01C
07803C
07003C
070038
070038
078078
07C078
03FFF8
01FFF0
00FFF0
01F8F0
03C0F0
0780F0
0780E0
0F00E0
0F01E0
1E01E0
FE01E0
FC01C0
F803C0
ENDCHAR
STARTCHAR 0450
ENCODING 1104
SWIDTH 495 0
DWIDTH 22 0
BBX 19 34 2 0
BITMAP
00F000
007000
007800
003800
001C00
001C00
000E00
000000
000000
000000
00FF00
01FF80
07FFC0
0F83E0
0F01E0
1E01E0
3C01E0
3C01C0
7803C0
780F80
7BFF00
7FFE00
FFF800
FD0000
F00000
F00000
F00000
F00000
700000
780000
7C0300
3FFF00
1FFF00
0FFC00
ENDCHAR
STARTCHAR 0451
ENCODING 1105
SWIDTH 495 0
DWIDTH 22 0
BBX 19 32 2 0
BITMAP
00E0E0
01E1E0
01E1E0
00C0C0
000000
000000
000000
000000
00FF00
01FF80
07FFC0
0F83E0
0F01E0
1E01E0
3C01E0
3C01C0
7803C0
780F80
7BFF00
7FFE00
FFF800
FD0000
F00000
F00000
F00000
F00000
700000
780000
7C0300
3FFF00
1FFF00
0FFC00
ENDCHAR
STARTCHAR 0452
ENCODING 1106
SWIDTH 562 0
DWIDTH 25 0
BBX 22 45 1 -11
BITMAP
01E000
01E000
01E000
01C000
1FFFC0
1FFFC0
1FFF80
03C000
038000
078000
078000
078FF0
073FF8
077FF8
0FF03C
0FC03C
0F803C
0F803C
0F003C
1F003C
1E0038
1E0038
1C0078
3C0078
3C0078
3C0070
3800F0
3800F0
7800F0
7800E0
7800E0
7001E0
7001E0
F001E0
0001C0
0001C0
0003C0
0003C0
0003C0
000780
000780
009F00
00FF00
00FE00
007000
ENDCHAR
STARTCHAR 0453
ENCODING 1107
SWIDTH 450 0
DWIDTH 20 0
BBX 21 34 1 0
BITMAP
0000F8
0000F0
0001E0
0003C0
000780
000700
000E00
000000
000000
000000
03FE00
1FFF00
0FFF80
0E07C0
0003C0
0003C0
0003C0
000380
000F80
001F00
00FE00
03F800
0FE000
3F0000
7C0000
780000
F00000
F00000
F00000
F00000
F80600
7FFE00
3FFE00
1FF800
ENDCHAR
STARTCHAR 0454
ENCODING 1108
SWIDTH 450 0
DWIDTH 20 0
BBX 18 24 2 0
BITMAP
007F80
01FFC0
07FFC0
0FC0C0
1F0000
1E0000
3C0000
3C0000
780000
780000
7FFE00
7FFE00
FFFC00
F00000
F00000
F00000
F00000
F00000
F00000
780000
7C0200
3FFE00
1FFE00
0FFC00
ENDCHAR
STARTCHAR 0455
ENCODING 1109
SWIDTH 427 0
DWIDTH 19 0
BBX 18 24 0 0
BITMAP
01FF00
07FFC0
0FFFC0
0F0180
1E0000
1E0000
1E0000
1E0000
1F0000
0F8000
07E000
03F000
01FC00
007E00
003E00
000F00
000F00
000F00
000F00
000F00
C01E00
FFFE00
FFFC00
7FF000
ENDCHAR
STARTCHAR 0456
ENCODING 1110
SWIDTH 247 0
DWIDTH 11 0
BBX 11 33 1 0
BITMAP
00C0
01E0
03E0
03E0
01C0
0000
0000
0000
0000
0780
0780
0700
0700
0F00
0F00
0F00
0E00
0E00
1E00
1E00
1E00
1C00
3C00
3C00
3C00
3800
3800
7800
7800
7800
7000
7000
F000
ENDCHAR
STARTCHAR 0457
ENCODING 1111
SWIDTH 247 0
DWIDTH 11 0
BBX 14 32 1 0
BITMAP
1C1C
3C3C
3C3C
1818
0000
0000
0000
0000
0780
0780
0700
0700
0F00
0F00
0F00
0E00
0E00
1E00
1E00
1E00
1C00
3C00
3C00
3C00
3800
3800
7800
7800
7800
7000
7000
F000
ENDCHAR
STARTCHAR 0458
ENCODING 1112
SWIDTH 247 0
DWIDTH 11 0
BBX 18 44 -6 -11
BITMAP
000180
0003C0
0007C0
000780
000380
000000
000000
000000
000000
000F00
000F00
000E00
000E00
001E00
001E00
001E00
001C00
001C00
003C00
003C00
003C00
003800
003800
007800
007800
007000
007000
00F000
00F000
00F000
00E000
00E000
01E000
01E000
01E000
01C000
01C000
03C000
03C000
078000
DF8000
FF0000
FE0000
780000
ENDCHAR
STARTCHAR 0459
ENCODING 1113
SWIDTH 765 0
DWIDTH 34 0
BBX 33 24 -2 0
BITMAP
0001FC0000
0007FE0000
000FFE0000
001F1E0000
001E1C0000
003C1C0000
003C3C0000
00783C0000
00783C0000
0070380000
00F03BF800
00F07FFE00
00E07FFF00
01E0780F80
01E0700780
01C0700380
03C0700380
0380700380
0780700380
0780780780
0F00780F00
FE007FFF00
FE003FFE00
F8000FF800
ENDCHAR
STARTCHAR 045A
ENCODING 1114
SWIDTH 810 0
DWIDTH 36 0
BBX 32 24 1 0
BITMAP
07801C00
07801C00
07003C00
07003C00
0F003C00
0F003800
0F007800
0E007800
0E007800
1E007000
1FFFF7F0
1FFFFFFC
1FFFFFFE
1C00F01F
3C00E00F
3C00E007
3801E007
3801E007
7801E00F
7800E00F
7800F01E
7000FFFE
70007FFC
F0001FF0
ENDCHAR
STARTCHAR 045B
ENCODING 1115
SWIDTH 562 0
DWIDTH 25 0
BBX 22 34 1 0
BITMAP
01E000
01E000
01E000
01C000
1FFFC0
1FFFC0
1FFF80
038000
038000
078000
0787E0
079FF0
073FF8
07787C
0FE03C
0FC03C
0F803C
0F003C
0F003C
1E003C
1E0038
1E0038
1C0078
3C0078
3C0078
3C0070
3800F0
3800F0
7800F0
7800E0
7800E0
7001E0
7001E0
F001E0
ENDCHAR
STARTCHAR 045C
ENCODING 1116
SWIDTH 472 0
DWIDTH 21 0
BBX 22 34 1 0
BITMAP
0000F0
0001F0
0001E0
0003C0
000780
000E00
001C00
000000
000000
000000
07803C
078078
0700F0
0701E0
0F03C0
0F0780
0F0F00
0E1E00
0E3C00
1E7800
1EF000
1DE000
1FE000
3DE000
3CF000
3C7800
387800
383C00
781E00
781E00
780F00
700F80
700780
F003C0
ENDCHAR
STARTCHAR 045D
ENCODING 1117
SWIDTH 562 0
DWIDTH 25 0
BBX 22 34 2 0
BITMAP
007800
003C00
001C00
001E00
000E00
000700
000300
000000
000000
000000
0F001C
0E003C
0E003C
1E003C
1E0038
1E0038
1C0078
3C0078
3C0078
3C0070
3C0070
3800F0
7800F0
7800E0
7801E0
7001E0
7003E0
F003E0
F007C0
F00FC0
781DC0
7FF9C0
3FF3C0
1FC380
ENDCHAR
STARTCHAR 045E
ENCODING 1118
SWIDTH 450 0
DWIDTH 20 0
BBX 26 45 -4 -11
BITMAP
003803C0
00380380
00380780
003C0F00
003FFF00
001FFC00
0007F800
00000000
00000000
00000000
03C001C0
03C003C0
03C00380
01C00780
01C00F00
01C00F00
01E01E00
01E01E00
01E03C00
00E03C00
00E07800
00E07000
00E0F000
00F0E000
00F1E000
00F1C000
0073C000
00738000
00778000
00770000
007F0000
007E0000
007C0000
003C0000
00380000
00780000
00700000
00F00000
01E00000
01E00000
03C00000
8F800000
FF000000
FE000000
78000000
ENDCHAR
STARTCHAR 045F
ENCODING 1119
SWIDTH 562 0
DWIDTH 25 0
BBX 22 35 2 -11
BITMAP
0F001C
0E003C
0E003C
1E003C
1E0038
1E0038
1C0078
3C0078
3C0078
3C0070
3C0070
3800F0
7800F0
7800E0
7801E0
7001E0
7003E0
F003E0
F007C0
F00FC0
781DC0
7FF9C0
3FF3C0
1FC380
000000
000000
01C000
03C000
03C000
038000
038000
078000
078000
078000
070000
ENDCHAR
STARTCHAR 0460
ENCODING 1120
SWIDTH 900 0
DWIDTH 40 0
BBX 40 32 4 0
BITMAP
78003C000F
78003C000E
780038001E
780038001E
780078001E
780078001C
700078003C
700078003C
7000780038
F000780078
F000780078
F000F80070
F001F800F0
7001F800F0
7003F801E0
7803F801E0
78073801C0
780F3803C0
780E3C0380
781E3C0780
781C3C0700
783C3C0F00
78383C1E00
38701C1E00
3CF01E3C00
3CE01E3800
3DE01E7800
1DC00EF000
1FC00FE000
1F800FE000
1F800FC000
0F00078000
ENDCHAR
STARTCHAR 0461
ENCODING 1121
SWIDTH 765 0
DWIDTH 34 0
BBX 33 24 3 0
BITMAP
7003C00780
F003C00700
F003C00F00
F003800F00
F003800E00
F003801E00
F003801E00
F003801C00
F003803C00
F007803C00
F007807800
F00F807800
F01F80F000
F01F80F000
703BC1E000
7073C1C000
70F1C3C000
78E1C38000
79C1C70000
3BC1CF0000
3B81FE0000
3F00FC0000
1E00F80000
1E00F00000
ENDCHAR
STARTCHAR 0462
ENCODING 1122
SWIDTH 585 0
DWIDTH 26 0
BBX 21 32 3 0
BITMAP
01E000
01E000
01C000
03C000
03C000
7FFFC0
FFFFC0
FFFFC0
078000
078000
078000
070000
070000
0F0000
0FFF00
0FFFC0
0FFFE0
1E03F0
1E00F0
1E00F0
1E0070
1C0078
3C0078
3C0070
3C00F0
3800F0
3801E0
7803E0
781FC0
7FFF80
7FFE00
7FF000
ENDCHAR
STARTCHAR 0463
ENCODING 1123
SWIDTH 540 0
DWIDTH 24 0
BBX 20 29 2 0
BITMAP
03C000
03C000
03C000
038000
038000
FFFE00
FFFE00
FFFE00
070000
070000
0F0000
0F0000
0F0000
0E0000
1E0000
1EFE00
1FFFC0
1FFFC0
1E03E0
3C01E0
3C00F0
3C00F0
3C00F0
3C00E0
3C01E0
1E03E0
1FFFC0
0FFF80
07FE00
ENDCHAR
STARTCHAR 0464
ENCODING 1124
SWIDTH 855 0
DWIDTH 38 0
BBX 38 32 2 0
BITMAP
01C0003FF0
03C001FFFC
03C003FFFC
03C00FF038
03801F8000
07801E0000
07803C0000
0780780000
0700780000
0700F00000
0F00F00000
0F01E00000
0F01E00000
0E03C00000
0FFFFFFF00
1FFFFFFF00
1FFFFFFE00
1E03C00000
1C03800000
3C03800000
3C03800000
3C03800000
3C03C00000
3803C00000
7803C00000
7803E00000
7801E00000
7001F00000
7000FC0300
F0007FFF00
F0003FFF00
F0000FFE00
ENDCHAR
STARTCHAR 0465
ENCODING 1125
SWIDTH 675 0
DWIDTH 30 0
BBX 30 24 1 0
BITMAP
07800FF8
07803FFC
07007FF8
0700F808
0F01F000
0F03E000
0F03C000
0E078000
0E078000
1E070000
1FFFFFC0
1FFFFFC0
1FFFFFC0
3C0E0000
3C0E0000
3C0E0000
380E0000
380F0000
780F0000
780F0000
7807C040
7007FFC0
7003FFC0
F000FF80
ENDCHAR
STARTCHAR 0466
ENCODING 1126
SWIDTH 585 0
DWIDTH 26 0
BBX 26 32 -2 0
BITMAP
00003800
00007C00
00007C00
0000FC00
0000FC00
0001DC00
0003DC00
00039E00
00079E00
00071E00
000F0E00
001E0E00
001E0E00
003C0F00
003FFF00
007FFF00
007FFF00
00F1C700
01E3C700
01E3C700
03C38780
03838780
07838380
0F078380
0F070380
1E0703C0
1E0703C0
3C0F03C0
380F03C0
780E01C0
F00E01C0
F00E01C0
ENDCHAR
STARTCHAR 0467
ENCODING 1127
SWIDTH 517 0
DWIDTH 23 0
BBX 22 24 -2 0
BITMAP
0003E0
0007E0
0007E0
000EE0
001EE0
001CE0
003CF0
0038F0
007870
007070
00FFF0
01FFF0
01FFF8
03CE78
038E78
078E38
0F1E38
0F1C38
1E1C3C
1C1C3C
3C3C3C
383C1C
78381C
F0381C
ENDCHAR
STARTCHAR 0468
ENCODING 1128
SWIDTH 832 0
DWIDTH 37 0
BBX 33 32 2 0
BITMAP
01C0007000
03C000F000
03C001F000
03C001F000
038003F800
078003B800
078007B800
07800F3800
07000F3800
07001E3800
0F001C3C00
0F003C3C00
0F00781C00
0E00781C00
0FFFFFFC00
1FFFFFFC00
1FFFFFFE00
1E01C79E00
1C03C71E00
3C07870E00
3C07870E00
3C0F0F0E00
3C0E0E0F00
381E0E0F00
783C0E0F00
783C0E0700
78781E0700
70781C0700
70F01C0780
F0E01C0780
F1E03C0780
F3C03C0780
ENDCHAR
STARTCHAR 0469
ENCODING 1129
SWIDTH 697 0
DWIDTH 31 0
BBX 28 24 1 0
BITMAP
07801F00
07801F00
07003F00
07003F80
0F007B80
0F00F380
0F00E380
0E01E380
0E01C380
1E03C3C0
1FFFFFC0
1FFFFFC0
1FFFFFC0
3C0E39C0
3C1E79E0
3C1C71E0
383C71E0
387870E0
7878F0E0
78F0F0E0
78E0E0F0
71E0E0F0
73C0E0F0
F3C1E0F0
ENDCHAR
STARTCHAR 046A
ENCODING 1130
SWIDTH 652 0
DWIDTH 29 0
BBX 31 32 -1 0
BITMAP
007FFFFE
00FFFFFE
00FFFFFE
00FFFFFE
0078007C
007800F8
003C01F0
003C01E0
001E03C0
001E0780
000F0F00
000F1E00
0007BC00
0003F800
001FFE00
007FFF80
01FFFFC0
01E1C3C0
03C3C1C0
0783C1E0
0783C1E0
0F0381E0
0F0381E0
1E0781E0
1E0781E0
3C0781E0
3C0700E0
780F00E0
780F00E0
F00F00E0
F00F00E0
E00E00E0
ENDCHAR
STARTCHAR 046B
ENCODING 1131
SWIDTH 585 0
DWIDTH 26 0
BBX 28 24 -2 0
BITMAP
00FFFFF0
01FFFFE0
01FFFFE0
00E003C0
00700780
00780F00
00381E00
001C3C00
001E7800
000EF000
003FF800
00FFFC00
03FFFE00
03C78F00
07870700
0F070700
0E070780
1E0F0780
1C0E0780
3C0E0380
380E0380
781E0380
F01E0380
F01C03C0
ENDCHAR
STARTCHAR 046C
ENCODING 1132
SWIDTH 900 0
DWIDTH 40 0
BBX 40 32 2 0
BITMAP
01C07FFFFF
03C07FFFFE
03C0FFFFFE
03C0FFFFFE
038078007C
0780380078
07803C00F0
07801C01E0
07001E03C0
07000E0780
0F000F0F00
0F00071E00
0F0007BC00
0E0003F800
0FFFFFFE00
1FFFFFFF80
1FFFFFFFC0
1E01E1C3C0
1C03C1C1E0
3C0783C1E0
3C0783C1E0
3C0F03C1E0
3C0F0380E0
381E0780E0
781E0780E0
783C0780E0
783C0780E0
70380700E0
70780F00E0
F0700F00F0
F0F00F00F0
F0E00E00F0
ENDCHAR
STARTCHAR 046D
ENCODING 1133
SWIDTH 787 0
DWIDTH 35 0
BBX 34 24 1 0
BITMAP
0783FFFFC0
0783FFFFC0
0707FFFF80
0703C00F00
0F01C01E00
0F01E03C00
0F00E07800
0E0070F000
0E0079E000
1E003BC000
1FFFFFE000
1FFFFFF800
1FFFFFF800
3C0F1E3C00
3C1E1C1C00
3C3C1C1E00
383C1C1E00
38783C1E00
78783C0E00
78F0380E00
78E0380E00
71E0380F00
71C0780F00
F3C0780F00
ENDCHAR
STARTCHAR 046E
ENCODING 1134
SWIDTH 517 0
DWIDTH 23 0
BBX 25 47 -2 -9
BITMAP
000E0380
000E0F80
00071F80
0003BC00
0003F800
0001F000
000FF800
007FFE00
00FFFF00
01F81F00
00C00F80
00000780
00000780
00000780
00000780
00000780
00000F00
00000F00
00001E00
0000FC00
00FFF000
00FF8000
00FFF000
0001F800
00007C00
00003C00
00001E00
00001E00
00001E00
00001E00
00001E00
00001E00
00003C00
00007C00
0001F800
003FF000
0FFFE000
3FFF0000
7FE00000
78000000
F0000000
F0000000
F0000000
7FFFC000
7FFFE000
3FFFE000
03C0E000
ENDCHAR
STARTCHAR 046F
ENCODING 1135
SWIDTH 427 0
DWIDTH 19 0
BBX 22 37 -2 -8
BITMAP
00707C
0078FC
0039E0
001FC0
001F80
007FC0
03FFE0
03FFF0
0180F0
000078
000078
000078
000070
0000F0
0001E0
00FFC0
00FE00
00FF80
0003C0
0001E0
0000E0
0000E0
0000E0
0001E0
0001E0
0007C0
007F80
0FFF00
3FF800
7F0000
F00000
E00000
E00000
F00000
FFFF80
7FFF80
1FFF80
ENDCHAR
STARTCHAR 0470
ENCODING 1136
SWIDTH 720 0
DWIDTH 32 0
BBX 31 32 4 0
BITMAP
1E01E01E
3C01C01E
3C03C01C
3C03C03C
3C03C03C
3803C03C
7803803C
78078078
78078078
78078078
70070078
F0070070
F00F00F0
F00F00F0
F00F01F0
700E01E0
781E03E0
781E07C0
3E1E1F80
3FFFFF00
1FFFFE00
07FFF000
003C0000
003C0000
003C0000
00380000
00780000
00780000
00780000
00700000
00700000
00F00000
ENDCHAR
STARTCHAR 0471
ENCODING 1137
SWIDTH 697 0
DWIDTH 31 0
BBX 27 45 3 -11
BITMAP
0000E000
0001E000
0001E000
0001E000
0001C000
0001C000
0003C000
0003C000
0003C000
00038000
1C0381E0
1C0781E0
3C0781E0
3C0701E0
3C0701E0
380F01E0
380F01E0
780F01E0
780E01E0
780E01C0
701E01C0
701E03C0
F01E03C0
F01C03C0
F01C0780
F03C0780
F03C0F00
F0380F00
F0381E00
78383E00
7C78FC00
3FFFF000
1FFFE000
07FF8000
00F00000
00F00000
00F00000
00E00000
00E00000
01E00000
01E00000
01C00000
01C00000
01C00000
03C00000
ENDCHAR
STARTCHAR 0472
ENCODING 1138
SWIDTH 720 0
DWIDTH 32 0
BBX 28 32 3 0
BITMAP
000FF800
007FFE00
00FFFF00
01F81F80
03E007C0
078003C0
0F8003E0
1F0001E0
1E0001E0
3C0001E0
3C0000F0
3C0000F0
780000F0
780000F0
7FFFFFF0
7FFFFFE0
FFFFFFE0
F00001E0
F00001E0
F00001E0
F00003C0
F00003C0
F00007C0
78000780
78000F80
78000F00
3C001F00
3E007E00
1F80FC00
0FFFF800
07FFE000
01FF8000
ENDCHAR
STARTCHAR 0473
ENCODING 1139
SWIDTH 562 0
DWIDTH 25 0
BBX 21 24 2 0
BITMAP
007F00
01FFC0
07FFE0
0F81F0
1F00F0
1E0070
3C0078
3C0078
780078
780078
7FFFF8
7FFFF8
FFFFF8
F00070
F000F0
F000F0
F000E0
F001E0
7001C0
7803C0
7C0F80
3FFF00
1FFE00
07F800
ENDCHAR
STARTCHAR 0474
ENCODING 1140
SWIDTH 540 0
DWIDTH 24 0
BBX 26 32 4 0
BITMAP
F00007C0
F0000FC0
F0001FC0
F0003C00
70007800
70007800
7000F000
7800F000
7801E000
7801E000
7803C000
7803C000
78078000
38078000
380F0000
380F0000
381E0000
3C1E0000
3C3C0000
3C3C0000
3C380000
3C780000
1C700000
1CF00000
1CE00000
1DE00000
1DC00000
1DC00000
1F800000
1F800000
1F000000
0F000000
ENDCHAR
STARTCHAR 0475
ENCODING 1141
SWIDTH 427 0
DWIDTH 19 0
BBX 21 24 2 0
BITMAP
F00078
F000F8
F001F8
7003C0
700380
700780
700700
780F00
780E00
781E00
781C00
783C00
383800
387800
387000
38F000
38E000
3DE000
3DC000
3FC000
1F8000
1F8000
1F0000
1F0000
ENDCHAR
STARTCHAR 0476
ENCODING 1142
SWIDTH 540 0
DWIDTH 24 0
BBX 26 42 4 0
BITMAP
3C3C0000
1E3C0000
1E1E0000
0F0E0000
070F0000
03870000
01838000
00000000
00000000
00000000
F00007C0
F0000FC0
F0001FC0
F0003C00
70007800
70007800
7000F000
7800F000
7801E000
7801E000
7803C000
7803C000
78078000
38078000
380F0000
380F0000
381E0000
3C1E0000
3C3C0000
3C3C0000
3C380000
3C780000
1C700000
1CF00000
1CE00000
1DE00000
1DC00000
1DC00000
1F800000
1F800000
1F000000
0F000000
ENDCHAR
STARTCHAR 0477
ENCODING 1143
SWIDTH 427 0
DWIDTH 19 0
BBX 21 34 2 0
BITMAP
F0F000
78F000
787800
3C3800
1C3C00
0E1C00
0E0E00
000000
000000
000000
F00078
F000F8
F001F8
7003C0
700380
700780
700700
780F00
780E00
781E00
781C00
783C00
383800
387800
387000
38F000
38E000
3DE000
3DC000
3FC000
1F8000
1F8000
1F0000
1F0000
ENDCHAR
STARTCHAR 0478
ENCODING 1144
SWIDTH 1170 0
DWIDTH 52 0
BBX 51 43 3 -11
BITMAP
000FF800000000
007FFE00000000
00FFFF00000000
01F81F80000000
03E007C0000000
078003C0000000
0F8003E0000000
1F0001E0000000
1E0001E1E000E0
3C0001E1E001E0
3C0000F1E001C0
3C0000F0E003C0
780000F0E00780
780000F0E00780
780000F0F00F00
780001E0F00F00
F00001E0F01E00
F00001E0701E00
F00001E0703C00
F00001E0703800
F00003C0707800
F00003C0787000
F00007C078F000
7800078078E000
78000F8039E000
78000F0039C000
3C001F003BC000
3E007E003B8000
1F80FC003F8000
0FFFF8003F0000
07FFE0003E0000
01FF80001E0000
000000001C0000
000000003C0000
00000000380000
00000000780000
00000000F00000
00000000F00000
00000001E00000
00000047C00000
0000007F800000
0000007F000000
0000003C000000
ENDCHAR
STARTCHAR 0479
ENCODING 1145
SWIDTH 1012 0
DWIDTH 45 0
BBX 45 35 2 -11
BITMAP
007F00780038
01FFC0780078
07FFE0780070
0F81E03800F0
1F00F03801E0
1E00F03801E0
3C00783C03C0
3C00783C03C0
7800783C0780
7800781C0780
7000781C0F00
7000781C0E00
F000781C1E00
F000701E1C00
F000F01E3C00
F000F01E3800
F000E00E7800
F001E00E7000
7003E00EF000
7803C00EE000
7C0F800FE000
3FFF000FC000
1FFE000F8000
07F800078000
000000070000
0000000F0000
0000000E0000
0000001E0000
0000003C0000
0000003C0000
000000780000
000011F00000
00001FE00000
00001FC00000
00000F000000
ENDCHAR
STARTCHAR 047A
ENCODING 1146
SWIDTH 720 0
DWIDTH 32 0
BBX 28 37 3 -3
BITMAP
0001F000
0001F000
000FF800
003FFE00
00FFFF80
01FBFFC0
03E3E7C0
07C003E0
0F8001E0
1F0000F0
1E0000F0
3C0000F0
3C0000F0
3C0000F0
78000070
780000F0
780000F0
700000F0
F00000F0
F00000F0
F00000F0
F00001E0
F00001E0
F00001E0
F00003E0
780003C0
780007C0
78000F80
3C001F00
3E3C3F00
1FFEFE00
0FFFF800
07FFF000
01FFC000
007C0000
007C0000
00300000
ENDCHAR
STARTCHAR 047B
ENCODING 1147
SWIDTH 562 0
DWIDTH 25 0
BBX 22 28 2 -2
BITMAP
001E00
003E00
007F00
01FFC0
07FFE0
0FFFF0
1F0878
1E0078
3C0038
3C003C
78003C
78003C
70003C
F00038
F00038
F00078
F00078
F00078
F000F0
F000F0
7001E0
7803E0
7CF7C0
3FFF80
1FFF00
07FC00
01F000
01E000
ENDCHAR
STARTCHAR 047C
ENCODING 1148
SWIDTH 945 0
DWIDTH 42 0
BBX 38 46 3 0
BITMAP
0000060000
00001FE000
00003FF800
000078FF00
0000701F00
0000E38100
000007C000
000003C000
000001C000
0000018000
0000070000
0000060000
0000000000
0000000000
001FC03F80
007FF0FFE0
01FFF0FFF0
03F0E071F8
07C0004078
0780000078
0F0000003C
0F0000003C
1E0000003C
1E0000003C
3C0000003C
3C0000003C
3C0000003C
780000003C
780000003C
7800000078
7800000078
F000000078
F000700078
F000F000F0
F000F000F0
F000F000F0
F000F001E0
F000E001E0
F001E003C0
7801E007C0
7801E00780
7C03E00F00
3E07F03F00
3FFFFFFE00
1FFF7FF800
07FC1FF000
ENDCHAR
STARTCHAR 047D
ENCODING 1149
SWIDTH 765 0
DWIDTH 34 0
BBX 31 39 2 0
BITMAP
0000F800
0003FE00
0007FFE0
000707F0
000601F0
00007800
00007C00
00001C00
00001C00
00001800
00007000
00004000
00000000
00000000
00000000
00FE07E0
03FF0FF8
07FE0FFC
0F86043C
1F00003C
1E00001E
3C00001E
3C00001E
7800001E
7800001E
7800001E
F000001E
F007801C
F007803C
F007803C
F007003C
F0070078
F00F0078
F00F00F0
780F01F0
7C1F03E0
3FFFFFC0
3FFFFF80
0FF1FE00
ENDCHAR
STARTCHAR 047E
ENCODING 1150
SWIDTH 900 0
DWIDTH 40 0
BBX 40 39 4 0
BITMAP
0007FFFE00
0007FFFC00
0003040800
0002040800
0000000000
0000000000
0000000000
78003C000F
78003C000E
780038001E
780038001E
780078001E
780078001C
700078003C
700078003C
7000780038
F000780078
F000780078
F000F80070
F001F800F0
7001F800F0
7003F801E0
7803F801E0
78073801C0
780F3803C0
780E3C0380
781E3C0780
781C3C0700
783C3C0F00
78383C1E00
38701C1E00
3CF01E3C00
3CE01E3800
3DE01E7800
1DC00EF000
1FC00FE000
1F800FE000
1F800FC000
0F00078000
ENDCHAR
STARTCHAR 047F
ENCODING 1151
SWIDTH 765 0
DWIDTH 34 0
BBX 33 31 3 0
BITMAP
003FFFE000
003FFFC000
003060C000
0020408000
0000000000
0000000000
0000000000
7003C00780
F003C00700
F003C00F00
F003800F00
F003800E00
F003801E00
F003801E00
F003801C00
F003803C00
F007803C00
F007807800
F00F807800
F01F80F000
F01F80F000
703BC1E000
7073C1C000
70F1C3C000
78E1C38000
79C1C70000
3BC1CF0000
3B81FE0000
3F00FC0000
1E00F80000
1E00F00000
ENDCHAR
STARTCHAR 0480
ENCODING 1152
SWIDTH 562 0
DWIDTH 25 0
BBX 25 43 3 -11
BITMAP
0007FC00
003FFF80
007FFF80
01FC0700
03F00100
07C00000
0F800000
0F000000
1E000000
1E000000
3C000000
3C000000
78000000
78000000
78000000
78000000
70000000
F0000000
F0000000
F0000000
F0000000
F0000000
F0000000
78000000
78000000
78000000
7C000000
3E000000
1F800000
0FFE0000
07FE0000
01FE0000
001C0000
003C0000
003C0000
003C0000
00380000
00380000
00780000
00780000
00780000
00700000
00F00000
ENDCHAR
STARTCHAR 0481
ENCODING 1153
SWIDTH 450 0
DWIDTH 20 0
BBX 18 35 2 -11
BITMAP
007F80
01FFC0
07FFC0
0FC0C0
1F0000
1E0000
3C0000
3C0000
780000
780000
780000
700000
F00000
F00000
F00000
F00000
F00000
F00000
F00000
780000
7C0000
3FF800
1FF800
0FF800
007000
007000
00F000
00F000
00F000
00E000
00E000
01E000
01E000
01E000
01C000
ENDCHAR
STARTCHAR 0482
ENCODING 1154
SWIDTH 607 0
DWIDTH 27 0
BBX 22 28 3 0
BITMAP
000040
0000F0
0000E0
0001E0
0383C0
03E380
01F780
00FF00
003F00
000FC0
001FE0
003DF8
00387C
007818
E07000
F0F000
FCE000
3FC000
0FC000
07E000
07F800
077E00
0F1F00
1E0E00
1C0200
3C0000
380000
180000
ENDCHAR
STARTCHAR 0483
ENCODING 1155
SWIDTH 0 0
DWIDTH 0 0
BBX 16 7 -17 25
BITMAP
0006
000F
7FFF
FFFE
FFF8
E000
4000
ENDCHAR
STARTCHAR 0484
ENCODING 1156
SWIDTH 0 0
DWIDTH 0 0
BBX 17 5 -18 27
BITMAP
00FE00
07FF00
7FC780
7E0380
F00380
ENDCHAR
STARTCHAR 0485
ENCODING 1157
SWIDTH 0 0
DWIDTH 0 0
BBX 5 7 -12 27
BITMAP
70
F8
F0
E0
60
38
08
ENDCHAR
STARTCHAR 0486
ENCODING 1158
SWIDTH 0 0
DWIDTH 0 0
BBX 5 7 -11 27
BITMAP
F0
F8
78
30
70
E0
80
ENDCHAR
STARTCHAR 0488
ENCODING 1160
SWIDTH 967 0
DWIDTH 43 0
BBX 42 38 1 -7
BITMAP
00001E000000
00007F000000
000063800000
0000C1800000
000000000000
000000000000
01C00000E000
07F00003F800
0F700007B800
0C1800060C00
000000000000
000000000000
000000000000
000000000000
000000000000
000000000000
000000000000
3E0000001F00
7F0000003F80
C180000060C0
C180000060C0
000000000000
000000000000
000000000000
000000000000
000000000000
000000000000
000000000000
07E00003F000
0FF00007F800
0C1800060C00
081800040C00
000000000000
000000000000
00003F000000
00007F800000
0000C1800000
0000C0800000
ENDCHAR
STARTCHAR 0489
ENCODING 1161
SWIDTH 945 0
DWIDTH 42 0
BBX 41 40 1 -8
BITMAP
00000C000000
00000C000000
00001C000000
00001C000000
01001C000000
030038000000
038038002000
01800000F000
01C00003E000
00E0000F8000
00F0000F0000
006000040000
004000000000
000000000000
000000000000
000000000000
000000000000
000000000000
F00000007000
FF0000007E00
3F0000007F80
070000000780
000000000000
000000000000
000000000000
000000000000
000000000000
000000000000
000000020000
002000070000
00F000070000
01F000038000
07C000038000
07001C01C000
00001C00C000
00001C00C000
000018000000
000018000000
000038000000
000030000000
ENDCHAR
STARTCHAR 048A
ENCODING 1162
SWIDTH 697 0
DWIDTH 31 0
BBX 29 49 2 -8
BITMAP
001C01E0
001C01C0
001E03C0
001E0780
000FFF80
0007FE00
0001F000
00000000
00000000
03C00078
03C000F8
03C001F8
038003F8
038003F0
078007F0
07800FF0
07001EF0
07001CE0
070038E0
0F0078E0
0F00F1E0
0E01E1E0
0E01C1C0
0E03C1C0
1E0781C0
1E0F03C0
1C1E03C0
1C1E0380
3C3C0380
3C780780
3CF00780
38E00780
39E00700
7BC00700
7F800F00
7F000F00
7F000E00
7E000E00
FC000FE0
F8001FC0
F0001FC0
00000380
00000380
00000700
00000F00
00000F00
00001E00
00001E00
00003C00
ENDCHAR
STARTCHAR 048B
ENCODING 1163
SWIDTH 562 0
DWIDTH 25 0
BBX 23 42 2 -8
BITMAP
01C01E
01C01C
01C03C
01E078
01FFF8
00FFF0
003FC0
000000
000000
000000
0F001C
0E003C
0E003C
1E003C
1E0038
1E0038
1C0078
3C0078
3C0078
3C0070
3C0070
3800F0
7800F0
7800E0
7801E0
7001E0
7003E0
F003E0
F007C0
F00FC0
781DC0
7FF9F8
3FF3F8
1FC3F8
000070
000070
0000E0
0000E0
0001C0
0003C0
000380
000780
ENDCHAR
STARTCHAR 048C
ENCODING 1164
SWIDTH 540 0
DWIDTH 24 0
BBX 20 32 2 0
BITMAP
01C000
03C000
03C000
03C000
3FFF00
3FFF00
3FFE00
078000
070000
070000
0F0000
0F0000
0F0000
0E0000
0FFE00
1FFF80
1FFFC0
1E07E0
1C01F0
3C00F0
3C00F0
3C00F0
3C00F0
3800F0
7800F0
7801E0
7801E0
7007C0
703F80
FFFF00
FFFE00
FFF000
ENDCHAR
STARTCHAR 048D
ENCODING 1165
SWIDTH 517 0
DWIDTH 23 0
BBX 17 34 3 0
BITMAP
078000
078000
070000
0F0000
0F0000
0F0000
7FF800
FFF800
1E0000
1E0000
1E0000
1C0000
1C0000
3C0000
3C0000
3C0000
380000
380000
780000
780000
7FF800
7FFE00
FFFF00
F00F80
F00780
E00380
E00380
E00380
E00780
F00780
F80F00
7FFE00
3FFC00
1FF800
ENDCHAR
STARTCHAR 048E
ENCODING 1166
SWIDTH 562 0
DWIDTH 25 0
BBX 23 32 2 0
BITMAP
01FF80
03FFF0
03FFF8
03C3FC
03803C
07801E
07801E
07801E
07801E
07001E
0F001E
0F021E
0F0E1E
0E0F3C
0E077C
1E07F8
1FFFF0
1FFFC0
1FFFC0
1C01C0
3C00E0
3C00E0
3C0000
380000
780000
780000
780000
780000
700000
F00000
F00000
F00000
ENDCHAR
STARTCHAR 048F
ENCODING 1167
SWIDTH 562 0
DWIDTH 25 0
BBX 24 35 -1 -11
BITMAP
01C1F8
01C7FC
01CFFE
01DC1F
03F80F
03F00F
03E007
03C007
03C007
078007
078007
07800F
07000F
0F000F
0F000F
0F001E
0F041E
0F0E3C
1F0F3C
1F8778
1D87F8
1DFFF0
1CFFE0
3C7FC0
3C00E0
3C00E0
380070
380060
780000
780000
780000
700000
F00000
F00000
F00000
ENDCHAR
STARTCHAR 0490
ENCODING 1168
SWIDTH 472 0
DWIDTH 21 0
BBX 24 38 2 0
BITMAP
00000F
00000F
00000E
00000E
00001E
00001E
01FFFC
03FFFC
03FFFC
03FFFC
038000
078000
078000
078000
078000
070000
0F0000
0F0000
0F0000
0E0000
0E0000
1E0000
1E0000
1E0000
1C0000
3C0000
3C0000
3C0000
3C0000
380000
780000
780000
780000
700000
700000
F00000
F00000
F00000
ENDCHAR
STARTCHAR 0491
ENCODING 1169
SWIDTH 382 0
DWIDTH 17 0
BBX 19 31 1 0
BITMAP
0000E0
0001E0
0001E0
0001E0
0001C0
0001C0
0003C0
07FFC0
07FFC0
07FF80
070000
0F0000
0F0000
0F0000
0E0000
0E0000
1E0000
1E0000
1E0000
1C0000
3C0000
3C0000
3C0000
380000
380000
780000
780000
780000
700000
700000
F00000
ENDCHAR
STARTCHAR 0492
ENCODING 1170
SWIDTH 472 0
DWIDTH 21 0
BBX 22 32 2 0
BITMAP
01FFFC
03FFFC
03FFFC
03FFFC
038000
078000
078000
078000
078000
070000
0F0000
0F0000
0F0000
0E0000
0E0000
FFFC00
FFFC00
FFFC00
1C0000
3C0000
3C0000
3C0000
3C0000
380000
780000
780000
780000
700000
700000
F00000
F00000
F00000
ENDCHAR
STARTCHAR 0493
ENCODING 1171
SWIDTH 382 0
DWIDTH 17 0
BBX 19 24 0 0
BITMAP
03FFE0
03FFE0
03FFC0
038000
078000
078000
078000
070000
070000
0F0000
0F0000
7FF800
FFF800
0E0000
1E0000
1E0000
1E0000
1C0000
3C0000
3C0000
3C0000
380000
380000
780000
ENDCHAR
STARTCHAR 0494
ENCODING 1172
SWIDTH 585 0
DWIDTH 26 0
BBX 23 43 2 -11
BITMAP
01FFFE
03FFFE
03FFFC
03FFFC
038000
078000
078000
078000
078000
070000
0F0000
0F0000
0F0000
0E0000
0E0000
1FFE00
1FFF80
1FFFC0
1C07E0
1C01E0
3C00F0
3C00F0
3C0078
380078
780078
780078
780078
780078
700078
F00078
F00078
F000F0
0000F0
0000F0
0001F0
0001E0
0003E0
0007C0
000F80
707F00
7FFE00
7FFC00
3FE000
ENDCHAR
STARTCHAR 0495
ENCODING 1173
SWIDTH 472 0
DWIDTH 21 0
BBX 18 35 1 -11
BITMAP
07FFC0
07FFC0
07FF80
070000
0F0000
0F0000
0F0000
0E0000
0E0000
1E0000
1FF000
1FFC00
1FFE00
1E3F00
3C0F80
3C0780
380780
3803C0
7803C0
7803C0
7803C0
7003C0
7003C0
F00380
000380
000780
000780
000F00
000F00
001E00
003E00
38FC00
3FF800
3FF000
1F8000
ENDCHAR
STARTCHAR 0496
ENCODING 1174
SWIDTH 810 0
DWIDTH 36 0
BBX 40 40 -2 -8
BITMAP
01E003800F
00E003801E
00F007803C
0078078078
00780780F8
003C0701F0
003C0703E0
001E0F07C0
001E0F0F80
000F0E0F00
000F0E1E00
00079E3C00
00079E7800
0003DEF000
0003DDE000
0001FFC000
0003FFC000
0007BDC000
000F3DE000
001F38F000
003E38F000
007C787800
00F8787800
01F0703C00
01E0703C00
03C0701E00
0780F01E00
0F00F00F00
1E00E00F00
3E00E007F0
7C01E007F0
F801E003F0
00000000E0
00000000E0
00000000E0
00000001E0
00000001E0
00000001C0
00000001C0
00000003C0
ENDCHAR
STARTCHAR 0497
ENCODING 1175
SWIDTH 832 0
DWIDTH 37 0
BBX 39 32 -1 -8
BITMAP
0FE00F00FE
0FF00E03FE
0FF80E07FE
007C0E0F80
003C0E0F00
003C1E1E00
001E1C3C00
001E1C3C00
001E1C3800
001E3C7800
001E3C7800
001FFFF800
001FFFF000
003C387000
003C78F000
003C78F000
0078707000
0078707000
00F0707800
01F0F07800
03E0E07C00
7FC0E03FE0
7F80E01FE0
FE00E00FE0
00000001E0
00000001E0
00000001C0
00000001C0
00000003C0
00000003C0
00000003C0
0000000380
ENDCHAR
STARTCHAR 0498
ENCODING 1176
SWIDTH 517 0
DWIDTH 23 0
BBX 23 42 0 -10
BITMAP
003FE0
00FFF8
03FFFC
07E07C
03001E
00001E
00001E
00000E
00001E
00001E
00001E
00003C
000078
0001F0
03FFC0
03FF00
03FFC0
0007E0
0000F0
000078
000078
000078
000078
000078
000078
000078
0000F0
8001F0
E007E0
FFFFC0
FFFF80
3FFE00
00E000
006000
007000
007000
007000
007000
00F000
0FE000
0FC000
070000
ENDCHAR
STARTCHAR 0499
ENCODING 1177
SWIDTH 427 0
DWIDTH 19 0
BBX 18 34 0 -10
BITMAP
03FE00
0FFF80
0FFFC0
0E03C0
0003C0
0001C0
0001C0
0003C0
0003C0
000F80
03FE00
03F800
03FE00
001F00
000700
000780
000780
000780
000780
000F00
C01F00
FFFE00
FFFC00
7FF000
018000
01C000
01C000
01C000
01C000
01C000
01C000
1F8000
3F8000
1C0000
ENDCHAR
STARTCHAR 049A
ENCODING 1178
SWIDTH 585 0
DWIDTH 26 0
BBX 27 40 2 -8
BITMAP
01C003E0
03C007C0
03C00F80
03C01F00
03803E00
07807C00
0780F800
0781F000
0783E000
07078000
0F0F0000
0F1E0000
0F3C0000
0F780000
0EF00000
1FE00000
1FE00000
1EF00000
1CF00000
1C780000
3C3C0000
3C3C0000
3C1E0000
380F0000
780F0000
78078000
7807C000
7803C000
7001E000
F001FE00
F000FC00
F0007C00
00003C00
00003C00
00003C00
00003800
00003800
00007800
00007800
00007800
ENDCHAR
STARTCHAR 049B
ENCODING 1179
SWIDTH 495 0
DWIDTH 22 0
BBX 22 32 1 -8
BITMAP
07807C
0780F8
0701F0
0703E0
0F07C0
0F0F80
0F1F00
0E3E00
0E7C00
1EF800
1FF000
1FE000
1DC000
3DE000
3CF000
3C7800
387800
383C00
781E00
781E00
780F00
700FF0
7007F0
F003F0
0000E0
0000E0
0001E0
0001E0
0001C0
0001C0
0001C0
0003C0
ENDCHAR
STARTCHAR 049C
ENCODING 1180
SWIDTH 562 0
DWIDTH 25 0
BBX 27 32 2 0
BITMAP
01C003E0
03C007C0
03C00F80
03C01F00
03803E00
07807C00
078EF800
078FF000
078FC000
070F8000
0F1F0000
0F1E0000
0F3C0000
0E7C0000
0EF80000
1FF80000
1FF80000
1EF80000
1CF80000
1C780000
3C7C0000
3C7C0000
3C7E0000
387F0000
78EF0000
78E78000
7807C000
7803C000
7001E000
F001E000
F000F000
F0007800
ENDCHAR
STARTCHAR 049D
ENCODING 1181
SWIDTH 472 0
DWIDTH 21 0
BBX 22 24 1 0
BITMAP
07803C
078078
0718F0
0739E0
0F3BC0
0F3F80
0F3F00
0E7E00
0E7C00
1E7800
1EF000
1FE000
1DE000
3DE000
3CF000
3CF000
38F800
39FC00
79DC00
79DE00
798F00
738F80
700780
F003C0
ENDCHAR
STARTCHAR 049E
ENCODING 1182
SWIDTH 540 0
DWIDTH 24 0
BBX 27 32 2 0
BITMAP
01C003E0
03C007C0
03C00F80
03C01F00
3FF83C00
3FF87800
3FF8F000
0781E000
0783C000
07078000
0F0F0000
0F1E0000
0F3C0000
0E780000
0EF00000
1FE00000
1FE00000
1EF00000
1CF00000
1C780000
3C3C0000
3C3C0000
3C1E0000
381F0000
780F0000
78078000
78078000
7003C000
7001E000
F001E000
F000F000
F0007800
ENDCHAR
STARTCHAR 049F
ENCODING 1183
SWIDTH 472 0
DWIDTH 21 0
BBX 22 34 1 0
BITMAP
01E000
01E000
01E000
01C000
1FFF00
1FFF00
1FFE00
038000
038000
078000
07807C
0780F8
0701F0
0703E0
0F03C0
0F0780
0F0F00
0E1E00
0E3C00
1E7800
1EF000
1DE000
1FE000
3DE000
3CF000
3C7800
387800
383C00
783E00
781E00
780F00
700F80
700780
F003C0
ENDCHAR
STARTCHAR 04A0
ENCODING 1184
SWIDTH 630 0
DWIDTH 28 0
BBX 28 32 4 0
BITMAP
7FE001F0
FFE003E0
FFE007C0
FFE00F80
01E01F00
01C03E00
01C07C00
03C0F800
03C1F000
03C3E000
0387C000
038F8000
079F0000
07BE0000
07FC0000
07F80000
0FF00000
0F780000
0F3C0000
0E3C0000
0E1E0000
1E1F0000
1E0F0000
1E078000
1C07C000
1C03C000
3C01E000
3C01E000
3C00F000
38007800
78007800
78003C00
ENDCHAR
STARTCHAR 04A1
ENCODING 1185
SWIDTH 540 0
DWIDTH 24 0
BBX 24 24 2 0
BITMAP
FFE00F
FFE01E
FFE03C
01E078
01E0F0
01C1E0
01C3C0
03C780
03CF00
03DE00
03BC00
03F800
07F800
07BC00
079C00
071E00
0F0F00
0F0700
0F0780
0E03C0
0E03E0
1E01E0
1E00F0
1E00F8
ENDCHAR
STARTCHAR 04A2
ENCODING 1186
SWIDTH 675 0
DWIDTH 30 0
BBX 28 40 2 -8
BITMAP
01C00070
03C000F0
03C000F0
03C000F0
038000E0
078000E0
078001E0
078001E0
078001E0
070001C0
0F0001C0
0F0003C0
0F0003C0
0E0003C0
0FFFFF80
1FFFFF80
1FFFFF80
1E000780
1C000780
1C000700
3C000F00
3C000F00
3C000F00
38000E00
78000E00
78001E00
78001E00
78001E00
70001C00
F0001FC0
F0003FC0
F0003F80
00000380
00000780
00000780
00000780
00000700
00000700
00000F00
00000F00
ENDCHAR
STARTCHAR 04A3
ENCODING 1187
SWIDTH 585 0
DWIDTH 26 0
BBX 24 32 1 -8
BITMAP
078007
07800F
07000F
07000F
0F000E
0F001E
0F001E
0E001E
0E001C
1E001C
1FFFFC
1FFFFC
1FFFFC
3C0038
3C0038
3C0078
380078
380078
780070
7800F0
7800F0
7000FE
7000FE
F000FE
00001C
00003C
00003C
00003C
000038
000038
000078
000078
ENDCHAR
ENDFONT
